<?xml version="1.0" encoding="utf-8"?>
<!-- Generator: Adobe Illustrator 26.0.2, SVG Export Plug-In . SVG Version: 6.00 Build 0)  -->
<svg version="1.1" id="Layer_1" xmlns="http://www.w3.org/2000/svg" xmlns:xlink="http://www.w3.org/1999/xlink" x="0px" y="0px"
	 width="65.2px" height="65.4px" viewBox="0 0 65.2 65.4" style="enable-background:new 0 0 65.2 65.4;" xml:space="preserve">
<style type="text/css">
	.st0{fill-rule:evenodd;clip-rule:evenodd;fill:#FFFFFF;stroke:#E8993D;stroke-width:0.75;stroke-miterlimit:10;}
	.st1{fill-rule:evenodd;clip-rule:evenodd;fill:#E8993D;}
	.st2{fill-rule:evenodd;clip-rule:evenodd;fill:#127EE0;}
</style>
<circle class="st0" cx="32.6" cy="32.6" r="32"/>
<g>
	<path class="st1" d="M39.7,32.7L39.7,32.7c0-3.9-2.3-7.2-5.8-8.7l0.7-1.4c3.9,1.6,6.7,5.6,6.7,10.1c0,4.7-2.9,8.6-7,10.3l-0.6-1.5
		C37.2,40.1,39.7,36.7,39.7,32.7L39.7,32.7z"/>
	<polygon class="st2" points="22.2,27.5 22.2,27.5 22.2,38.1 27.4,42.9 28.3,43.8 30.7,46 30.7,19.5 	"/>
	<path class="st2" d="M15.7,27.8L15.7,27.8v9.9c6.5,0,0.6,0,4.9,0v-9.9H15.7z"/>
	<path class="st1" d="M47.5,32.5L47.5,32.5c0-5.7-3.3-10.7-8.2-13.1l0.9-1.7c5.4,2.7,9.2,8.3,9.2,14.9s-3.9,12.4-9.6,15L39,45.8
		C44,43.5,47.5,38.4,47.5,32.5L47.5,32.5z"/>
	<path class="st1" d="M43.5,32.7c0-4.7-2.7-8.9-6.8-10.9l0.7-1.4c4.6,2.2,7.7,6.9,7.7,12.3c0,5.5-3.3,10.3-8,12.5l-0.6-1.4
		C40.7,41.8,43.5,37.6,43.5,32.7L43.5,32.7z"/>
</g>
</svg>
