<svg width="112" height="102" viewBox="0 0 112 102" fill="none" xmlns="http://www.w3.org/2000/svg">
<path d="M80.675 -6.5L60.9 23.075H70.7L92.75 -6.5H80.675Z" fill="#428BC1"/>
<path d="M70.7 -6.5L51.1 23.075H60.9L80.675 -6.5H70.7Z" fill="#E8E8E8"/>
<path d="M60.9 -6.5L41.3 23.075H51.1L70.7 -6.5H60.9Z" fill="#ED4C5C"/>
<path d="M56 98.5C75.9099 98.5 92.05 82.3599 92.05 62.45C92.05 42.5401 75.9099 26.4 56 26.4C36.0901 26.4 19.95 42.5401 19.95 62.45C19.95 82.3599 36.0901 98.5 56 98.5Z" fill="#FFCE31"/>
<path d="M37.975 16.425C37.1 16.425 36.4 17.125 36.4 18V32.7C36.4 33.575 37.1 34.275 37.975 34.275H74.025C74.9 34.275 75.6 33.575 75.6 32.7V18C75.6 17.125 74.9 16.425 74.025 16.425H37.975ZM72.45 27.975C72.45 28.85 71.75 29.55 70.875 29.55H41.3C40.425 29.55 39.725 28.85 39.725 27.975V21.325C39.725 20.45 40.425 19.75 41.3 19.75H70.875C71.75 19.75 72.45 20.45 72.45 21.325V27.975Z" fill="#FFCE31"/>
<path opacity="0.5" d="M25.025 66.65C25.025 47.05 40.075 31.125 59.325 29.725C58.45 29.725 57.4 29.55 56.525 29.55C38.15 29.55 23.275 44.425 23.275 62.975C23.275 68.4 24.675 73.65 26.95 78.2C25.725 74.525 25.025 70.675 25.025 66.65Z" fill="#89664C"/>
<path opacity="0.33" d="M69.825 90.275C86.1 79.425 91 58.25 81.55 41.8L83.125 43.9C93.275 58.95 89.075 79.425 73.85 89.75C69.3 92.9 64.225 94.65 59.15 95.175C63 94.125 66.5 92.55 69.825 90.275Z" fill="white"/>
<path d="M41.3 23.075H51.1L31.325 -6.5H19.25L41.3 23.075Z" fill="#ED4C5C"/>
<path d="M51.1 23.075H60.9L41.3 -6.5H31.325L51.1 23.075Z" fill="#E8E8E8"/>
<path opacity="0.5" d="M57.575 -1.59999L52.675 5.75001L64.225 23.075H70.7L72.45 20.625L57.575 -1.59999Z" fill="#3E4347"/>
<path d="M60.9 23.075H70.7L51.1 -6.5H41.3L60.9 23.075Z" fill="#428BC1"/>
<path opacity="0.5" d="M46.9 51.6V53.35C48.65 53.35 50.225 53 51.8 52.3V49.85C50.4 50.9 48.825 51.425 46.9 51.6Z" fill="#89664C"/>
<path opacity="0.5" d="M58.45 40.225H60.025V78.025H58.45V40.225Z" fill="#89664C"/>
<path opacity="0.5" d="M65.1 79.6V84.5H46.9V86.25H66.675V79.6H65.1Z" fill="#89664C"/>
<path opacity="0.33" d="M60.025 78.025H64.925V79.6H60.025V78.025Z" fill="white"/>
<path opacity="0.33" d="M53.55 40.225H58.45V38.65H51.8C51.8 42.325 48.825 45.3 45.15 45.3V51.775C45.675 51.775 46.2 51.775 46.725 51.6V46.7C50.575 46.875 53.55 43.9 53.55 40.225Z" fill="white"/>
<path opacity="0.33" d="M53.55 79.6V51.6C53.025 51.95 52.5 52.125 51.975 52.475V78.025H45.325V84.5H46.9V79.6H53.55Z" fill="white"/>
</svg>
