<svg xmlns="http://www.w3.org/2000/svg" xmlns:xlink="http://www.w3.org/1999/xlink" viewBox="0 0 785.31 192.19"><defs><style>.cls-1,.cls-12,.cls-97{fill:none;}.cls-2{isolation:isolate;}.cls-3{clip-path:url(#clip-path);}.cls-4{fill:#e2e2e2;}.cls-5{fill:#9ad7db;}.cls-6{fill:#2897ea;}.cls-7{fill:#f4f4f4;}.cls-8,.cls-90,.cls-92{fill:#fff;}.cls-9{opacity:0.4;}.cls-10{clip-path:url(#clip-path-2);}.cls-11{fill:#48e5ff;}.cls-12{stroke:#48e5ff;}.cls-12,.cls-97{stroke-miterlimit:10;}.cls-13{fill:#fccb95;}.cls-14{fill:#1e160d;}.cls-15{fill:#221096;}.cls-16{fill:#090f11;}.cls-17{fill:#fed8a7;}.cls-18{fill:#562205;}.cls-19{fill:#0e1719;}.cls-20{fill:#d3a524;}.cls-21{fill:#f7cc45;}.cls-22{fill:#e9993e;}.cls-23{fill:#f9ac5f;}.cls-24{clip-path:url(#clip-path-3);}.cls-25{clip-path:url(#clip-path-4);}.cls-26{fill:#999;}.cls-27,.cls-40{fill:#0d4c7c;}.cls-28{fill:#0b151a;}.cls-29{opacity:0.5;mix-blend-mode:multiply;}.cls-30{clip-path:url(#clip-path-5);}.cls-31{fill:#162b35;}.cls-32{fill:#e8993d;}.cls-33{fill:#003a5e;}.cls-34{fill:#ffb294;}.cls-35{fill:#4d4d4d;}.cls-36{fill:#2d2d2d;}.cls-37{fill:#6d6861;}.cls-38{fill:#474747;}.cls-39{fill:#b6e2eb;}.cls-40,.cls-41{fill-rule:evenodd;}.cls-105,.cls-41{fill:#2f71b6;}.cls-42{fill:#6865c9;}.cls-43{fill:#7c78f0;}.cls-44{fill:#676f97;}.cls-45{fill:#504f60;}.cls-46{fill:#8e8e8e;}.cls-47{fill:#ccdefb;}.cls-48{fill:#5c8bff;}.cls-49{fill:#ff8b9a;}.cls-50{fill:#e6f1ff;}.cls-51{fill:#8c92b0;}.cls-52{fill:#754554;}.cls-53{fill:#d399a1;}.cls-54{fill:#ce939a;}.cls-55{fill:#f0beb9;}.cls-56{fill:#c38b92;}.cls-57{fill:#e4afb3;}.cls-58{fill:#c5c9d8;}.cls-59{fill:#e5e8f5;}.cls-60{fill:#e7e7f0;}.cls-61{fill:#eff0f5;}.cls-62{fill:#c4c8d8;}.cls-63{fill:#25242f;}.cls-64{fill:#2d2c37;}.cls-65{clip-path:url(#clip-path-6);}.cls-66{clip-path:url(#clip-path-7);}.cls-67{fill:#6d362f;}.cls-68{fill:#cebcbc;}.cls-69{fill:#af9595;}.cls-70{fill:#dcc;}.cls-71{fill:#bca2a2;}.cls-72{fill:#997a7a;}.cls-73{fill:#82413c;}.cls-74{fill:#6671a3;}.cls-75{fill:#7d85b4;}.cls-76{fill:#934a47;}.cls-77{fill:#aa5757;}.cls-78{fill:#fffffd;}.cls-79{fill:#c6d0d6;}.cls-80{fill:#d6dbd8;}.cls-81{fill:#dfe7db;}.cls-82{clip-path:url(#clip-path-9);}.cls-83{fill:#e18763;}.cls-84{fill:#ffd6c5;}.cls-85{fill:#e1e1e1;}.cls-86{fill:#464650;}.cls-87{fill:#29b473;}.cls-88{fill:#231f20;}.cls-89{fill:#dbdcdd;}.cls-90{font-size:2.68px;}.cls-90,.cls-92{font-family:ActionSans-Bold, ActionSans Bold;font-weight:700;}.cls-91{fill:#f6911e;}.cls-92{font-size:2.68px;}.cls-93{clip-path:url(#clip-path-12);}.cls-94{opacity:0.43;}.cls-95{clip-path:url(#clip-path-13);}.cls-96{fill:#a5b8c5;}.cls-97{stroke:#000;stroke-width:0.5px;}.cls-98{fill:#127ee0;}.cls-99{fill:#e6e6e7;}.cls-100{fill:#f0f1f1;}.cls-101{clip-path:url(#clip-path-14);}.cls-102{clip-path:url(#clip-path-15);}.cls-103{opacity:0.1;}.cls-104{clip-path:url(#clip-path-16);}.cls-106{clip-path:url(#clip-path-17);}.cls-107{clip-path:url(#clip-path-18);}.cls-108{clip-path:url(#clip-path-19);}.cls-109{clip-path:url(#clip-path-20);}.cls-110{clip-path:url(#clip-path-21);}.cls-111{clip-path:url(#clip-path-22);}.cls-112{clip-path:url(#clip-path-23);}.cls-113{clip-path:url(#clip-path-24);}.cls-114{clip-path:url(#clip-path-25);}.cls-115{clip-path:url(#clip-path-26);}</style><clipPath id="clip-path" transform="translate(-3.74 -3.84)"><rect class="cls-1" x="496.8" y="-987.63" width="1707" height="1306"/></clipPath><clipPath id="clip-path-2" transform="translate(-3.74 -3.84)"><rect class="cls-1" x="73.56" y="167.17" width="36.02" height="23.64"/></clipPath><clipPath id="clip-path-3" transform="translate(-3.74 -3.84)"><rect class="cls-1" x="-356.3" y="-424.52" width="1707" height="1306"/></clipPath><clipPath id="clip-path-4" transform="translate(-3.74 -3.84)"><path class="cls-1" d="M516,129.8l10.75,13.55c0,.38,4.82,3.52,4.79,3.89,0,.19.92.19,1.84.18s1.8,0,1.78.18c0,0,0,.06,0,.1a4.57,4.57,0,0,0,2.21,4.23,3.65,3.65,0,0,0,.72.34,22.59,22.59,0,0,0,2.59.74,15.78,15.78,0,0,0,10.55-2.5,5,5,0,0,0,1.67-2,5.32,5.32,0,0,0,.37-1.15c.12-.63,3.73-.54,3.63-1.18s6.54-4.72,7-4.95c7.73-4.15,8.68-17.47,8.68-17.47-.66-5.17-13.9-21.94-28.8-21.94-9.53,0-19.73,6.87-27.74,28"/></clipPath><clipPath id="clip-path-5" transform="translate(-3.74 -3.84)"><rect class="cls-1" x="535.19" y="149.37" width="4.95" height="39.14"/></clipPath><clipPath id="clip-path-6" transform="translate(-3.74 -3.84)"><rect class="cls-1" x="-256.05" y="-224.84" width="1707" height="1306"/></clipPath><clipPath id="clip-path-7" transform="translate(-3.74 -3.84)"><rect class="cls-1" x="556.18" y="75.83" width="28.17" height="18.56"/></clipPath><clipPath id="clip-path-9" transform="translate(-3.74 -3.84)"><rect class="cls-1" x="508.41" y="20.24" width="6.94" height="9.55"/></clipPath><clipPath id="clip-path-12" transform="translate(-3.74 -3.84)"><rect class="cls-1" x="-254.55" y="-225.76" width="1707" height="1306"/></clipPath><clipPath id="clip-path-13" transform="translate(-3.74 -3.84)"><rect class="cls-1" x="525.15" y="20.41" width="5.3" height="6.2"/></clipPath><clipPath id="clip-path-14" transform="translate(-3.74 -3.84)"><rect class="cls-1" x="-509.18" y="-497.4" width="1707" height="1306"/></clipPath><clipPath id="clip-path-15" transform="translate(-3.74 -3.84)"/><clipPath id="clip-path-16" transform="translate(-3.74 -3.84)"><rect class="cls-1" x="332.39" y="61.08" width="30.83" height="13.99"/></clipPath><clipPath id="clip-path-17" transform="translate(-3.74 -3.84)"><rect class="cls-1" x="263.58" y="98.97" width="15.44" height="8.92"/></clipPath><clipPath id="clip-path-18" transform="translate(-3.74 -3.84)"><rect class="cls-1" x="310.85" y="110" width="15.44" height="8.92"/></clipPath><clipPath id="clip-path-19" transform="translate(-3.74 -3.84)"><rect class="cls-1" x="350.24" y="85.74" width="15.44" height="8.92"/></clipPath><clipPath id="clip-path-20" transform="translate(-3.74 -3.84)"><rect class="cls-1" x="303.98" y="72.44" width="24.23" height="13.99"/></clipPath><clipPath id="clip-path-21" transform="translate(-3.74 -3.84)"><rect class="cls-1" x="152.73" y="62.37" width="24.23" height="13.99"/></clipPath><clipPath id="clip-path-22" transform="translate(-3.74 -3.84)"><rect class="cls-1" x="172.67" y="84.66" width="15.44" height="8.92"/></clipPath><clipPath id="clip-path-23" transform="translate(-3.74 -3.84)"><rect class="cls-1" x="106.36" y="59.78" width="30.83" height="13.99"/></clipPath><clipPath id="clip-path-24" transform="translate(-3.74 -3.84)"><polygon class="cls-1" points="13.55 24.98 6.42 28.88 37.54 46.84 62.25 32.64 31.3 14.77 13.55 24.98"/></clipPath><clipPath id="clip-path-25" transform="translate(-3.74 -3.84)"><rect class="cls-1" x="13.55" y="-1155.1" width="1707" height="1306"/></clipPath><clipPath id="clip-path-26" transform="translate(-3.74 -3.84)"><rect class="cls-1" x="20.4" y="20.39" width="15.44" height="8.92"/></clipPath></defs><title>tilemap</title><g class="cls-2"><g id="Layer_13" data-name="Layer 13"><g class="cls-3"><path class="cls-4" d="M766.15,145.76c2.34,1.34,2.35,3.53,0,4.88L705.32,186a9.29,9.29,0,0,1-8.42,0l-93.23-53.83c-2.33-1.34-2.35-3.53,0-4.87L664.5,91.94a9.28,9.28,0,0,1,8.43,0Z" transform="translate(-3.74 -3.84)"/><path class="cls-5" d="M635.57,115.22l29.24-16.77a5.24,5.24,0,0,1,5.21,0l84.8,48.93a1.32,1.32,0,0,1,0,2.28l-29.25,16.77a5.24,5.24,0,0,1-5.21,0l-84.8-48.93a1.32,1.32,0,0,1,0-2.28" transform="translate(-3.74 -3.84)"/><path class="cls-5" d="M641.91,144.11,654.59,137a4,4,0,0,1,4,0l24.66,14.23a1.07,1.07,0,0,1,0,1.86l-12.67,7.11a4,4,0,0,1-4,0L641.9,146a1.08,1.08,0,0,1,0-1.87" transform="translate(-3.74 -3.84)"/><path class="cls-6" d="M767.91,148.27a1.32,1.32,0,0,1,0,.34,2.14,2.14,0,0,1-.09.34c0,.11-.1.23-.16.34a2.71,2.71,0,0,1-.24.35,3.44,3.44,0,0,1-.37.4,4.53,4.53,0,0,1-.76.56l-.07,0L705.32,186a6.92,6.92,0,0,1-1.3.57,8.11,8.11,0,0,1-1.13.28c-.25,0-.5.08-.76.11s-.44,0-.66,0h-.61l-.58,0-.58-.07-.6-.1-.62-.16q-.37-.1-.72-.24a7,7,0,0,1-.87-.41l-93.22-53.83a3,3,0,0,1-1.76-2.46v4.69a3,3,0,0,0,1.76,2.46l93.22,53.82a6.23,6.23,0,0,0,.86.42c.24.09.48.17.73.24a6.23,6.23,0,0,0,.62.15l.59.11.58.06a5.83,5.83,0,0,0,.59,0c.2,0,.41,0,.61,0l.66,0c.26,0,.51-.06.76-.11a8,8,0,0,0,1.12-.28,6.39,6.39,0,0,0,1.3-.57l60.87-35.37.07,0a4.58,4.58,0,0,0,.75-.56,2.74,2.74,0,0,0,.37-.4,1.88,1.88,0,0,0,.24-.36,1.5,1.5,0,0,0,.16-.34,2.07,2.07,0,0,0,.1-.33c0-.12,0-.23,0-.34v-4.69" transform="translate(-3.74 -3.84)"/><path class="cls-6" d="M789.05,71.5v-.08a.25.25,0,0,0,0-.08v-.08a.22.22,0,0,0,0-.08s0-.06,0-.09l0-.08s0-.06,0-.09,0-.06,0-.09l0-.08,0-.09,0-.09,0-.08,0-.08,0-.08a.3.3,0,0,1,0-.08l0-.08-.06-.11a.65.65,0,0,0-.09-.16l-.1-.17-.11-.16-.08-.09-.06-.08-.06-.08-.07-.07-.06-.07-.07-.07-.08-.06a.46.46,0,0,0-.07-.07l-.07-.06-.08,0-.07-.06-.07,0-.07,0h0L686.74,10.6l0,0-.07,0-.06,0-.07,0-.07,0-.06,0-.07,0-.07,0h-.4l-.11,0-.14.06-2.48,1.44.14-.06.11,0h.4l.07,0,.07,0,.07,0,.06,0,.07,0,.07,0,.06,0,.06,0L784.92,70.16h0l.07,0,.07,0,.08.06.07,0,.07.06.08.07.07.06a.23.23,0,0,0,.07.07l.06.07.07.07.06.08.06.08.08.09.11.16.11.17.09.16.05.11a.59.59,0,0,1,0,.08s0,0,0,.08l0,.08a.3.3,0,0,0,0,.08l0,.08,0,.09s0,.06,0,.09l0,.08s0,.06,0,.09a.29.29,0,0,1,0,.09l0,.08a.28.28,0,0,1,0,.09l0,.08v.16a.22.22,0,0,0,0,.08V73a.22.22,0,0,1,0,.08v.08s0,0,0,.08v.1l-14.42,74.78a.13.13,0,0,1,0,.06s0,.06,0,.09l0,.09,0,.09-.06.12a.83.83,0,0,1-.29.27l2.48-1.44a.8.8,0,0,0,.28-.27.75.75,0,0,0,.07-.12l0-.09,0-.09a.29.29,0,0,1,0-.09s0,0,0-.06L789,71.92v-.1s0-.06,0-.08V71.5" transform="translate(-3.74 -3.84)"/><path class="cls-4" d="M784.93,70.16a3.53,3.53,0,0,1,1.62,3.2l-14.42,74.78c-.15.81-.83,1.06-1.63.6L669.85,90.63a3.51,3.51,0,0,1-1.62-3.2l14.41-74.79c.16-.81.84-1.06,1.63-.6Z" transform="translate(-3.74 -3.84)"/><path class="cls-7" d="M672.71,87.92a1.44,1.44,0,0,1-.18-.32l13.53-70.16,96,55.43a1.15,1.15,0,0,1,.17.32l-13.52,70.16Z" transform="translate(-3.74 -3.84)"/><path class="cls-8" d="M670,101.87c.32.19.32.49,0,.67l-1.89,1.1a1.28,1.28,0,0,1-1.16,0l-3.32-1.92c-.33-.18-.33-.48,0-.67l1.9-1.1a1.27,1.27,0,0,1,1.17,0Z" transform="translate(-3.74 -3.84)"/><path class="cls-8" d="M675.8,105.24c.33.19.33.49,0,.68l-1.9,1.1a1.25,1.25,0,0,1-1.16,0l-3.31-1.91c-.33-.19-.33-.49,0-.68l1.9-1.1a1.25,1.25,0,0,1,1.16,0Z" transform="translate(-3.74 -3.84)"/><path class="cls-8" d="M681.65,108.62c.32.18.32.48,0,.67l-1.89,1.1a1.28,1.28,0,0,1-1.16,0l-3.32-1.92a.36.36,0,0,1,0-.68l1.89-1.1a1.33,1.33,0,0,1,1.17,0Z" transform="translate(-3.74 -3.84)"/><path class="cls-8" d="M687.49,112c.32.19.33.49,0,.68l-1.89,1.1a1.33,1.33,0,0,1-1.17,0l-3.31-1.91c-.32-.19-.33-.49,0-.68l1.89-1.1a1.27,1.27,0,0,1,1.17,0Z" transform="translate(-3.74 -3.84)"/><path class="cls-8" d="M693.34,115.37c.31.18.31.48,0,.67l-1.89,1.1a1.25,1.25,0,0,1-1.16,0L687,115.23c-.33-.19-.33-.49,0-.68l1.89-1.1a1.27,1.27,0,0,1,1.17,0Z" transform="translate(-3.74 -3.84)"/><path class="cls-8" d="M699.17,118.74c.33.18.33.48,0,.67l-1.9,1.1a1.25,1.25,0,0,1-1.16,0l-3.31-1.91c-.33-.19-.33-.49,0-.67l1.9-1.1a1.25,1.25,0,0,1,1.16,0Z" transform="translate(-3.74 -3.84)"/><path class="cls-8" d="M705,122.11c.33.19.33.49,0,.67l-1.9,1.1a1.27,1.27,0,0,1-1.17,0l-3.3-1.91a.35.35,0,0,1,0-.67l1.89-1.1a1.27,1.27,0,0,1,1.17,0Z" transform="translate(-3.74 -3.84)"/><path class="cls-8" d="M710.86,125.48c.32.19.33.49,0,.68l-1.89,1.1a1.27,1.27,0,0,1-1.17,0l-3.32-1.92c-.31-.18-.31-.48,0-.67l1.89-1.1a1.25,1.25,0,0,1,1.16,0Z" transform="translate(-3.74 -3.84)"/><path class="cls-8" d="M716.7,128.85a.36.36,0,0,1,0,.68l-1.89,1.1a1.27,1.27,0,0,1-1.17,0l-3.31-1.91c-.32-.19-.33-.49,0-.68l1.89-1.1a1.27,1.27,0,0,1,1.17,0Z" transform="translate(-3.74 -3.84)"/><path class="cls-8" d="M722.54,132.23c.33.19.33.49,0,.68l-1.89,1.1a1.33,1.33,0,0,1-1.17,0l-3.32-1.92c-.32-.18-.32-.48,0-.67l1.9-1.1a1.28,1.28,0,0,1,1.16,0Z" transform="translate(-3.74 -3.84)"/><path class="cls-8" d="M728.38,135.6c.33.19.33.49,0,.68l-1.9,1.1a1.31,1.31,0,0,1-1.16,0L722,135.47c-.33-.19-.33-.49,0-.68l1.9-1.1a1.25,1.25,0,0,1,1.16,0Z" transform="translate(-3.74 -3.84)"/><path class="cls-8" d="M734.23,139c.32.18.33.48,0,.67l-1.89,1.1a1.27,1.27,0,0,1-1.17,0l-3.32-1.91a.36.36,0,0,1,0-.67l1.89-1.1a1.28,1.28,0,0,1,1.16,0Z" transform="translate(-3.74 -3.84)"/><path class="cls-8" d="M741.41,143.12a.36.36,0,0,1,0,.68l-1.89,1.1a1.33,1.33,0,0,1-1.17,0l-4.65-2.69c-.32-.19-.33-.49,0-.67l1.89-1.1a1.27,1.27,0,0,1,1.17,0Z" transform="translate(-3.74 -3.84)"/><path class="cls-8" d="M748.62,147.28c.33.19.33.49,0,.68l-1.89,1.1a1.27,1.27,0,0,1-1.17,0l-4.68-2.7c-.32-.19-.32-.49,0-.67l1.9-1.11a1.31,1.31,0,0,1,1.16,0Z" transform="translate(-3.74 -3.84)"/><path class="cls-8" d="M665.67,104.37c.32.18.32.48,0,.67L662.38,107a1.28,1.28,0,0,1-1.16,0L657.9,105c-.33-.19-.33-.49,0-.68l3.28-1.91a1.27,1.27,0,0,1,1.17,0Z" transform="translate(-3.74 -3.84)"/><path class="cls-8" d="M671.51,107.74c.32.19.33.49,0,.68l-3.29,1.91a1.31,1.31,0,0,1-1.16,0l-3.31-1.91c-.33-.19-.33-.49,0-.68l3.29-1.91a1.27,1.27,0,0,1,1.17,0Z" transform="translate(-3.74 -3.84)"/><path class="cls-8" d="M656.66,105.76l6.16,3.56a.36.36,0,0,1,0,.68l-3.29,1.91a1.27,1.27,0,0,1-1.17,0l-6.15-3.56c-.32-.19-.33-.49,0-.68l3.29-1.91a1.25,1.25,0,0,1,1.16,0" transform="translate(-3.74 -3.84)"/><path class="cls-8" d="M677.36,111.12c.31.18.31.48,0,.67l-3.29,1.91a1.25,1.25,0,0,1-1.16,0l-3.31-1.91c-.33-.19-.33-.49,0-.68l3.29-1.91a1.27,1.27,0,0,1,1.17,0Z" transform="translate(-3.74 -3.84)"/><path class="cls-8" d="M671.67,114.42c.31.18.31.48,0,.67L668.37,117a1.28,1.28,0,0,1-1.16,0L661,113.46a.36.36,0,0,1,0-.68l3.29-1.91a1.25,1.25,0,0,1,1.16,0Z" transform="translate(-3.74 -3.84)"/><path class="cls-8" d="M660.13,114.35c.32.19.33.49,0,.68l-3.28,1.91a1.27,1.27,0,0,1-1.17,0l-9.16-5.29c-.32-.19-.33-.49,0-.67l3.29-1.92a1.31,1.31,0,0,1,1.16,0Z" transform="translate(-3.74 -3.84)"/><path class="cls-8" d="M648.6,114.29c.32.18.32.48,0,.67l-4.69,2.72a1.26,1.26,0,0,1-1.15,0l-3.32-1.92c-.33-.19-.33-.49,0-.68l4.69-2.72a1.25,1.25,0,0,1,1.16,0Z" transform="translate(-3.74 -3.84)"/><path class="cls-8" d="M654.44,117.66c.33.19.33.49,0,.67l-4.68,2.73a1.33,1.33,0,0,1-1.17,0l-3.31-1.91a.36.36,0,0,1,0-.68l4.68-2.72a1.27,1.27,0,0,1,1.17,0Z" transform="translate(-3.74 -3.84)"/><path class="cls-8" d="M666,117.73c.31.18.32.48,0,.67l-3.29,1.91a1.23,1.23,0,0,1-1.15,0l-3.32-1.91c-.33-.19-.33-.49,0-.68l3.29-1.91a1.27,1.27,0,0,1,1.17,0Z" transform="translate(-3.74 -3.84)"/><path class="cls-8" d="M660.29,121a.36.36,0,0,1,0,.68l-4.68,2.72a1.33,1.33,0,0,1-1.17,0l-3.31-1.91a.36.36,0,0,1,0-.68l4.68-2.72a1.27,1.27,0,0,1,1.17,0Z" transform="translate(-3.74 -3.84)"/><path class="cls-8" d="M683.19,114.49c.33.18.33.48,0,.67l-3.29,1.91a1.27,1.27,0,0,1-1.17,0l-3.31-1.91c-.32-.19-.32-.49,0-.67l3.29-1.91a1.25,1.25,0,0,1,1.16,0Z" transform="translate(-3.74 -3.84)"/><path class="cls-8" d="M677.5,117.79c.33.19.33.49,0,.68l-3.29,1.91a1.27,1.27,0,0,1-1.17,0l-3.31-1.91a.36.36,0,0,1,0-.68l3.29-1.91a1.27,1.27,0,0,1,1.17,0Z" transform="translate(-3.74 -3.84)"/><path class="cls-8" d="M671.82,121.1c.32.19.32.49,0,.67l-3.29,1.92a1.33,1.33,0,0,1-1.17,0l-3.31-1.92c-.32-.18-.32-.48,0-.67l3.29-1.91a1.27,1.27,0,0,1,1.17,0Z" transform="translate(-3.74 -3.84)"/><path class="cls-8" d="M666.13,124.4a.36.36,0,0,1,0,.68l-4.68,2.72a1.27,1.27,0,0,1-1.17,0L657,125.89c-.33-.19-.33-.49,0-.67l4.68-2.73a1.33,1.33,0,0,1,1.17,0Z" transform="translate(-3.74 -3.84)"/><path class="cls-8" d="M689,117.86a.35.35,0,0,1,0,.67l-3.29,1.91a1.28,1.28,0,0,1-1.16,0l-3.32-1.92c-.32-.18-.33-.48,0-.67l3.29-1.91a1.25,1.25,0,0,1,1.16,0Z" transform="translate(-3.74 -3.84)"/><path class="cls-8" d="M694.88,121.23c.32.19.33.49,0,.68l-3.28,1.91a1.27,1.27,0,0,1-1.17,0l-3.31-1.91c-.33-.19-.33-.49,0-.68l3.29-1.91a1.27,1.27,0,0,1,1.17,0Z" transform="translate(-3.74 -3.84)"/><path class="cls-8" d="M683.35,121.17c.32.18.32.48,0,.67l-3.29,1.91a1.28,1.28,0,0,1-1.16,0l-3.32-1.92c-.32-.19-.33-.49,0-.68l3.29-1.91a1.25,1.25,0,0,1,1.16,0Z" transform="translate(-3.74 -3.84)"/><path class="cls-8" d="M689.19,124.54c.32.19.33.49,0,.67l-3.28,1.92a1.33,1.33,0,0,1-1.17,0l-3.31-1.91c-.33-.19-.33-.49,0-.68l3.29-1.91a1.27,1.27,0,0,1,1.17,0Z" transform="translate(-3.74 -3.84)"/><path class="cls-8" d="M700.72,124.6a.36.36,0,0,1,0,.68l-3.29,1.91a1.25,1.25,0,0,1-1.16,0L693,125.28c-.33-.19-.33-.49,0-.68l3.29-1.91a1.27,1.27,0,0,1,1.17,0Z" transform="translate(-3.74 -3.84)"/><path class="cls-8" d="M695,127.91c.32.19.33.49,0,.68l-3.29,1.91a1.31,1.31,0,0,1-1.16,0l-3.31-1.91c-.33-.19-.33-.49,0-.68l3.29-1.91a1.27,1.27,0,0,1,1.17,0Z" transform="translate(-3.74 -3.84)"/><path class="cls-8" d="M677.66,124.47a.36.36,0,0,1,0,.68l-3.29,1.91a1.31,1.31,0,0,1-1.16,0l-3.32-1.91a.36.36,0,0,1,0-.68l3.29-1.91a1.25,1.25,0,0,1,1.16,0Z" transform="translate(-3.74 -3.84)"/><path class="cls-8" d="M683.5,127.85c.33.18.33.48,0,.67l-3.28,1.91a1.27,1.27,0,0,1-1.17,0l-3.31-1.91c-.33-.19-.33-.49,0-.67l3.28-1.92a1.33,1.33,0,0,1,1.17,0Z" transform="translate(-3.74 -3.84)"/><path class="cls-8" d="M689.34,131.22c.32.18.33.48,0,.67l-3.29,1.91a1.25,1.25,0,0,1-1.16,0l-3.31-1.91c-.33-.19-.33-.49,0-.67l3.29-1.92a1.33,1.33,0,0,1,1.17,0Z" transform="translate(-3.74 -3.84)"/><path class="cls-8" d="M706.56,128c.33.19.33.49,0,.68l-3.29,1.91a1.33,1.33,0,0,1-1.17,0l-3.32-1.92c-.31-.18-.31-.48,0-.67l3.29-1.91a1.28,1.28,0,0,1,1.16,0Z" transform="translate(-3.74 -3.84)"/><path class="cls-8" d="M700.88,131.29c.32.18.32.48,0,.67l-3.29,1.91a1.27,1.27,0,0,1-1.17,0L693.11,132c-.32-.19-.32-.49,0-.67l3.29-1.92a1.31,1.31,0,0,1,1.16,0Z" transform="translate(-3.74 -3.84)"/><path class="cls-8" d="M695.19,134.59a.36.36,0,0,1,0,.68l-3.29,1.91a1.27,1.27,0,0,1-1.17,0l-3.31-1.92c-.32-.18-.32-.48,0-.67l3.29-1.91a1.25,1.25,0,0,1,1.16,0Z" transform="translate(-3.74 -3.84)"/><path class="cls-8" d="M689.5,137.9c.32.19.32.49,0,.67l-4.68,2.72a1.27,1.27,0,0,1-1.17,0l-20.84-12c-.33-.19-.33-.49,0-.67l4.69-2.73a1.31,1.31,0,0,1,1.16,0Z" transform="translate(-3.74 -3.84)"/><path class="cls-8" d="M712.4,131.35c.33.19.33.49,0,.68l-3.29,1.91a1.33,1.33,0,0,1-1.17,0L704.64,132c-.32-.19-.33-.49,0-.68l3.29-1.91a1.25,1.25,0,0,1,1.16,0Z" transform="translate(-3.74 -3.84)"/><path class="cls-8" d="M706.71,134.66c.33.18.33.48,0,.67l-3.29,1.91a1.27,1.27,0,0,1-1.17,0L699,135.33c-.32-.19-.32-.49,0-.67l3.29-1.91a1.25,1.25,0,0,1,1.16,0Z" transform="translate(-3.74 -3.84)"/><path class="cls-8" d="M701,138c.33.19.33.49,0,.68l-3.29,1.91a1.27,1.27,0,0,1-1.17,0l-3.31-1.91a.36.36,0,0,1,0-.68l3.29-1.91a1.27,1.27,0,0,1,1.17,0Z" transform="translate(-3.74 -3.84)"/><path class="cls-8" d="M695.33,141.27c.33.19.33.49,0,.67l-4.68,2.73a1.33,1.33,0,0,1-1.17,0l-3.31-1.91c-.33-.19-.33-.49,0-.68l4.69-2.72a1.27,1.27,0,0,1,1.17,0Z" transform="translate(-3.74 -3.84)"/><path class="cls-8" d="M718.25,134.73c.32.18.33.48,0,.67L715,137.31a1.27,1.27,0,0,1-1.17,0l-3.32-1.91c-.32-.19-.32-.49,0-.67l3.29-1.92a1.31,1.31,0,0,1,1.16,0Z" transform="translate(-3.74 -3.84)"/><path class="cls-8" d="M712.56,138c.33.19.33.49,0,.68l-3.28,1.91a1.27,1.27,0,0,1-1.17,0l-3.32-1.92c-.32-.18-.32-.48,0-.67l3.28-1.91a1.27,1.27,0,0,1,1.17,0Z" transform="translate(-3.74 -3.84)"/><path class="cls-8" d="M706.87,141.34c.33.19.33.49,0,.67l-3.29,1.92a1.34,1.34,0,0,1-1.17,0L699.1,142c-.31-.18-.32-.48,0-.67l3.28-1.91a1.28,1.28,0,0,1,1.16,0Z" transform="translate(-3.74 -3.84)"/><path class="cls-8" d="M701.18,144.64c.33.19.33.49,0,.68L696.5,148a1.25,1.25,0,0,1-1.16,0L692,146.13a.36.36,0,0,1,0-.68l4.69-2.72a1.29,1.29,0,0,1,1.15,0Z" transform="translate(-3.74 -3.84)"/><path class="cls-8" d="M724.09,138.1c.32.18.32.48,0,.67l-3.29,1.91a1.25,1.25,0,0,1-1.16,0l-3.31-1.91c-.33-.19-.33-.49,0-.67l3.29-1.91a1.27,1.27,0,0,1,1.17,0Z" transform="translate(-3.74 -3.84)"/><path class="cls-8" d="M718.4,141.4c.32.19.33.49,0,.68L715.11,144a1.25,1.25,0,0,1-1.16,0l-3.31-1.91c-.33-.19-.33-.49,0-.68l3.29-1.91a1.27,1.27,0,0,1,1.17,0Z" transform="translate(-3.74 -3.84)"/><path class="cls-8" d="M712.71,144.71c.32.19.33.49,0,.67l-3.28,1.92a1.33,1.33,0,0,1-1.17,0L705,145.38c-.33-.18-.33-.48,0-.67l3.29-1.91a1.27,1.27,0,0,1,1.17,0Z" transform="translate(-3.74 -3.84)"/><path class="cls-8" d="M707,148c.33.18.33.48,0,.67l-4.68,2.72a1.27,1.27,0,0,1-1.17,0l-3.31-1.91c-.32-.19-.32-.49,0-.67l4.68-2.73a1.33,1.33,0,0,1,1.17,0Z" transform="translate(-3.74 -3.84)"/><path class="cls-8" d="M729.94,141.47a.36.36,0,0,1,0,.68l-3.29,1.91a1.27,1.27,0,0,1-1.17,0l-3.31-1.92c-.32-.18-.32-.48,0-.67l3.29-1.91a1.25,1.25,0,0,1,1.16,0Z" transform="translate(-3.74 -3.84)"/><path class="cls-8" d="M724.25,144.78c.32.19.32.49,0,.67L721,147.37a1.33,1.33,0,0,1-1.17,0l-3.31-1.92c-.32-.18-.32-.48,0-.67l3.29-1.91a1.28,1.28,0,0,1,1.16,0Z" transform="translate(-3.74 -3.84)"/><path class="cls-8" d="M718.56,148.08a.36.36,0,0,1,0,.68l-3.29,1.91a1.27,1.27,0,0,1-1.17,0l-3.31-1.91a.36.36,0,0,1,0-.68l3.29-1.91a1.31,1.31,0,0,1,1.16,0Z" transform="translate(-3.74 -3.84)"/><path class="cls-8" d="M710.34,154.1a.35.35,0,0,1,0,.67l-1.09.64a1.33,1.33,0,0,1-1.17,0l-3.76-2.17a.36.36,0,0,1,0-.68l1.09-.63a1.27,1.27,0,0,1,1.17,0Z" transform="translate(-3.74 -3.84)"/><path class="cls-8" d="M737.11,145.62c.33.18.33.48,0,.67l-3.29,1.91a1.27,1.27,0,0,1-1.17,0L728,145.52c-.32-.19-.33-.49,0-.68l3.29-1.91a1.25,1.25,0,0,1,1.16,0Z" transform="translate(-3.74 -3.84)"/><path class="cls-8" d="M730,148.07c.32.19.32.49,0,.67l-3.3,1.92a1.31,1.31,0,0,1-1.16,0l-3.32-1.91c-.31-.19-.33-.49,0-.68l3.3-1.92a1.29,1.29,0,0,1,1.15,0Z" transform="translate(-3.74 -3.84)"/><path class="cls-8" d="M744.33,149.78a.36.36,0,0,1,0,.68L741,152.37a1.27,1.27,0,0,1-1.17,0l-4.68-2.71c-.32-.18-.32-.48,0-.67l3.29-1.91a1.25,1.25,0,0,1,1.16,0Z" transform="translate(-3.74 -3.84)"/><path class="cls-8" d="M732.58,149.58l6.06,3.51c.32.19.32.49,0,.67l-3.29,1.91a1.27,1.27,0,0,1-1.17,0l-6-3.5a.36.36,0,0,1,0-.68l3.3-1.91a1.23,1.23,0,0,1,1.15,0" transform="translate(-3.74 -3.84)"/><path class="cls-8" d="M733,156.39a.36.36,0,0,1,0,.68L729.66,159a1.25,1.25,0,0,1-1.16,0l-11.87-6.85c-.32-.19-.32-.49,0-.67l3.29-1.91a1.27,1.27,0,0,1,1.17,0Z" transform="translate(-3.74 -3.84)"/><path class="cls-8" d="M720.37,155.72c.32.19.32.49,0,.67l-1.08.63a1.26,1.26,0,0,1-1.15,0l-3.77-2.18a.35.35,0,0,1,0-.67l1.08-.63a1.25,1.25,0,0,1,1.16,0Z" transform="translate(-3.74 -3.84)"/><path class="cls-8" d="M716.78,157.81a.36.36,0,0,1,0,.67l-1.09.63a1.28,1.28,0,0,1-1.16,0L710.76,157c-.33-.19-.33-.49,0-.68l1.09-.63a1.27,1.27,0,0,1,1.17,0Z" transform="translate(-3.74 -3.84)"/><path class="cls-8" d="M723.2,161.52c.33.19.32.49,0,.68l-1.09.63a1.25,1.25,0,0,1-1.16,0l-3.77-2.17a.36.36,0,0,1,0-.68l1.09-.63a1.25,1.25,0,0,1,1.16,0Z" transform="translate(-3.74 -3.84)"/></g></g><g id="Layer_12" data-name="Layer 12"><g class="cls-9"><g class="cls-10"><path class="cls-11" d="M74.06,179c0,6.25,7.84,11.32,17.51,11.32s17.51-5.07,17.51-11.32-7.84-11.32-17.51-11.32S74.06,172.74,74.06,179" transform="translate(-3.74 -3.84)"/><ellipse class="cls-12" cx="87.83" cy="175.15" rx="17.51" ry="11.32"/></g></g><ellipse class="cls-12" cx="87.83" cy="175.15" rx="17.51" ry="11.32"/><path class="cls-13" d="M95.28,163.93a4.8,4.8,0,0,1-.5-.74.8.8,0,0,0-.28-.32c-.57-.31-1.08.61-1,.82v.13a1.25,1.25,0,0,0,.11.66c.13.3.29.57.41.87a1.56,1.56,0,0,0,.17.62c0,.09.14.22.27.18s.09-.08.09-.16v0c0,.08,0,.37.22.35a.28.28,0,0,0,.11-.05.21.21,0,0,0,.13.2c.13,0,.2-.14.24-.3,0,0,0,0,.09,0s.12-.2.14-.32a1.05,1.05,0,0,0,.09-.46c0-.15-.08-.3-.12-.45s0-.19,0-.3a.82.82,0,0,0-.25-.74" transform="translate(-3.74 -3.84)"/><path class="cls-14" d="M92.82,178.07a2.15,2.15,0,0,0-.58,1.69,2,2,0,0,0,.85.8.46.46,0,0,1,.39.24c.14.18.1.24.32.48a2.3,2.3,0,0,0,2.37.45,2.28,2.28,0,0,0,.08-.53,4,4,0,0,0-.87-1,5.07,5.07,0,0,1-1-1.4c0-.2-.34-.35-.34-.35a1,1,0,0,0-1.22-.41" transform="translate(-3.74 -3.84)"/><path class="cls-14" d="M85,176.26a2.11,2.11,0,0,0-.81,1.59,2,2,0,0,0,.73.91.48.48,0,0,1,.36.29,2.51,2.51,0,0,0,.26.53,2.3,2.3,0,0,0,2.28.75,2.31,2.31,0,0,0,.15-.51,4.15,4.15,0,0,0-.73-1.07,5.3,5.3,0,0,1-.81-1.53c0-.2-.28-.39-.28-.39a1,1,0,0,0-1.15-.57" transform="translate(-3.74 -3.84)"/><path class="cls-15" d="M90,165.68c.44.94.61,2,1,2.93.44,1.15.56,2.6,1.39,3.57a1.55,1.55,0,0,0,1.57.47c.37-.12,1-.42,1-.7a3.25,3.25,0,0,0-.11-1c-.14-.46-.83-3.21-1-4.11-.16-.73-.29-1.17-.5-2,0,0,0-.93-1.68-.25s-1.75,1-1.68,1.11" transform="translate(-3.74 -3.84)"/><path class="cls-15" d="M92,172.34a14.43,14.43,0,0,0,.14-1.92c0-.54,2.85.2,2.84,1.51,0,0-.81,5.06-.53,6.69l0,.27a.41.41,0,0,1-.13.41,1.88,1.88,0,0,1-.66.29,1.64,1.64,0,0,1-1.5-.39c-.81-1-.66-4.67-.2-6.86" transform="translate(-3.74 -3.84)"/><path class="cls-15" d="M87.82,165.87c0,1-.38,2.09-.43,3.13-.07,1.23-.56,2.6-.2,3.82a1.57,1.57,0,0,0,1.24,1.08,2.15,2.15,0,0,0,1.24-.21.88.88,0,0,0,.27-.38c.37-1.14.65-4,.81-4.8a8.67,8.67,0,0,1,.63-2.09s.18-1-1.63-1.15c-1.5-.15-1.94.45-1.93.6" transform="translate(-3.74 -3.84)"/><path class="cls-15" d="M87.58,171.1c.44-.49,3,1.26,2.28,2.37,0,0-2.77,2.75-3.35,4.3l-.11.25a.4.4,0,0,1-.31.29,1.76,1.76,0,0,1-.72-.09,1.67,1.67,0,0,1-1.1-1.09c-.2-1.25,1.81-4.37,3.31-6" transform="translate(-3.74 -3.84)"/><path class="cls-13" d="M92,153.84c.58,2,.47,7,1.18,6.78.27-.08.8.42.84-1.07,0-1.75.72-5.41.37-6.66-.58-2-1.18-2.24-1.89-2s-1.07,1-.5,3" transform="translate(-3.74 -3.84)"/><path d="M93,150.79s1.12.18,1.44,2.39a4.41,4.41,0,0,1,.09,1.68c0,.07,0,.41-1,.64Z" transform="translate(-3.74 -3.84)"/><path class="cls-13" d="M91.86,160.31c.64,1.8,2,5.48,2.59,5.25.23-.09,1-.15.69-.68-.57-1-.51-2.45-.7-4.32-.07-.68-.53-1.23-.45-2.09,0-.44-1.26.67-1.88.9s-.7-.34-.25.94" transform="translate(-3.74 -3.84)"/><path class="cls-16" d="M89.85,151.74a9.14,9.14,0,0,0-2.73,1.81,4.7,4.7,0,0,0-.64,2.41c0,.66.93,4.67,1.07,5.57a14,14,0,0,1,0,2.48c0,.56-.18,2.23-.12,2.51.16.89,2.51.72,3,.69,1.45-.09,3.28-1.19,3.13-1.9a40.34,40.34,0,0,1-.09-8.68c.19-.73,1.09-4.58,0-5.57a.75.75,0,0,0-.69-.27,9.36,9.36,0,0,0-2.9,1" transform="translate(-3.74 -3.84)"/><path class="cls-13" d="M89.67,149.59a10.19,10.19,0,0,1,0,1.58,5,5,0,0,0-.13.82c0,.53.58.75.87.91s1.37-.23,1.3-.61a6.09,6.09,0,0,0-.09-1c-.11-.33-.43-.51-.43-.86Z" transform="translate(-3.74 -3.84)"/><path class="cls-17" d="M93,147.7a3.78,3.78,0,0,0,.08,1,.65.65,0,0,1-.07.48,1.27,1.27,0,0,0-.13.85,2.1,2.1,0,0,1-.25,1.06c-.11.27-.19.58-.46.72-.67.34-1.31-.19-1.91-.49s-.38-1.17-.51-1.71A2.06,2.06,0,0,1,91,147.05a2.72,2.72,0,0,1,1.69.12c.15.08.43.48.26.63Z" transform="translate(-3.74 -3.84)"/><path class="cls-18" d="M89.72,145.86c.67-.46,1.85-.13,2.78.45a1.36,1.36,0,0,1,.49,1c.08.2-.5.53-.65.58a2,2,0,0,1-.92.09,3.68,3.68,0,0,1-.58-.08,3.25,3.25,0,0,0-.42-.11c-.29,0-.35.39-.43.61a3.27,3.27,0,0,0-.2.55c0,.09,0,1.18-.15,1.19a2.48,2.48,0,0,1-.89-1.63,2.85,2.85,0,0,1,1-2.64" transform="translate(-3.74 -3.84)"/><path class="cls-17" d="M89.23,149.42c.09.36.29.61.45.57a.59.59,0,0,0,.27-.7c-.09-.36-.45-.63-.6-.59s-.21.36-.12.72" transform="translate(-3.74 -3.84)"/><path class="cls-17" d="M86.09,165.29c-.07-.22.79-.85,1-.57s1,1.68,1.06,1.75.11.19.18.31a1.17,1.17,0,0,1,0,.59,4.69,4.69,0,0,1,0,.53,2.58,2.58,0,0,0-.14.39,3.26,3.26,0,0,0,0,.33,1.39,1.39,0,0,1-.06.19c-.06,0-.16,0-.18-.1s0,0,0,.1,0,.15-.1.12a.27.27,0,0,1-.18-.26s0,.07,0,.1a.3.3,0,0,1-.27-.29c0-.1,0-.44,0-.55a1.56,1.56,0,0,0-.21-.54c0,.09,0,.19,0,.3,0,.27.19.37,0,.56-.47-.35-.34-.89-.5-1.42-.35-.3-.36-1.14-.49-1.54" transform="translate(-3.74 -3.84)"/><path class="cls-17" d="M88.26,157.38s-.16.83-.43,1.71a7.25,7.25,0,0,0-.57,2.12c.11,2-.09,4.16.1,4.55.39.77-.52.12-.72.05-.76-.25-1.14-2.09-1.26-4.34-.11-2.05.49-3.31.56-4.67Z" transform="translate(-3.74 -3.84)"/><path class="cls-19" d="M88.21,153.56s.58.15.55,1.15a19.94,19.94,0,0,1-.27,2.34s-.16.83-2,.44a.87.87,0,0,1-.76-1c.15-.56.76-3.83,2.47-2.94" transform="translate(-3.74 -3.84)"/></g><g id="Layer_9" data-name="Layer 9"><polygon class="cls-20" points="493.46 98.77 488.97 101.37 483.57 98.25 488.06 95.65 493.46 98.77"/><polygon class="cls-20" points="493.46 139.58 488.97 142.18 483.57 139.06 488.06 136.47 493.46 139.58"/><polygon class="cls-21" points="493.46 120.98 488.97 123.57 488.97 101.37 493.46 98.77 493.46 120.98"/><polygon class="cls-21" points="493.46 161.79 488.97 164.38 488.97 142.18 493.46 139.59 493.46 161.79"/><path class="cls-22" d="M481.71,163.47V122.66c0-6.13,5.69-14.39,11-17.45l-5.4-3.12c-5.31,3.06-11,11.32-11,17.45v40.81a6.14,6.14,0,0,0,2.08,5l5.68,3.31a6,6,0,0,1-2.36-5.2" transform="translate(-3.74 -3.84)"/><path class="cls-22" d="M492.71,146h0l-5.4-3.12-.1.06v7.94a21.57,21.57,0,0,1,5.5-4.88" transform="translate(-3.74 -3.84)"/><path class="cls-23" d="M492.71,146a21.57,21.57,0,0,0-5.5,4.88v-22a10.11,10.11,0,0,0,5.5-1.48v-22.2c-5.31,3.06-11,11.32-11,17.45v40.81a6,6,0,0,0,2.36,5.2,5.35,5.35,0,0,0,.77.45l.12.06c2.12.94,5,.64,7.75-1Z" transform="translate(-3.74 -3.84)"/></g><g id="Layer_10" data-name="Layer 10"><g class="cls-24"><path class="cls-6" d="M577.14,156.09l-39-22.54a4.3,4.3,0,0,0-3.89,0l-18.42,10.64-1.73-.34v2a1.36,1.36,0,0,0,.81,1.12l41.65,24a4.28,4.28,0,0,0,3.88,0l19.35-11.17a1.35,1.35,0,0,0,.8-1.09v-2Z" transform="translate(-3.74 -3.84)"/><path class="cls-5" d="M514.87,142.81l19.34-11.17a4.3,4.3,0,0,1,3.89,0l41.65,24.05a1.18,1.18,0,0,1,0,2.24L560.4,169.1a4.28,4.28,0,0,1-3.88,0l-41.65-24a1.18,1.18,0,0,1,0-2.24" transform="translate(-3.74 -3.84)"/><path class="cls-8" d="M576.49,154.71l-39-22.51a2.5,2.5,0,0,0-2.23,0l-19.35,11.17c-.36.21-.51.5-.44.77a.86.86,0,0,0,.44.52l39,22.51a2.5,2.5,0,0,0,2.23,0L576.49,156a1,1,0,0,0,.4-.4c.15-.31,0-.65-.4-.89" transform="translate(-3.74 -3.84)"/><path class="cls-7" d="M576.44,155.07l-39-22.5a2.47,2.47,0,0,0-2.23,0l-19.34,11.17a.9.9,0,0,0-.4.4.86.86,0,0,0,.44.52l39,22.51a2.5,2.5,0,0,0,2.23,0L576.49,156a1,1,0,0,0,.4-.4.86.86,0,0,0-.45-.53" transform="translate(-3.74 -3.84)"/><path class="cls-8" d="M565.69,163.27l4.69-2.71a2,2,0,0,1,1.79,0,.54.54,0,0,1,0,1l-4.69,2.71a2,2,0,0,1-1.79,0,.54.54,0,0,1,0-1" transform="translate(-3.74 -3.84)"/></g><g class="cls-25"><path class="cls-26" d="M546.83,113.08l-.39.13a5.2,5.2,0,0,1,1.18,2.6H548a5.91,5.91,0,0,0-1.21-2.73" transform="translate(-3.74 -3.84)"/><path class="cls-27" d="M550.44,124.17c2.18,1.79,2.44,6.8,3.33,11.34l7,.36c1.16.34.87,2.69.55,3.45-3.09,1.79-7,1.19-10.39,1.19-2.75-1-2.73-10.35-3.82-10.9Z" transform="translate(-3.74 -3.84)"/><path class="cls-17" d="M561,138.66a1.67,1.67,0,0,1,.93-.38l1.83-.32a1.74,1.74,0,0,0,1.29-.7l.14-.19a1.09,1.09,0,0,0,.76-.65l.26-.66.53-.92.81-1.73c.18-.47-.16-.49-.47-.26L565.87,134l-.71.5-1.56-.1v-.5l.88-.71.53-.32c.46-.31.25-.65-.21-.54l-1.2.41L562,134l-1,2-.6.15c-.59.42-.23,2.77.63,2.51" transform="translate(-3.74 -3.84)"/><path d="M537.6,181.09c-.41.54-.41,1.8-.31,3.22.38,1.43,1.74,1.32,2.9,1.5,2.24.35,3.36,2,6.34,2,1.77,0,3-.38,3.32-1.5a1.93,1.93,0,0,0-.88-1.58s-4.05-1.82-4.16-1.89a22.5,22.5,0,0,1-2-1.54l-.7-3.25h-4.37Z" transform="translate(-3.74 -3.84)"/><path d="M535.46,187.88a4.45,4.45,0,0,0-.31,2.62,14.67,14.67,0,0,1,.59,1.43c.25.87.21,2.31,1.5,3.18,1.53,1.21,4.5,1.27,5.43,0a6.8,6.8,0,0,0-1.19-3.14l-1.51-2.8.1-2.62-4.33-1Z" transform="translate(-3.74 -3.84)"/><path class="cls-28" d="M542.7,147.65v17.54c-1.41,5.09-4.13,9.86-4.56,14.94,0,2.14,4.33,2.61,5.43,1.24.43-3.94,3.76-9.28,5.78-15.49,1.33-6.27,2.44-12.77,2.07-18Z" transform="translate(-3.74 -3.84)"/><path class="cls-16" d="M551.29,148.33c.13,1.78-2.32,6.48-5.11,8.6-.13,3.81-.62,10.42-1.26,14.72-2,6.21-3.86,12.17-4.29,16.1-.73.92-2.91,1.27-4.27.77l-.28-.12-.09-.05a1.4,1.4,0,0,1-.8-1.26A58.23,58.23,0,0,1,537.55,172l-.42-22.58v-.63Z" transform="translate(-3.74 -3.84)"/><g class="cls-29"><g class="cls-30"><path class="cls-31" d="M540.14,172.44c-2.67,3.23-3.23,9.65-3.78,16.08l-.28-.12-.09-.05a1.4,1.4,0,0,1-.8-1.26A58.65,58.65,0,0,1,537.55,172l-.42-22.58,2.65,1.81c-1.66,5.64-.34,13.32.36,21.26" transform="translate(-3.74 -3.84)"/></g></g><path class="cls-27" d="M552.34,146.33a5,5,0,0,1-.33,1,4.53,4.53,0,0,1-1.52,1.85,14.29,14.29,0,0,1-9.53,2.27c-.79-.2-1.59-.4-2.34-.67a3.36,3.36,0,0,1-.66-.32,4.08,4.08,0,0,1-2-3.82v-.09c0-.33,0-.66.07-1s0-.68,0-1l-.43-5.53-.76-10a38.3,38.3,0,0,1,8-6.56l6.06.29c2.34,1.66,2.88,3.74,3.23,6.55,0,0-.44,11.16-.05,13.89.07.43.14.9.22,1.39a5,5,0,0,1,0,1.73" transform="translate(-3.74 -3.84)"/><path class="cls-32" d="M545.7,127.32l-.2,1.86,1.13,1.8c.33,2.7,1.25,8.43,1.15,10.51l1.26,2.44.87-3c-.52-3.3-1.83-8.5-2.41-10.66V128l-1.26-.85Z" transform="translate(-3.74 -3.84)"/><path class="cls-33" d="M543.61,121.79l-2.75,2c-1.48,4.07,1.83,5.86,3.95,8.23l1.38-4.15,3.19,1.32-1-5.88Z" transform="translate(-3.74 -3.84)"/><path class="cls-27" d="M534.89,129a61.12,61.12,0,0,0-3.83,9.56,4.23,4.23,0,0,0,2.5,5.21,40.42,40.42,0,0,0,10.28,2.32c1.09-.28,1.95-3.64,1.17-4.63l-7.31-2,1.83-3.54c2.45-4.07-2-9.55-4.64-7" transform="translate(-3.74 -3.84)"/><path class="cls-17" d="M544.32,144.92c-.82-.16-.32-2.86.5-2.78l.92.29a24,24,0,0,1,2.73-.74l2.22.59,1.15.6.52.16c.67.1.6.67,0,.82l-1-.06-1.34-.51-.59.28,2.25,1.72,2.12-.14c.75,0,.75.56.24.71l-.87.26-.49.49-.51.34-.67.29a9.53,9.53,0,0,1-2.87-.46l-2.31-1.35Z" transform="translate(-3.74 -3.84)"/><path class="cls-26" d="M549.89,124.35l-.23-.27a2.25,2.25,0,0,0,.58-1.51c.07-1-1.27-3.26-1.28-3.28l.3-.19c.06.1,1.42,2.38,1.33,3.49a2.52,2.52,0,0,1-.7,1.76" transform="translate(-3.74 -3.84)"/><path class="cls-17" d="M547.23,127.13a1.23,1.23,0,0,1-.69.66c-2.81.83-5.12-2.38-4.8-4.28s.42-3,.42-3l5.44,1.34s.06.51.09,1.23a9.75,9.75,0,0,1-.46,4" transform="translate(-3.74 -3.84)"/><path class="cls-13" d="M547.23,127.13a1.54,1.54,0,0,1-.9.3c-2.57,0-3.07-4.85-3.07-4.85l4.43.5a9.75,9.75,0,0,1-.46,4" transform="translate(-3.74 -3.84)"/><path class="cls-17" d="M542.58,121.45a27.84,27.84,0,0,0,2.13,3c.78.9,3.83,1.7,4.83-.28.39-.77-.07-5.77-.26-6.65-.3-1.42-1-4.45-5.17-3.88a4,4,0,0,0-3.49,3.48c-.21,1.4.91,3.89.91,3.89Z" transform="translate(-3.74 -3.84)"/><path d="M541.87,122.58l.26-1.3h1.13a2,2,0,0,1,1.45-2c2.3-.58,4.9-1.33,4.81-2.18.31-2.62-3.29-4.11-5.79-3.67-3,.53-3.7,2.73-3.74,4.55s1.88,4.62,1.88,4.62" transform="translate(-3.74 -3.84)"/><path class="cls-34" d="M541.92,119.76a.68.68,0,0,0-.83.12.7.7,0,0,0-.1.49,2,2,0,0,0,.17.48,7.44,7.44,0,0,0,.44.78,1,1,0,0,0,.52.47c.24.06.53.22.66,0a2,2,0,0,0,.06-1,1.93,1.93,0,0,0-.92-1.33" transform="translate(-3.74 -3.84)"/><path class="cls-26" d="M546.28,112.66a2.77,2.77,0,0,0-2.77.52c-2.12,1.36-2.87,3.67-2.17,6.69h.42c-.67-2.9,0-5,2-6.34,1-.63,1.77-.8,2.35-.51a1.45,1.45,0,0,1,.29.19l.39-.13a1.87,1.87,0,0,0-.55-.42" transform="translate(-3.74 -3.84)"/><path class="cls-35" d="M540.94,119.93l.39-.23a.69.69,0,0,1,.67.07,2.1,2.1,0,0,1,1,1.66.67.67,0,0,1-.29.62l-.39.22a.65.65,0,0,0,.28-.62,2.12,2.12,0,0,0-.95-1.66.66.66,0,0,0-.67-.06" transform="translate(-3.74 -3.84)"/><path class="cls-8" d="M540.65,120.55c0-.61.43-.86,1-.56a2.12,2.12,0,0,1,.95,1.66c0,.61-.42.86-.95.56a2.13,2.13,0,0,1-1-1.66" transform="translate(-3.74 -3.84)"/><path d="M540.75,120.85a.42.42,0,0,1,.68-.4,1.36,1.36,0,0,1,.65,1.12c0,.42-.31.6-.68.4a1.36,1.36,0,0,1-.65-1.12" transform="translate(-3.74 -3.84)"/><path d="M550.1,124.11a.4.4,0,0,0-.19-.4,3.2,3.2,0,0,0-2,1.17c0,.52.19.64.44.7.82-.09,1.78-1,1.78-1.47" transform="translate(-3.74 -3.84)"/></g></g><g id="Layer_11" data-name="Layer 11"><polygon class="cls-36" points="34.55 69.89 34.54 71.72 26.64 76.31 26.64 74.48 34.55 69.89"/><polygon class="cls-37" points="26.64 74.48 26.63 76.31 18.68 71.72 18.69 69.89 26.64 74.48"/><polygon class="cls-38" points="34.55 69.89 26.64 74.48 18.69 69.89 26.59 65.29 34.55 69.89"/><polygon class="cls-39" points="33.26 69.89 26.64 73.73 19.98 69.89 26.6 66.05 33.26 69.89"/><polygon class="cls-27" points="26.59 67.54 31.96 70.64 33.26 69.89 26.59 66.05 19.98 69.89 21.27 70.64 26.59 67.54"/><path class="cls-40" d="M37.56,63.13a3.09,3.09,0,0,1,.17.54c.1.19.51.6.46.81a1.45,1.45,0,0,0,.44,1.58,1.87,1.87,0,0,0,.16,1.75c0,.45-.27,1,0,1.39a2.8,2.8,0,0,1-.46,1.36,1.46,1.46,0,0,0-.26.83,2.05,2.05,0,0,1-.49.53c-.2.3-.34.56-.56.84a2.27,2.27,0,0,1-.46.64,3.53,3.53,0,0,0-.48.36c-.09.12-.21.39-.34.4-.43.19-.9.4-1.31.63a1.65,1.65,0,0,0-.37.33,1.82,1.82,0,0,0-1.08.46,1.19,1.19,0,0,0-.33.18,2,2,0,0,0-1.16.27c-.26.08-.37-.07-.61-.18a2.31,2.31,0,0,0-1.77,0,2.43,2.43,0,0,0-.61,0,1.29,1.29,0,0,0-.88-.25,1.64,1.64,0,0,0-1.6-.76,4.34,4.34,0,0,0-1.13-.86,1.55,1.55,0,0,0-1.09-1.48,1.41,1.41,0,0,0-1-1.31,1.6,1.6,0,0,1-.24-.66,1.73,1.73,0,0,0-.23-1A2.5,2.5,0,0,0,22,67.6a3.53,3.53,0,0,1,.23-.72,4.65,4.65,0,0,1,0-.68,2.1,2.1,0,0,0,.21-1.3,1.48,1.48,0,0,1,.32-.39c.35-.5.61-.75.54-1.38.17-.25.45-.45.53-.74a6.13,6.13,0,0,1,.7-.65c.23-.23.55-.35.77-.61a1.37,1.37,0,0,0,1-.85,1.48,1.48,0,0,1,.25-.14,1.88,1.88,0,0,0,1.66-.48c.3-.15.69,0,1.05,0a4.23,4.23,0,0,0,1.29-.37,2.8,2.8,0,0,0,1.53.48A1.82,1.82,0,0,1,33,60c.54.17.76-.18,1.08.18.35.65,1,.65,1.53,1,.23.72,1,1.13,1.53,1.59.15.1.23.25.41.35" transform="translate(-3.74 -3.84)"/><path class="cls-40" d="M36.48,62.9a1.41,1.41,0,0,1,.15.45c.08.16.43.5.39.68a1.2,1.2,0,0,0,.37,1.31,1.56,1.56,0,0,0,.14,1.45c0,.37-.23.78,0,1.15a2.28,2.28,0,0,1-.39,1.12,1.27,1.27,0,0,0-.23.7c-.1.21-.24.28-.41.44a6.41,6.41,0,0,1-.48.68,1.8,1.8,0,0,1-.38.55,2.55,2.55,0,0,0-.41.3c-.08.08-.18.32-.3.33-.36.16-.76.32-1.11.52a2,2,0,0,0-.31.27,1.56,1.56,0,0,0-.92.39.74.74,0,0,0-.28.14,1.82,1.82,0,0,0-1,.22c-.23.07-.33-.06-.54-.13a1.9,1.9,0,0,0-1.5,0,2.11,2.11,0,0,0-.51,0,1.14,1.14,0,0,0-.75-.21,1.42,1.42,0,0,0-1.36-.63,3.57,3.57,0,0,0-1-.71,1.3,1.3,0,0,0-.93-1.23,1.15,1.15,0,0,0-.86-1.08,1.29,1.29,0,0,1-.19-.55,1.43,1.43,0,0,0-.21-.88,2,2,0,0,0-.24-1.5,2.29,2.29,0,0,1,.2-.59,3.49,3.49,0,0,1,0-.58,1.6,1.6,0,0,0,.18-1.07,1.18,1.18,0,0,1,.27-.32c.3-.41.52-.63.46-1.16.14-.2.38-.36.45-.6a6,6,0,0,1,.6-.54c.19-.19.46-.29.65-.51a1.19,1.19,0,0,0,.86-.71l.22-.11a1.66,1.66,0,0,0,1.41-.4c.25-.12.59,0,.89,0a3.82,3.82,0,0,0,1.1-.3,2.51,2.51,0,0,0,1.31.39,1.38,1.38,0,0,1,.75.14c.46.13.66-.16.92.15.3.53.86.53,1.3.85.19.61.83.94,1.31,1.33.12.08.19.22.34.29" transform="translate(-3.74 -3.84)"/><path class="cls-40" d="M35.47,63a.85.85,0,0,1,.11.35c.08.13.36.41.34.54a.89.89,0,0,0,.31,1,1.19,1.19,0,0,0,.11,1.17c0,.3-.19.63,0,.92a1.86,1.86,0,0,1-.33.91,1,1,0,0,0-.19.55c-.08.17-.2.22-.34.35a5.52,5.52,0,0,1-.4.55,1.38,1.38,0,0,1-.32.43,3,3,0,0,0-.34.25c-.06.06-.15.25-.24.26-.31.12-.64.26-.94.41a1.78,1.78,0,0,0-.26.22,1.42,1.42,0,0,0-.76.31.74.74,0,0,0-.24.11,1.56,1.56,0,0,0-.81.19c-.19,0-.27-.05-.44-.12a1.74,1.74,0,0,0-1.25,0,1.6,1.6,0,0,0-.43,0,1,1,0,0,0-.63-.15,1.18,1.18,0,0,0-1.13-.51,3,3,0,0,0-.81-.57,1.06,1.06,0,0,0-.77-1,.92.92,0,0,0-.72-.86,1.29,1.29,0,0,1-.17-.43,1,1,0,0,0-.17-.71A1.51,1.51,0,0,0,24.43,66a2.08,2.08,0,0,1,.16-.48c0-.1,0-.42,0-.45a1.33,1.33,0,0,0,.16-.87A.86.86,0,0,1,25,63.9c.25-.34.43-.51.39-.92.11-.18.31-.3.37-.49a5,5,0,0,1,.49-.44c.16-.15.4-.23.54-.4a1,1,0,0,0,.73-.57l.18-.09a1.45,1.45,0,0,0,1.18-.31c.21-.1.49,0,.73,0a3.28,3.28,0,0,0,.93-.25,2,2,0,0,0,1.08.33,1.31,1.31,0,0,1,.63.1c.39.11.55-.13.78.11.24.44.71.44,1.07.69.16.49.7.76,1.09,1.06.1.06.16.17.29.24" transform="translate(-3.74 -3.84)"/><path class="cls-40" d="M34.78,62.9a1.24,1.24,0,0,1,.1.29c.06.1.32.31.29.42a.68.68,0,0,0,.26.82.86.86,0,0,0,.1.91c0,.24-.16.51,0,.73a1.37,1.37,0,0,1-.28.72.61.61,0,0,0-.16.42c-.08.14-.18.18-.3.28a5.12,5.12,0,0,1-.34.44,1.54,1.54,0,0,1-.28.34,1.21,1.21,0,0,0-.29.19c-.06.06-.14.2-.21.21-.27.1-.56.2-.82.31-.07.07-.15.11-.22.18a1.24,1.24,0,0,0-.65.25.76.76,0,0,0-.21.08,1.56,1.56,0,0,0-.71.15c-.16,0-.23,0-.37-.09a1.57,1.57,0,0,0-1.09,0,1.14,1.14,0,0,0-.37,0,1,1,0,0,0-.54-.12,1.07,1.07,0,0,0-1-.4,2.46,2.46,0,0,0-.69-.44.82.82,0,0,0-.66-.78.77.77,0,0,0-.63-.68,1,1,0,0,1-.14-.35.83.83,0,0,0-.14-.55,1.08,1.08,0,0,0-.18-.93,1.12,1.12,0,0,1,.15-.38c0-.08,0-.34,0-.36a1,1,0,0,0,.13-.69.71.71,0,0,1,.19-.2c.21-.25.38-.4.34-.72.09-.13.27-.23.32-.38a4.58,4.58,0,0,1,.42-.35,5.46,5.46,0,0,0,.47-.31.83.83,0,0,0,.63-.46l.15,0a1.42,1.42,0,0,0,1-.25c.18-.09.42,0,.64,0a3.19,3.19,0,0,0,.8-.18,1.85,1.85,0,0,0,.93.25,1.23,1.23,0,0,1,.55.08c.34.09.47-.1.66.1s.63.33.94.53c.14.38.6.6.94.84.09,0,.14.14.25.18" transform="translate(-3.74 -3.84)"/><path class="cls-41" d="M34,63c.05.06.05.12.09.19s.26.22.23.3a.42.42,0,0,0,.22.56.55.55,0,0,0,.08.65c0,.16-.13.33,0,.49a.76.76,0,0,1-.24.49.61.61,0,0,0-.13.3c-.06.1-.14.12-.24.19a2,2,0,0,1-.28.3,1.09,1.09,0,0,1-.23.25,1.79,1.79,0,0,0-.24.12c-.05,0-.1.13-.16.14l-.67.23-.18.11a1.13,1.13,0,0,0-.54.19.34.34,0,0,0-.17,0,1.34,1.34,0,0,0-.57.1c-.14,0-.19,0-.31-.07a1.72,1.72,0,0,0-.9,0,1.37,1.37,0,0,0-.29,0,.89.89,0,0,0-.44-.09,1,1,0,0,0-.8-.27,1.87,1.87,0,0,0-.57-.32.62.62,0,0,0-.54-.53.56.56,0,0,0-.51-.47c0-.08-.12-.15-.12-.24a.53.53,0,0,0-.11-.38.71.71,0,0,0-.15-.65c0-.08.08-.18.12-.26a.88.88,0,0,1,0-.24.65.65,0,0,0,.11-.48s.11-.1.15-.14.31-.27.28-.5.22-.16.27-.26a2.93,2.93,0,0,1,.34-.24c.11-.09.27-.12.38-.22a.65.65,0,0,0,.51-.31l.13,0a1.21,1.21,0,0,0,.83-.18,1.9,1.9,0,0,1,.53,0,3.55,3.55,0,0,0,.65-.12,1.84,1.84,0,0,0,.76.16,1.12,1.12,0,0,1,.45.06c.27.06.38-.07.53.07s.52.23.78.37.48.41.76.57A1.13,1.13,0,0,0,34,63" transform="translate(-3.74 -3.84)"/><polygon class="cls-36" points="26.5 74.29 26.5 76.12 18.59 80.71 18.6 78.88 26.5 74.29"/><polygon class="cls-37" points="18.6 78.88 18.59 80.71 10.64 76.12 10.65 74.29 18.6 78.88"/><polygon class="cls-38" points="26.5 74.29 18.6 78.88 10.65 74.29 18.55 69.69 26.5 74.29"/><polygon class="cls-39" points="25.21 74.29 18.59 78.14 11.94 74.29 18.56 70.45 25.21 74.29"/><polygon class="cls-27" points="18.55 71.94 23.92 75.04 25.21 74.29 18.55 70.45 11.94 74.29 13.23 75.04 18.55 71.94"/><path class="cls-40" d="M29.52,67.53a3.08,3.08,0,0,1,.16.54c.11.19.51.6.47.81a1.45,1.45,0,0,0,.43,1.58,1.87,1.87,0,0,0,.17,1.75c0,.45-.27,1-.05,1.39A2.91,2.91,0,0,1,30.23,75a1.54,1.54,0,0,0-.26.83,1.89,1.89,0,0,1-.49.53,9.43,9.43,0,0,1-.56.84,2.3,2.3,0,0,1-.45.64,4.62,4.62,0,0,0-.48.36c-.09.12-.21.39-.34.41-.44.19-.9.39-1.32.62a2.25,2.25,0,0,0-.37.33,1.81,1.81,0,0,0-1.07.46,1.06,1.06,0,0,0-.33.18,2,2,0,0,0-1.16.27c-.26.08-.38-.07-.61-.17a2.29,2.29,0,0,0-1.78,0,2.36,2.36,0,0,0-.6,0,1.36,1.36,0,0,0-.88-.25,1.65,1.65,0,0,0-1.6-.76,4.34,4.34,0,0,0-1.13-.86,1.58,1.58,0,0,0-1.09-1.48,1.41,1.41,0,0,0-1-1.31,1.58,1.58,0,0,1-.23-.66,1.66,1.66,0,0,0-.24-1,2.42,2.42,0,0,0-.28-1.8,3.42,3.42,0,0,1,.23-.73,3.66,3.66,0,0,1,0-.68,2,2,0,0,0,.22-1.3,1.31,1.31,0,0,1,.32-.39c.35-.49.6-.75.54-1.38.16-.25.45-.45.52-.74a7.19,7.19,0,0,1,.71-.65c.22-.23.55-.34.76-.61a1.36,1.36,0,0,0,1-.85l.25-.14a1.88,1.88,0,0,0,1.66-.48c.3-.15.69,0,1.06,0a4.23,4.23,0,0,0,1.29-.37,2.77,2.77,0,0,0,1.53.48,1.79,1.79,0,0,1,.89.15c.54.17.77-.18,1.09.18.34.65,1,.65,1.52,1,.23.72,1,1.13,1.54,1.59.14.09.23.25.41.35" transform="translate(-3.74 -3.84)"/><path class="cls-40" d="M28.44,67.3a1.69,1.69,0,0,1,.14.45c.09.16.43.5.39.67a1.23,1.23,0,0,0,.38,1.32,1.5,1.5,0,0,0,.14,1.45c0,.37-.23.78,0,1.15a2.4,2.4,0,0,1-.4,1.12,1.26,1.26,0,0,0-.22.7c-.1.21-.25.28-.42.44a6.32,6.32,0,0,1-.47.68,1.83,1.83,0,0,1-.39.55,3.91,3.91,0,0,0-.41.3c-.07.09-.18.32-.29.33a11.38,11.38,0,0,0-1.12.52,1.93,1.93,0,0,0-.3.27,1.62,1.62,0,0,0-.92.39.71.71,0,0,0-.29.14,1.86,1.86,0,0,0-1,.22c-.22.07-.32-.06-.53-.13a1.9,1.9,0,0,0-1.5,0,2.15,2.15,0,0,0-.51,0,1.2,1.2,0,0,0-.75-.21A1.42,1.42,0,0,0,18.59,77a3.57,3.57,0,0,0-1-.71A1.3,1.3,0,0,0,16.7,75a1.17,1.17,0,0,0-.87-1.09,1.35,1.35,0,0,1-.19-.54,1.42,1.42,0,0,0-.2-.88A2,2,0,0,0,15.2,71a2.29,2.29,0,0,1,.2-.59,5.07,5.07,0,0,1,0-.57,1.65,1.65,0,0,0,.19-1.08.91.91,0,0,1,.27-.32c.29-.41.51-.63.46-1.16.13-.2.38-.36.45-.6a6,6,0,0,1,.59-.54,6.34,6.34,0,0,0,.65-.51,1.18,1.18,0,0,0,.87-.71,1.51,1.51,0,0,1,.22-.11,1.63,1.63,0,0,0,1.4-.4c.26-.12.6,0,.9,0a3.82,3.82,0,0,0,1.1-.3,2.45,2.45,0,0,0,1.3.39,1.42,1.42,0,0,1,.76.14c.46.13.66-.16.92.15.3.53.86.53,1.3.85.19.61.83.94,1.3,1.33.13.08.19.22.35.29" transform="translate(-3.74 -3.84)"/><path class="cls-40" d="M27.42,67.37a1,1,0,0,1,.12.36c.07.13.36.41.33.54a.94.94,0,0,0,.31,1,1.17,1.17,0,0,0,.12,1.16c0,.3-.19.63,0,.93a2,2,0,0,1-.33.9.89.89,0,0,0-.19.55c-.09.17-.2.22-.34.36s-.24.36-.4.54a1.59,1.59,0,0,1-.33.44,1.65,1.65,0,0,0-.33.24c-.07.07-.16.25-.24.26-.31.12-.64.26-.94.41a1.78,1.78,0,0,0-.26.22,1.47,1.47,0,0,0-.76.31.88.88,0,0,0-.24.11,1.61,1.61,0,0,0-.81.19c-.2,0-.28,0-.45-.11a1.69,1.69,0,0,0-1.25,0,1.53,1.53,0,0,0-.43,0,.93.93,0,0,0-.62-.15,1.21,1.21,0,0,0-1.14-.51,2.9,2.9,0,0,0-.8-.57,1.06,1.06,0,0,0-.77-1,.94.94,0,0,0-.73-.86,1.19,1.19,0,0,1-.16-.43,1,1,0,0,0-.17-.71,1.52,1.52,0,0,0-.19-1.19,1.7,1.7,0,0,1,.16-.48,2.9,2.9,0,0,1,0-.45,1.32,1.32,0,0,0,.15-.87A1.09,1.09,0,0,1,17,68.3c.24-.34.42-.51.38-.93.11-.17.32-.29.37-.48a3.87,3.87,0,0,1,.49-.43c.17-.16.4-.24.55-.41a.92.92,0,0,0,.72-.57l.18-.09a1.43,1.43,0,0,0,1.18-.31c.21-.1.49,0,.74,0a3.56,3.56,0,0,0,.92-.24,2.2,2.2,0,0,0,1.09.32,1.35,1.35,0,0,1,.63.1c.39.11.55-.13.77.11.24.44.72.44,1.08.69.16.49.69.76,1.09,1.06.1.06.16.18.28.23" transform="translate(-3.74 -3.84)"/><path class="cls-40" d="M26.74,67.3a1.42,1.42,0,0,1,.1.29c.06.1.31.31.28.42a.71.71,0,0,0,.27.83.86.86,0,0,0,.1.91c0,.23-.17.5,0,.72a1.41,1.41,0,0,1-.29.72.68.68,0,0,0-.15.42c-.08.15-.18.18-.3.29a4.7,4.7,0,0,1-.35.43,1.5,1.5,0,0,1-.27.34,1.72,1.72,0,0,0-.3.19c-.06.06-.13.2-.21.21l-.81.32a1.18,1.18,0,0,0-.22.17,1.27,1.27,0,0,0-.66.25.7.7,0,0,0-.2.08A1.56,1.56,0,0,0,23,74c-.16,0-.23,0-.38-.09a1.54,1.54,0,0,0-1.08,0,1.54,1.54,0,0,0-.37,0,1,1,0,0,0-.54-.13,1.09,1.09,0,0,0-1-.4,2.38,2.38,0,0,0-.7-.44.82.82,0,0,0-.66-.78.76.76,0,0,0-.62-.68.86.86,0,0,1-.14-.35.78.78,0,0,0-.15-.55,1.11,1.11,0,0,0-.17-.93,1.34,1.34,0,0,1,.14-.38c0-.08,0-.34,0-.36a1,1,0,0,0,.14-.69.68.68,0,0,1,.19-.19c.21-.26.37-.41.33-.73.1-.13.27-.23.32-.38s.28-.21.43-.35a3.7,3.7,0,0,0,.46-.31.86.86,0,0,0,.64-.45.84.84,0,0,1,.14-.06,1.43,1.43,0,0,0,1-.25c.18-.09.42,0,.64,0a3.21,3.21,0,0,0,.8-.19,1.82,1.82,0,0,0,.93.25,1.27,1.27,0,0,1,.55.08c.33.09.47-.1.66.1s.62.33.93.53c.15.38.61.6.94.84.1,0,.15.14.26.18" transform="translate(-3.74 -3.84)"/><path class="cls-41" d="M25.93,67.36a1.76,1.76,0,0,1,.09.2c.05.06.26.21.23.29a.43.43,0,0,0,.22.57.52.52,0,0,0,.08.64c0,.16-.13.33,0,.49a.93.93,0,0,1-.24.5.43.43,0,0,0-.13.3.78.78,0,0,1-.24.19,2.57,2.57,0,0,1-.28.29,1.09,1.09,0,0,1-.23.25,1.79,1.79,0,0,0-.24.12c-.05,0-.11.14-.17.15-.22.07-.45.14-.66.22l-.18.11a1.25,1.25,0,0,0-.54.19.34.34,0,0,0-.17,0,1.52,1.52,0,0,0-.57.1.5.5,0,0,1-.32-.06,1.58,1.58,0,0,0-.89,0,1.37,1.37,0,0,0-.29,0,.89.89,0,0,0-.44-.09,1,1,0,0,0-.81-.27,2.23,2.23,0,0,0-.57-.32.62.62,0,0,0-.54-.54c0-.22-.19-.39-.51-.46A.48.48,0,0,1,18.4,70a.5.5,0,0,0-.12-.38.71.71,0,0,0-.15-.65c0-.08.09-.18.13-.26s0-.23,0-.24a.59.59,0,0,0,.1-.47c0-.05.12-.11.16-.15s.3-.27.27-.5c.08-.08.22-.16.27-.26s.23-.14.34-.24a3,3,0,0,0,.39-.22.65.65,0,0,0,.51-.31l.12,0a1.23,1.23,0,0,0,.84-.18,2.31,2.31,0,0,1,.52,0,2.88,2.88,0,0,0,.65-.13,1.93,1.93,0,0,0,.77.16,1.07,1.07,0,0,1,.44.06c.28.06.39-.07.54.07s.51.23.77.37c.11.27.49.41.77.57a.86.86,0,0,0,.2.13" transform="translate(-3.74 -3.84)"/><polygon class="cls-36" points="18.55 78.66 18.55 80.49 10.64 85.08 10.65 83.25 18.55 78.66"/><polygon points="10.65 83.25 10.64 85.08 2.69 80.49 2.7 78.66 10.65 83.25"/><polygon class="cls-38" points="18.55 78.66 10.65 83.25 2.7 78.66 10.6 74.06 18.55 78.66"/><polygon class="cls-39" points="17.26 78.66 10.64 82.51 3.99 78.66 10.61 74.82 17.26 78.66"/><polygon class="cls-27" points="10.6 76.31 15.97 79.41 17.26 78.66 10.6 74.82 3.99 78.66 5.28 79.41 10.6 76.31"/><path class="cls-40" d="M21.57,71.9a2.57,2.57,0,0,1,.16.54c.11.2.51.61.47.82a1.43,1.43,0,0,0,.43,1.57,1.87,1.87,0,0,0,.17,1.75c0,.46-.27,1-.05,1.4a2.88,2.88,0,0,1-.47,1.35,1.59,1.59,0,0,0-.26.83c-.13.26-.28.33-.49.54s-.33.55-.56.83a2,2,0,0,1-.45.64,3.59,3.59,0,0,0-.48.37c-.09.11-.21.39-.34.4-.43.19-.9.39-1.32.62a1.86,1.86,0,0,0-.36.33,2,2,0,0,0-1.08.46,1.06,1.06,0,0,0-.33.18,2,2,0,0,0-1.16.27c-.26.08-.38-.07-.61-.17a2.25,2.25,0,0,0-1.78,0,2,2,0,0,0-.6-.06,1.3,1.3,0,0,0-.88-.24,1.64,1.64,0,0,0-1.6-.77,4.57,4.57,0,0,0-1.13-.86,1.56,1.56,0,0,0-1.09-1.47,1.42,1.42,0,0,0-1-1.32,1.58,1.58,0,0,1-.23-.66,1.67,1.67,0,0,0-.24-1A2.42,2.42,0,0,0,6,76.38a3.34,3.34,0,0,1,.23-.72,3.59,3.59,0,0,1,0-.68,2.06,2.06,0,0,0,.22-1.31,1.16,1.16,0,0,1,.32-.38c.35-.5.6-.76.54-1.39.16-.24.45-.45.53-.73a6.22,6.22,0,0,1,.7-.66c.22-.23.55-.34.76-.6a1.42,1.42,0,0,0,1-.86l.24-.14a1.88,1.88,0,0,0,1.66-.48c.3-.14.69,0,1.06,0a4.51,4.51,0,0,0,1.29-.36,2.76,2.76,0,0,0,1.53.47,1.69,1.69,0,0,1,.89.16c.54.17.77-.19,1.09.18.34.64,1,.64,1.52,1,.23.73,1,1.13,1.54,1.59.14.1.23.26.41.35" transform="translate(-3.74 -3.84)"/><path class="cls-40" d="M20.49,71.67a1.69,1.69,0,0,1,.14.45c.09.16.44.51.39.68a1.21,1.21,0,0,0,.38,1.31,1.5,1.5,0,0,0,.14,1.45c0,.38-.23.79,0,1.15a2.48,2.48,0,0,1-.4,1.13,1.24,1.24,0,0,0-.22.7c-.1.2-.25.27-.42.44s-.28.45-.47.68a1.78,1.78,0,0,1-.39.54,3.91,3.91,0,0,0-.41.3c-.07.09-.18.32-.29.33-.36.16-.77.33-1.12.52a1.93,1.93,0,0,0-.3.27,1.57,1.57,0,0,0-.92.4.69.69,0,0,0-.29.13,1.78,1.78,0,0,0-1,.23c-.22.07-.32-.06-.53-.14a1.86,1.86,0,0,0-1.5,0,1.7,1.7,0,0,0-.51,0A1.2,1.2,0,0,0,12,82a1.39,1.39,0,0,0-1.36-.62,3.37,3.37,0,0,0-1-.71,1.29,1.29,0,0,0-.93-1.23,1.16,1.16,0,0,0-.87-1.09,1.39,1.39,0,0,1-.19-.55,1.37,1.37,0,0,0-.2-.87,2,2,0,0,0-.24-1.5,2.29,2.29,0,0,1,.2-.59,5.2,5.2,0,0,1,0-.58,1.63,1.63,0,0,0,.19-1.08,1.15,1.15,0,0,1,.27-.32c.29-.41.52-.63.46-1.15.14-.2.38-.37.45-.61a4.87,4.87,0,0,1,.59-.53c.2-.2.47-.3.65-.52a1.18,1.18,0,0,0,.87-.71c.07,0,.14-.08.22-.11a1.63,1.63,0,0,0,1.41-.4c.25-.12.59,0,.89,0a3.84,3.84,0,0,0,1.1-.31,2.37,2.37,0,0,0,1.31.39,1.4,1.4,0,0,1,.75.14c.46.13.66-.15.92.15.3.53.86.53,1.3.85.19.61.83,1,1.3,1.34.13.07.19.21.35.28" transform="translate(-3.74 -3.84)"/><path class="cls-40" d="M19.48,71.75a1.08,1.08,0,0,1,.11.36c.07.13.36.4.33.54a.93.93,0,0,0,.31,1,1.17,1.17,0,0,0,.12,1.16c0,.3-.19.63,0,.93a1.93,1.93,0,0,1-.33.9.92.92,0,0,0-.19.55c-.09.17-.2.22-.34.36a5.52,5.52,0,0,1-.4.55,1.54,1.54,0,0,1-.33.43,1.65,1.65,0,0,0-.33.24c-.07.07-.16.26-.24.26-.31.13-.64.26-.94.42a1.05,1.05,0,0,0-.26.22,1.41,1.41,0,0,0-.76.3.9.9,0,0,0-.24.12,1.51,1.51,0,0,0-.81.18c-.2.06-.28,0-.45-.11a1.69,1.69,0,0,0-1.25,0,1.53,1.53,0,0,0-.43,0A1,1,0,0,0,12.4,80a1.21,1.21,0,0,0-1.14-.51,2.68,2.68,0,0,0-.8-.56,1.05,1.05,0,0,0-.77-1A.94.94,0,0,0,9,77.05a1.19,1.19,0,0,1-.16-.43,1,1,0,0,0-.17-.71,1.49,1.49,0,0,0-.19-1.18,1.7,1.7,0,0,1,.16-.48,3.1,3.1,0,0,1,0-.46,1.31,1.31,0,0,0,.15-.87A1.09,1.09,0,0,1,9,72.67c.24-.34.42-.51.38-.92.11-.17.32-.3.37-.49a4.87,4.87,0,0,1,.49-.43c.17-.16.4-.24.55-.41a.93.93,0,0,0,.72-.56.76.76,0,0,1,.18-.09,1.43,1.43,0,0,0,1.18-.32c.21-.1.49,0,.74,0a3.22,3.22,0,0,0,.92-.25,2.2,2.2,0,0,0,1.09.32,1.35,1.35,0,0,1,.63.1c.39.11.55-.13.77.12.24.43.72.43,1.08.69.16.48.69.75,1.09,1.06.1.06.16.17.29.23" transform="translate(-3.74 -3.84)"/><path class="cls-40" d="M18.79,71.68a1.33,1.33,0,0,1,.1.28c.06.1.31.32.28.43a.7.7,0,0,0,.27.82.86.86,0,0,0,.1.91c0,.24-.17.5,0,.73a1.38,1.38,0,0,1-.29.71.68.68,0,0,0-.15.43c-.08.14-.18.18-.3.28a3,3,0,0,1-.35.43,1,1,0,0,1-.27.34,1.72,1.72,0,0,0-.3.19c-.06.06-.13.21-.21.21l-.81.32c-.07.06-.15.11-.22.18a1.35,1.35,0,0,0-.66.24.88.88,0,0,0-.2.09,1.56,1.56,0,0,0-.71.14c-.16,0-.23,0-.37-.09a1.69,1.69,0,0,0-1.09,0,1.54,1.54,0,0,0-.37,0,1,1,0,0,0-.54-.12,1.09,1.09,0,0,0-1-.41,2.46,2.46,0,0,0-.69-.44.86.86,0,0,0-.67-.78.75.75,0,0,0-.62-.68.77.77,0,0,1-.14-.34A.77.77,0,0,0,9.42,75,1.13,1.13,0,0,0,9.25,74a1.34,1.34,0,0,1,.14-.38c0-.07,0-.33,0-.35a1.05,1.05,0,0,0,.13-.69.71.71,0,0,1,.19-.2c.21-.26.38-.41.34-.73.09-.12.27-.23.31-.38a4.58,4.58,0,0,1,.43-.34c.14-.12.34-.18.46-.32a.84.84,0,0,0,.64-.45l.15-.06a1.33,1.33,0,0,0,1-.25c.18-.08.42,0,.64,0a3.7,3.7,0,0,0,.8-.18,1.92,1.92,0,0,0,.93.24A1.14,1.14,0,0,1,16,70c.33.08.47-.1.66.09s.62.34.94.54c.14.38.6.6.94.83.09.05.14.14.25.19" transform="translate(-3.74 -3.84)"/><path class="cls-41" d="M18,71.74c.05.06.05.12.09.19s.26.22.23.29a.43.43,0,0,0,.22.57.53.53,0,0,0,.08.64c0,.17-.13.33,0,.5a.91.91,0,0,1-.24.49.43.43,0,0,0-.13.3.78.78,0,0,1-.24.19,4,4,0,0,1-.28.3,1,1,0,0,1-.23.24,1.12,1.12,0,0,0-.24.13s-.11.13-.17.14c-.22.07-.45.14-.66.23a.77.77,0,0,0-.18.1,1.39,1.39,0,0,0-.54.19.27.27,0,0,0-.17.06,1.34,1.34,0,0,0-.57.09c-.14,0-.2,0-.32-.06a1.58,1.58,0,0,0-.89,0,1.37,1.37,0,0,0-.29,0,.89.89,0,0,0-.44-.09,1,1,0,0,0-.81-.26,2,2,0,0,0-.57-.33c0-.25-.18-.44-.54-.53,0-.23-.19-.4-.51-.47a.45.45,0,0,1-.11-.23.52.52,0,0,0-.12-.39.69.69,0,0,0-.15-.65c0-.08.09-.18.13-.26s0-.22,0-.24a.59.59,0,0,0,.1-.47s.12-.11.16-.14.31-.28.27-.5.22-.16.27-.27.23-.14.35-.23.27-.13.38-.22a.68.68,0,0,0,.51-.31l.12,0a1.28,1.28,0,0,0,.84-.17,1.83,1.83,0,0,1,.52,0,3.08,3.08,0,0,0,.66-.13,1.84,1.84,0,0,0,.76.16.93.93,0,0,1,.44.07c.28.05.39-.08.54.06s.51.23.77.38c.11.26.49.4.77.57a1.37,1.37,0,0,0,.2.13" transform="translate(-3.74 -3.84)"/></g><g id="Layer_6" data-name="Layer 6"><path class="cls-42" d="M18.09,112.47a44.84,44.84,0,0,1,.77,7.8l-.35.89-.51-.58c0-7.2-.31-7.94-.31-7.94Z" transform="translate(-3.74 -3.84)"/><polygon class="cls-43" points="13.9 107.85 14.49 108.42 14.22 108.99 13.68 108.71 13.68 108.53 13.9 107.85"/><path class="cls-44" d="M20,122a2.46,2.46,0,0,0,0-.91l-.2.14a2.67,2.67,0,0,1,0,.8Z" transform="translate(-3.74 -3.84)"/><path class="cls-44" d="M13.85,122.84l.21-.09a2.18,2.18,0,0,1,0-.8l-.23,0a2.81,2.81,0,0,0,.06.91" transform="translate(-3.74 -3.84)"/><path class="cls-45" d="M25.38,134.37l.87.78a16,16,0,0,1,1.68,1.07c.05.12.13.5.07.57a1.39,1.39,0,0,1-1.42.17c-.82-.29-1.11-.57-1.66-.7s-1.61-.34-1.75-.64a2.8,2.8,0,0,1,0-1.11s.17-.07.24.05a1.67,1.67,0,0,0,.75.58,1.89,1.89,0,0,0,.82,0,1.54,1.54,0,0,1,0-.46c0-.12.41-.34.41-.34" transform="translate(-3.74 -3.84)"/><path class="cls-46" d="M28,136.79a1.41,1.41,0,0,1-1.43.17c-.81-.29-1.1-.57-1.65-.7s-1.61-.34-1.75-.64a1,1,0,0,1-.06-.34,2.56,2.56,0,0,0,.06.66c.14.29,1.21.33,1.75.46s.84.58,1.65.87a1.44,1.44,0,0,0,1.43-.16,1.78,1.78,0,0,0,0-.35s0,0,0,0" transform="translate(-3.74 -3.84)"/><path class="cls-44" d="M24.69,128.76l-.84,1.64-.78,3.83a2.47,2.47,0,0,0,1.18.58c1.14.32,1.32-.29,1.32-.29Z" transform="translate(-3.74 -3.84)"/><path class="cls-47" d="M17.86,123a.3.3,0,0,1-.14-.23l0-.19A.52.52,0,0,1,18,122l.49-.19a.36.36,0,0,1,.32,0,.32.32,0,0,1,.13.23l0,.19a.52.52,0,0,1-.34.51l-.49.2-.09,0a.33.33,0,0,1-.22,0m.72-.92-.49.2a.28.28,0,0,0-.18.26l0,.19a.08.08,0,0,0,0,.07.14.14,0,0,0,.14,0l.49-.2a.28.28,0,0,0,.18-.26l0-.19a.07.07,0,0,0,0-.07.13.13,0,0,0-.09,0h-.05" transform="translate(-3.74 -3.84)"/><path class="cls-8" d="M15.75,110l0,.41a2.05,2.05,0,0,0,1.91,1.25c0,.23,0,.88-.27,1.06-.92-.39-2.08-1.1-2.27-1.74a8.33,8.33,0,0,1,.24-.93l.44-.33Z" transform="translate(-3.74 -3.84)"/><path class="cls-8" d="M18,110.53a1.46,1.46,0,0,1,.05.41,1.19,1.19,0,0,1-.38.75,1.32,1.32,0,0,0,.91.54,10.52,10.52,0,0,1-.21-1.5c-.05-.43-.48-.52-.37-.2" transform="translate(-3.74 -3.84)"/><rect class="cls-48" x="16.71" y="115.06" width="0.24" height="0.89" transform="matrix(1, -0.07, 0.07, 1, -11.88, -2.36)"/><rect class="cls-49" x="16.44" y="115.17" width="0.24" height="0.89" transform="matrix(1, -0.07, 0.07, 1, -11.89, -2.38)"/><polygon class="cls-50" points="13.54 111.6 13.65 113.54 12.9 114.1 11.91 113.91 11.82 112 13.54 111.6"/><path class="cls-51" d="M20.45,135.73h-.1s.11-2.41.2-3.74c0-.65.12-1.53.22-2.64a1,1,0,0,0-.56-1c-1.71-.83-5.73-2.8-6.12-3-1.48-.93-.7-3.36-.69-3.39l.1,0s-.77,2.39.64,3.27c.4.25,4.78,2.4,6.11,3a1.12,1.12,0,0,1,.62,1.1c-.1,1.1-.17,2-.21,2.63-.09,1.34-.2,3.72-.21,3.75" transform="translate(-3.74 -3.84)"/><path class="cls-17" d="M18.76,104.94a2.76,2.76,0,0,1,1.45,1.93,3,3,0,0,1-.16,1.7,7.5,7.5,0,0,1-.46,1.89c-.37.68-.8,1.15-1.16,1.17a3,3,0,0,1-2.22-1.19,4.06,4.06,0,0,1-.26-1.18c-.33-1.48-.66-2.84.2-3.89a2.28,2.28,0,0,1,2.61-.43" transform="translate(-3.74 -3.84)"/><path class="cls-52" d="M15.66,105.33a1.69,1.69,0,0,1,1.39-.59,2.79,2.79,0,0,1,1.59,0,2.34,2.34,0,0,1,1.52,1.39c.36.71.06,1,.06,1h0A.18.18,0,0,0,20,107c-.22.09-.15.18-.68.29-1.52.35-1.9-.32-2.1.34a3.17,3.17,0,0,1-.5,1.15l-.39-.72a.42.42,0,0,0-.47.07,8.74,8.74,0,0,0,.07,1s-.66-.17-.87-1.52a2.51,2.51,0,0,1,.64-2.31" transform="translate(-3.74 -3.84)"/><path class="cls-17" d="M16.33,108.31a.6.6,0,0,0-.58-.51c-.5,0-.58.54-.22,1.17s.64.1.68.07-.1-.44.12-.73" transform="translate(-3.74 -3.84)"/><path class="cls-50" d="M14.43,114.14a1.27,1.27,0,0,1-1.36,1.2,1.32,1.32,0,1,1,1.36-1.2" transform="translate(-3.74 -3.84)"/><path class="cls-50" d="M12,114.15s-.09-.52.68-1.08a1.18,1.18,0,0,1,1.8,1.07c.1,1.37.75,4.85.75,4.85s-1,1.84-1.61,1.25S12,114.15,12,114.15" transform="translate(-3.74 -3.84)"/><polygon class="cls-53" points="5.18 127.18 20.05 135.76 20.05 135.21 5.18 126.63 5.18 127.18"/><polygon class="cls-54" points="32.96 121.67 47.83 130.25 47.83 119.68 32.96 111.1 32.96 121.67"/><polygon class="cls-55" points="20.93 137.59 47.32 121.9 46.95 121.59 20.56 137.27 20.93 137.59"/><polygon class="cls-56" points="20.85 141.83 47.32 126.52 47.32 121.9 20.93 137.59 20.85 141.83"/><polygon class="cls-53" points="5.18 137.75 20.05 146.34 20.05 135.76 5.18 127.18 5.18 137.75"/><polygon class="cls-57" points="20.05 135.76 20.05 146.34 21.04 145.76 21.04 135.19 20.05 135.76"/><polygon class="cls-57" points="47.83 119.68 47.83 130.25 48.82 129.68 48.82 119.11 47.83 119.68"/><polygon class="cls-57" points="48.82 119.11 20.05 135.76 20.05 135.21 48.82 118.55 48.82 119.11"/><polygon class="cls-57" points="33.96 109.97 48.82 118.55 20.05 135.21 5.18 126.63 33.96 109.97"/><path class="cls-58" d="M33.4,122.08,29.73,120a.47.47,0,0,0-.43,0l-9.22,5.35-.41.11v.2h0s0,.1.09.14l3.74,2.16a.49.49,0,0,0,.44,0l9.54-5.54q.09-.06.09-.12h0V122Z" transform="translate(-3.74 -3.84)"/><path class="cls-59" d="M37.21,120.17s-1.3-.77-1.42-.86-.2-.31-.09-.45a1.71,1.71,0,0,1,1.46-.45,2.42,2.42,0,0,1,1.43,1.11c0,.18,0,.32-.27.46a1.24,1.24,0,0,1-1.11.19" transform="translate(-3.74 -3.84)"/><path class="cls-50" d="M26.25,120.14a1.6,1.6,0,0,0-.6-.07c-.32,0-.56.55-.56.55s-3.91-3.18-4.22-3.61,1.28-.82,1.28-.82a.47.47,0,0,1,.33,0c.13.07,3,3.46,3.16,3.59s.33.21.61.37" transform="translate(-3.74 -3.84)"/><path class="cls-50" d="M20.47,123.32c-.2,0-6.16-2.36-6.74-3-.44-.46.39-1.31.75-1.34a1.33,1.33,0,0,1,.77,0c.37.11,4.53,3,5.15,3.29a1.25,1.25,0,0,0,.23.12.41.41,0,0,0-.43.26c-.13.3-.11.48.27.7" transform="translate(-3.74 -3.84)"/><path class="cls-17" d="M24.22,124.51c-.11.09-.25,0-.34-.08s-.54-.86-.54-.86l-.4-.2.47.58a4.13,4.13,0,0,0,.28.56c.08.08-.16.26-.31.12a2.75,2.75,0,0,1-.34-.53l-.25-.13s.34.63.34.67-.26.23-.4.08a2.27,2.27,0,0,1-.29-.55L22.1,124l.31.43s.19.29.07.39-.35,0-.43-.21a2.5,2.5,0,0,0-.18-.33,2.52,2.52,0,0,1-.92-.5c-.32-.31-.48-.45-.48-.45h0c-.38-.22-.4-.4-.27-.7a.41.41,0,0,1,.43-.26h0c.63.11,1.32.26,1.48.26s1.29.09,1.29.09l.11.24-.14.11.35.29a2.25,2.25,0,0,0,.32.63c.2.26.28.45.17.53" transform="translate(-3.74 -3.84)"/><path class="cls-17" d="M29.59,122.57c-.13.13-.55.06-.55.06l-.11-.22c.06.12.19.42,0,.5a.5.5,0,0,1-.63-.12,3.42,3.42,0,0,1-.26-.83s-1.3-.09-1.7-.19a2.75,2.75,0,0,1-.78-.37,2.78,2.78,0,0,1,.17.86.28.28,0,0,1-.51,0c-.13-.28-.08-1.49-.17-1.61s.24-.51.56-.55a1.6,1.6,0,0,1,.6.07l.9.5.65.29,1.14.55.44.65s.35.31.21.44" transform="translate(-3.74 -3.84)"/><path class="cls-58" d="M37.32,125l-1.89-5.55-1.56.9h0l0,3.34h-.1a1.26,1.26,0,0,0-.78.16l-2.49,1.36a.67.67,0,0,0-.15.14l-.07,0v.27a.44.44,0,0,0,.22.39l2.59,1.5h0a1.51,1.51,0,0,0,.35.14h0l.09,0,.2,0a1.36,1.36,0,0,0,.74-.14l.05,0,.07,0,1.07-.62,1.2-.7a.83.83,0,0,0,.21-.16,1.15,1.15,0,0,0,.19-.26l0-.12,0-.13a1.11,1.11,0,0,0,0-.51" transform="translate(-3.74 -3.84)"/><path class="cls-60" d="M39.58,109.81l-.44-.3a.28.28,0,0,0-.3,0l-11.32,6.54a1.08,1.08,0,0,0-.48.72l-.78,8.68a.34.34,0,0,0,.13.36h0l.41.29.47-.6,10.5-6.06a1.51,1.51,0,0,0,.68-1l.74-8.13Z" transform="translate(-3.74 -3.84)"/><path class="cls-58" d="M39.66,110.06l-.78,8.67a1.54,1.54,0,0,1-.68,1l-11,6.33c-.34.19-.59,0-.56-.32l.79-8.67a.88.88,0,0,1,.14-.39,1,1,0,0,1,.34-.34l11.32-6.53c.13-.08.24-.09.31,0a.26.26,0,0,1,.08.25" transform="translate(-3.74 -3.84)"/><path class="cls-60" d="M37.05,124.71l-1.58-5.24-1.52.88-.26,3.1a1.24,1.24,0,0,0-.86.15L30.48,125a.44.44,0,0,0,0,.77l2.46,1.42a1.48,1.48,0,0,0,1.47,0l2.21-1.28a1,1,0,0,0,.43-1.15" transform="translate(-3.74 -3.84)"/><path class="cls-61" d="M37.43,125.48l0,.13,0,.12a1.15,1.15,0,0,1-.19.26.83.83,0,0,1-.21.16l-1.2.7-1.08.62-.06,0,0,0a1.61,1.61,0,0,1-.74.13l-.2,0-.09,0h0v-.2c.22,0,.4-.07.4-.49h0l0-6.58h0l1.57-.9L37.4,125a1.11,1.11,0,0,1,0,.51" transform="translate(-3.74 -3.84)"/><path class="cls-58" d="M33.92,126.92v.5c0,.1-.13.18-.19.24h0l-.2,0-.09,0h0a1.51,1.51,0,0,1-.35-.14h0c-.06-.12-.14-.33,0-.23.49.24.57-.16.57-.16v-4.7l.26-2Z" transform="translate(-3.74 -3.84)"/><path class="cls-62" d="M10,125.53c-.17.13-.34-.13-.34-.27a1.5,1.5,0,0,1,.14-.5c.09-.27.2-.53.31-.79a3.22,3.22,0,0,1,.78-1.32c.21-.18.61-.09.85,0a10.35,10.35,0,0,1,1.43.46c.61.24,1.2.51,1.8.79l.84.41c.07,0,.35.12.38.19s-.23.31-.34.32-.35-.14-.49-.21l-1.1-.52c-.66-.29-1.32-.58-2-.81a5.64,5.64,0,0,0-.7-.21.74.74,0,0,0-.39,0c-.14.06-.25.32-.31.44a8,8,0,0,0-.34.73c-.12.28-.22.57-.32.85-.05.13-.09.25-.13.38a.19.19,0,0,1-.07.11" transform="translate(-3.74 -3.84)"/><path class="cls-63" d="M10.84,121.4l.65.2a1,1,0,0,1,.56.09l.63.29a27.31,27.31,0,0,1,4.53,1.67,2,2,0,0,1,0,.58v0h0a.45.45,0,0,1-.23.27,1.09,1.09,0,0,1-1,0l-5-2.27a.31.31,0,0,1-.14-.16l0,0a1.07,1.07,0,0,1,0-.69" transform="translate(-3.74 -3.84)"/><path class="cls-64" d="M17,123.39l-5-2.27a1.09,1.09,0,0,0-1,0c-.28.17-.32.42-.07.57L16,124a1.15,1.15,0,0,0,1,0c.29-.17.32-.43.07-.57" transform="translate(-3.74 -3.84)"/></g><g id="Layer_7" data-name="Layer 7"><g class="cls-65"><g class="cls-9"><g class="cls-66"><path class="cls-11" d="M583.85,85.11c0,4.85-6.08,8.78-13.59,8.78S556.68,90,556.68,85.11s6.08-8.78,13.58-8.78,13.59,3.93,13.59,8.78" transform="translate(-3.74 -3.84)"/><path class="cls-12" d="M583.85,85.11c0,4.85-6.08,8.78-13.59,8.78S556.68,90,556.68,85.11s6.08-8.78,13.58-8.78S583.85,80.26,583.85,85.11Z" transform="translate(-3.74 -3.84)"/></g></g><path class="cls-12" d="M583.85,85.11c0,4.85-6.08,8.78-13.59,8.78S556.68,90,556.68,85.11s6.08-8.78,13.58-8.78S583.85,80.26,583.85,85.11Z" transform="translate(-3.74 -3.84)"/><path class="cls-67" d="M539.23,65.66c0,.13-1.28,8.2-1.28,8.2s.18.22.39.22.39-.09.39-.22l1.42-7.63Z" transform="translate(-3.74 -3.84)"/><path class="cls-67" d="M546.49,69.75c0,.13-.19,8.92-.19,8.92s.18.22.39.22.4-.1.4-.22l.31-8.34Z" transform="translate(-3.74 -3.84)"/><path class="cls-67" d="M552.87,66.16c0,.13-.19,8.91-.19,8.91s.18.22.39.22.4-.09.4-.22l.31-8.34Z" transform="translate(-3.74 -3.84)"/><path class="cls-67" d="M545.75,62.06c0,.13-1.29,8.2-1.29,8.2s.18.22.4.22.39-.1.39-.22l1.41-7.63Z" transform="translate(-3.74 -3.84)"/><polygon class="cls-68" points="542.39 57.24 535.31 61.34 535.31 51.89 542.39 47.8 542.39 57.24"/><polygon class="cls-69" points="534.67 51.56 534.67 61.82 535.31 62.15 535.31 51.89 534.67 51.56"/><polygon class="cls-70" points="542.39 47.8 541.75 47.47 534.67 51.56 535.31 51.89 542.39 47.8"/><polygon class="cls-71" points="550.53 61.94 543.44 66.03 535.31 61.34 542.39 57.24 550.53 61.94"/><polygon class="cls-69" points="543.44 66.03 543.44 66.89 534.67 61.82 534.67 60.96 543.44 66.03"/><polygon class="cls-72" points="543.44 66.03 543.44 66.89 550.53 62.8 550.53 61.94 543.44 66.03"/><path class="cls-73" d="M557,75.6l1.23,1.19c.3.29,0,.55-.51.53a10,10,0,0,1-2.26-.49,10.88,10.88,0,0,1-1.69-.88,1.09,1.09,0,0,1-.5-.63v-.89l2.7.11s.44.48,1,1.06" transform="translate(-3.74 -3.84)"/><path class="cls-73" d="M552.23,78.42l1.22,1.18c.3.3.06.56-.51.54a10,10,0,0,1-2.26-.49,11.35,11.35,0,0,1-1.69-.88,1.09,1.09,0,0,1-.5-.63V76.56l2.7.8s.44.48,1,1.06" transform="translate(-3.74 -3.84)"/><path class="cls-67" d="M542.59,61.8,548,59.72a15.15,15.15,0,0,0,2.51,1.83c1,.58,3.56,2.11,4.4,2.7.51.37.74,1.15,1,2.92.33,2.93.57,7,.57,7a2.35,2.35,0,0,1-1.9.81,5.32,5.32,0,0,1-1.78-.32l-.2-7.45-4.17-2.63s2.26,1.63,2.62,3a14.4,14.4,0,0,1,.43,3.34c.09,3,.12,6.16.12,6.16a1.39,1.39,0,0,1-1.52,1,3.09,3.09,0,0,1-1.85-.83l-.26-8.06a45.14,45.14,0,0,1-4.82-3.86c-1.11-1.29-.49-3.5-.49-3.5" transform="translate(-3.74 -3.84)"/><path class="cls-74" d="M547.05,49.56s.65-.9,1.67.07A11.18,11.18,0,0,1,550.79,53c.12.41.53-.33.53.38,0,.47.18.42.3.61a2.14,2.14,0,0,1-1.1,2.48,4.13,4.13,0,0,1-2.53-2,12.71,12.71,0,0,1-.94-4.85" transform="translate(-3.74 -3.84)"/><path class="cls-75" d="M547.59,49.85a.74.74,0,0,0-.35.33l-2.78,0s-2.26.46-2.79,2.21a10.81,10.81,0,0,0,.76,2.48c.71,2.06.24,5.15.09,7.21,2.53,1.82,6.13.21,7.28-1.2-.59-4,1-8.16-2.21-11.08" transform="translate(-3.74 -3.84)"/><path class="cls-13" d="M546.92,49.78l-2.1-1.53-.45,2.48a3.94,3.94,0,0,0,1.06.84,8.82,8.82,0,0,0,1.65.39,1.19,1.19,0,0,0,0-1Z" transform="translate(-3.74 -3.84)"/><path class="cls-8" d="M547.47,49.75a8.35,8.35,0,0,1,.69.69c.22.27.21.59.36.85s.2.34.2.34-.35,0-.47-.1-.21-.22-.34-.16-.23.41-.29.59a1.3,1.3,0,0,1-.33.39l-.39-.51s.29-.37.18-.63a5.75,5.75,0,0,1-.14-1.17Z" transform="translate(-3.74 -3.84)"/><path class="cls-17" d="M544.57,45.53a3.13,3.13,0,0,0,0,3.13,4,4,0,0,0,2.45,1.55c1,.17,2.15-2.68,1-4.43a2.1,2.1,0,0,0-3.45-.25" transform="translate(-3.74 -3.84)"/><path class="cls-67" d="M545.56,44.26a2.11,2.11,0,0,0-1.36.91c-1.05.22-.94,1.74-.68,2.31.5,1.1,1.08,1.18,1.08,1.18a1.78,1.78,0,0,1,0-.87c.12-.22.47-.26.59.14a1,1,0,0,0,.3,0l-.12-.8a1.41,1.41,0,0,0,1.29-.09,1.32,1.32,0,0,1,1.49.06,1.62,1.62,0,0,0,.1-.82c.41-.28.8-.54.74-.73a1.21,1.21,0,0,1-1-.1,2.28,2.28,0,0,0,.53-.61c-.71.1-2.27-.72-3-.61" transform="translate(-3.74 -3.84)"/><path class="cls-8" d="M544.6,49.46s-.19.36.35.92a8,8,0,0,0,1.6.81,2.51,2.51,0,0,1,.52.49,1.51,1.51,0,0,1,.16.41l.06.26a1.58,1.58,0,0,0-.54-.32c-.3-.11-.26.18-.37.5s-.43.27-.43.27a3.37,3.37,0,0,0-.11-.56c-.17-.28-1-.42-1.33-.7a1.31,1.31,0,0,1-.51-1.33c.15-.34.4-.75.6-.75" transform="translate(-3.74 -3.84)"/><path class="cls-74" d="M542.59,51.43a3.9,3.9,0,0,1,1.36,2,12,12,0,0,1,.13,1.85,3.54,3.54,0,0,1,.11,1.63,1.34,1.34,0,0,0,0,.69c.24.74.47.91.36,1.34a1.26,1.26,0,0,1,.41.26c.16.14.11.9.11.9s-1.82,1.56-2.22,1.36c-1.7-.85-1.75-4.48-1.81-5.25a9.84,9.84,0,0,1,.2-3.56c.18-.56,1-1.4,1.37-1.22" transform="translate(-3.74 -3.84)"/><path class="cls-17" d="M544.62,60c.53.42,2.23,2.7,2.7,3.19s1.17.57,1.75,1.33c.44.57,1.1,1.47,1,2s-.84.35-1.5,0a5.66,5.66,0,0,1-2-1.85,21.85,21.85,0,0,0-2.39-2A4.78,4.78,0,0,1,543,61.4,1.82,1.82,0,0,1,544.62,60" transform="translate(-3.74 -3.84)"/><path class="cls-8" d="M545.37,60.78a1.65,1.65,0,0,0-.32-.68c-.25-.27-.39-.27-.39-.27a1.57,1.57,0,0,0-1.19.52,2.27,2.27,0,0,0-.64,1.11,1.65,1.65,0,0,0,.46.63.61.61,0,0,0,.42.13s-.24-.34.43-1,1.23-.43,1.23-.43" transform="translate(-3.74 -3.84)"/><path class="cls-17" d="M551.64,54c.52-.64,1.29-1.5,1.91-2.32a11.47,11.47,0,0,0,1.26-1.7c.48-.93.77-1.32.84-1s-.06.49-.16.79a4.63,4.63,0,0,1-.28.68,2.55,2.55,0,0,1,.7.75c.18.38-.09.74-.43,1s-.82.13-1,.34c-.37.43-.71,1.8-1.46,2.78a3.26,3.26,0,0,1-1.51,1.28.64.64,0,0,1-.94-.25c-.11-.15,0-.38,0-.62,0-.64.85-1.48,1.06-1.75" transform="translate(-3.74 -3.84)"/><path class="cls-8" d="M551.3,54l.3.09a1.87,1.87,0,0,0-.46,1.24,3.82,3.82,0,0,0,.46,1.28s-.36.43-.75.34-.59-.44-.57-1.12a2.21,2.21,0,0,1,1-1.83" transform="translate(-3.74 -3.84)"/><path class="cls-67" d="M561.78,80.28c0,1.24-1.79,2.25-4,2.25s-4-1-4-2.25,1.8-2.25,4-2.25,4,1,4,2.25" transform="translate(-3.74 -3.84)"/><rect class="cls-67" x="550.03" y="75.77" width="8" height="0.67"/><path class="cls-76" d="M561.78,79.72c0,1.24-1.79,2.25-4,2.25s-4-1-4-2.25,1.8-2.26,4-2.26,4,1,4,2.26" transform="translate(-3.74 -3.84)"/><path class="cls-77" d="M560.8,79.66c0,.94-1.36,1.71-3,1.71s-3-.77-3-1.71,1.35-1.71,3-1.71,3,.77,3,1.71" transform="translate(-3.74 -3.84)"/><rect class="cls-67" x="553.6" y="55.5" width="0.86" height="20.09"/><path class="cls-67" d="M558.2,79.48c0,.13-.2.24-.43.24s-.43-.11-.43-.24.19-.25.43-.25.43.11.43.25" transform="translate(-3.74 -3.84)"/><path class="cls-69" d="M566.58,62v-.87h-.18c-.85-2.24-4.39-3.92-8.62-3.92s-7.78,1.68-8.63,3.92H549v1c0,2.75,3.95,5,8.83,5s8.82-2.22,8.82-5a1.11,1.11,0,0,0,0-.17" transform="translate(-3.74 -3.84)"/><path class="cls-68" d="M566.6,61.3c0,2.75-4,5-8.82,5s-8.83-2.22-8.83-5,3.95-5,8.83-5,8.82,2.22,8.82,5" transform="translate(-3.74 -3.84)"/><path class="cls-73" d="M564.24,80.63a17.47,17.47,0,0,0-2.54-.71.9.9,0,0,0-.81,1.15,1.6,1.6,0,0,0,1.16,1.2c.7.2,1.59.3,1.74.52a1.13,1.13,0,0,0,1.24.58,1.82,1.82,0,0,0,1.08-.62l-.09-1Z" transform="translate(-3.74 -3.84)"/><path class="cls-15" d="M565.41,72.15s-1.22-1.89-1.72-1.46a1.31,1.31,0,0,0-.49.84,46.37,46.37,0,0,0-.09,6.29c.08,1.51,0,2.78,0,2.78s0,.69,1.16,1.36a2,2,0,0,0,2.17-.29,27.51,27.51,0,0,0,.45-5.22,11.13,11.13,0,0,0-1.53-4.3" transform="translate(-3.74 -3.84)"/><path class="cls-73" d="M561.66,82.19a17.31,17.31,0,0,0-2.55-.71.91.91,0,0,0-.81,1.15,1.63,1.63,0,0,0,1.17,1.2c.7.2,1.59.3,1.74.52a1.12,1.12,0,0,0,1.24.58,1.82,1.82,0,0,0,1.08-.62l-.09-1Z" transform="translate(-3.74 -3.84)"/><path class="cls-15" d="M562.83,73.71s-.78-1.86-1.41-1.62a1.35,1.35,0,0,0-.82,1.11,46.61,46.61,0,0,0-.08,6.18c.09,1.51.05,2.78.05,2.78s0,.69,1.16,1.36a2,2,0,0,0,2.17-.29,26.66,26.66,0,0,0,.45-5.22,11.2,11.2,0,0,0-1.52-4.3" transform="translate(-3.74 -3.84)"/><path class="cls-67" d="M561.92,78c0,.13-1.29,8.2-1.29,8.2s.18.22.39.22.4-.09.4-.22l1.41-7.63Z" transform="translate(-3.74 -3.84)"/><path class="cls-67" d="M569.17,82.05c0,.13-.18,8.92-.18,8.92s.17.22.39.22.39-.1.39-.22l.31-8.34Z" transform="translate(-3.74 -3.84)"/><path class="cls-67" d="M575.55,78.46c0,.13-.18,8.91-.18,8.91s.17.22.39.22.39-.09.39-.22l.31-8.34Z" transform="translate(-3.74 -3.84)"/><path class="cls-67" d="M568.43,74.36c0,.13-1.28,8.2-1.28,8.2s.17.22.39.22.39-.1.39-.22l1.41-7.63Z" transform="translate(-3.74 -3.84)"/><polygon class="cls-71" points="573.21 74.24 566.12 78.33 557.35 73.26 564.44 69.17 573.21 74.24"/><polygon class="cls-69" points="566.12 78.33 566.12 79.19 557.35 74.12 557.35 73.26 566.12 78.33"/><path class="cls-15" d="M569.55,71.64c-.8-.22-4-1.1-4.64-1.19s-1.74.1-1.69,1.44.92,1.54,2.07,2.25c.66.4,1.4.81,2.16,1.19a8.1,8.1,0,0,0,2.1-3.69" transform="translate(-3.74 -3.84)"/><path class="cls-15" d="M573.82,73.45s.47,3-1.75,4.14a6.1,6.1,0,0,1-5.52.09,31.49,31.49,0,0,1-3.84-2c-1.16-.71-2-.91-2.08-2.25A1.33,1.33,0,0,1,562.32,72c.7.1,4.83,1.23,4.83,1.23Z" transform="translate(-3.74 -3.84)"/><polygon class="cls-68" points="566.12 68.89 566.12 78.33 566.12 79.19 573.21 75.1 573.21 74.24 573.21 64.8 566.12 68.89"/><polygon class="cls-69" points="565.49 68.55 565.49 78.82 566.12 79.15 566.12 68.89 565.49 68.55"/><polygon class="cls-70" points="573.21 64.79 572.57 64.46 565.49 68.55 566.12 68.88 573.21 64.79"/><path class="cls-16" d="M571.59,61.84c-.2-.06-1.07-.19-1.21,0a16.07,16.07,0,0,1,1,2.67,7.54,7.54,0,0,1,.06,2.12l.41-.25a2.54,2.54,0,0,0,1.15-2c0-.9-.56-2.28-1.36-2.5" transform="translate(-3.74 -3.84)"/><path class="cls-17" d="M559.25,62.63c-.4-.56-.1-1.55,1-1.07.85.4,1,.7,1.29.71s.47-.64.79-.68.3.27,0,.68a1.15,1.15,0,0,0-.09.85,7.49,7.49,0,0,0,2.92,2.05c1,.24.35,2.09.09,2.3s-1.17-.56-2.05-1.45a15.09,15.09,0,0,0-1.94-2c-.31-.22-.7-.38-1-.57a3.29,3.29,0,0,1-1-.81" transform="translate(-3.74 -3.84)"/><path class="cls-17" d="M568.37,57.13a1.78,1.78,0,0,1,2.55.87c.32.66-.13,2.59-.2,3.84a2.64,2.64,0,0,1,.56,1.6s.06.36-.8.72-2.11-.52-2.11-.52l0-1.53a4.19,4.19,0,0,1-1.1-.29,3.66,3.66,0,0,1-.41-2.81c.27-2.06,1.23-1.71,1.48-1.88" transform="translate(-3.74 -3.84)"/><path class="cls-16" d="M565.91,68.5c-.47-1.11,1-3,1-3.78,0-.51.37-.55.7-.89a4.82,4.82,0,0,1,.79-.55c.75.18,1.3.45,1.92,0s.42-1.58.42-1.58l.24,0a3.08,3.08,0,0,1,1.49,1.45,6.16,6.16,0,0,1,.5,3.85,46.88,46.88,0,0,0-.49,4.88,2.52,2.52,0,0,0,.45,1.47c.25.52-.17,1.18-.45,1.47a4.95,4.95,0,0,1-7.39-.8c.27-.43,0-.72,0-1.14s.69-.15.57-.87c-.23-1.37.56-2.78.22-3.56" transform="translate(-3.74 -3.84)"/><path class="cls-17" d="M566,69.24c-.19-.4-.34-.81-.5-1.21a17.08,17.08,0,0,1-.27-2.18c-.89.79-2.37,1.66-3,2.31-.4-.36-1-.72-1.78-1.35a2.76,2.76,0,0,1-1.13-1.44,2.72,2.72,0,0,1-.12-1.26c.06-.35.31-.47.08-.54s-.56.32-.59.47-.2.71-.54.2c-.22-.33-.47-.85-.78-1.29a.54.54,0,0,0-.59.52c-.1.74-.13,1.4.29,1.67.07,0,1,.83,1.34,1.11a29.37,29.37,0,0,1,1.72,2.63c.64.74,1.34,1.65,1.85,1.8a1.32,1.32,0,0,0,.81,0A9.42,9.42,0,0,0,566,69.24" transform="translate(-3.74 -3.84)"/><path class="cls-18" d="M570.72,61.7a6.43,6.43,0,0,0,1.44-3.27c0-1.55-.88-2.25-1.82-2.27a2.23,2.23,0,0,0-3,.35c-.59.69-.87,1.1-1.52,1.21a1.5,1.5,0,0,0,1.39.85c.22.86.87,1.15,1,1.44.27.81.44,1.47,2.5,1.69" transform="translate(-3.74 -3.84)"/><path class="cls-17" d="M567.59,59.6s.77-1,1-.18a1,1,0,0,1-.37,1.14Z" transform="translate(-3.74 -3.84)"/><path class="cls-16" d="M565.76,64.87c-.51.46-2.24,2-2.24,2s-.15.38.3,1.49a3.15,3.15,0,0,0,1.29,1.53,10.36,10.36,0,0,0,2-1,3.18,3.18,0,0,0,1.19-3.68c-.62-1.49-1.44-1.25-2.53-.27" transform="translate(-3.74 -3.84)"/></g><g class="cls-65"><path class="cls-78" d="M529.44,31.33H508.8a1.57,1.57,0,0,1-1.58-1.57V18.06a1.58,1.58,0,0,1,1.58-1.58h20.64A1.57,1.57,0,0,1,531,18.06v11.7a1.57,1.57,0,0,1-1.57,1.57" transform="translate(-3.74 -3.84)"/><path d="M529.44,31.52H508.8A1.76,1.76,0,0,1,507,29.76V18.05a1.76,1.76,0,0,1,1.77-1.76h20.64a1.76,1.76,0,0,1,1.76,1.76V29.76a1.76,1.76,0,0,1-1.76,1.76M508.8,16.67a1.38,1.38,0,0,0-1.39,1.38V29.76a1.39,1.39,0,0,0,1.39,1.39h20.64a1.39,1.39,0,0,0,1.39-1.39V18.05a1.39,1.39,0,0,0-1.39-1.38Z" transform="translate(-3.74 -3.84)"/><path class="cls-79" d="M529.2,16.6H509a1.63,1.63,0,0,0-1.61,1.64v1.4h23.38v-1.4a1.63,1.63,0,0,0-1.61-1.64" transform="translate(-3.74 -3.84)"/><rect class="cls-8" x="505.48" y="13.39" width="19.35" height="0.98"/><rect class="cls-8" x="505.48" y="14.68" width="19.35" height="0.3"/><rect class="cls-80" x="512.61" y="21.36" width="7.46" height="0.74"/><rect class="cls-80" x="512.61" y="22.46" width="3.65" height="0.61"/><rect class="cls-80" x="512.61" y="23.71" width="3.7" height="0.74"/><rect class="cls-80" x="512.61" y="24.81" width="9.45" height="0.61"/><rect class="cls-81" x="504.6" y="16.4" width="6.94" height="9.55"/></g><g class="cls-82"><path class="cls-8" d="M510.93,26.92l.07,3.36.9.71,1-.77,0-3.22s-.37-1-1.89-.08" transform="translate(-3.74 -3.84)"/><polygon class="cls-83" points="508.22 24.81 508 24.81 507.77 23.96 508.45 23.96 508.22 24.81"/><polygon class="cls-83" points="508.8 27.21 507.42 27.21 508 24.75 508.21 24.75 508.8 27.21"/><path class="cls-84" d="M510.58,24.3a.59.59,0,1,1-.59-.66.62.62,0,0,1,.59.66" transform="translate(-3.74 -3.84)"/><path class="cls-84" d="M514.36,24.3a.6.6,0,1,1-1.19,0,.6.6,0,1,1,1.19,0" transform="translate(-3.74 -3.84)"/><rect class="cls-84" x="507.19" y="21.69" width="1.88" height="2.26"/><path class="cls-84" d="M512.47,26.31h-1.11a1.45,1.45,0,0,1-1.45-1.45V22.69a1.45,1.45,0,0,1,1.45-1.45h1.11a1.45,1.45,0,0,1,1.45,1.45v2.17a1.45,1.45,0,0,1-1.45,1.45" transform="translate(-3.74 -3.84)"/><path class="cls-18" d="M514.34,22.38c-.13-.35-.13-.86-1-1.08s-2.8-1.15-2.92.1a.5.5,0,0,0-.37,0,.7.7,0,0,0-.64.82,18.78,18.78,0,0,0,.49,1.86,5.73,5.73,0,0,0,.91-1.9c.58.47,1.72,1.29,2.32,1.11.84-.25.82.74.82.74s.55-1.19.4-1.63" transform="translate(-3.74 -3.84)"/><polygon class="cls-85" points="507.19 23.08 508.14 23.98 507.17 24.56 507.19 23.08"/><polygon class="cls-85" points="509.08 23.08 508.13 23.98 509.1 24.56 509.08 23.08"/><path class="cls-86" d="M510.93,26.86c0,.06,1,4.27,1,4.27h-4V27.9Z" transform="translate(-3.74 -3.84)"/><path class="cls-86" d="M512.83,26.86c0,.06-1,4.27-1,4.27h4V27.9Z" transform="translate(-3.74 -3.84)"/></g><g class="cls-65"><path class="cls-87" d="M539.19,27.64a.89.89,0,1,0-.88.89.88.88,0,0,0,.88-.89" transform="translate(-3.74 -3.84)"/><path class="cls-88" d="M538.31,28.7a1.06,1.06,0,1,1,1.05-1.06,1.06,1.06,0,0,1-1.05,1.06m0-1.78a.72.72,0,1,0,0,1.44.72.72,0,0,0,0-1.44" transform="translate(-3.74 -3.84)"/><path class="cls-8" d="M544.82,16.65H540.5a2.13,2.13,0,0,0-2.13,2.14V29a2.13,2.13,0,0,0,2.13,2.13h6.16A2.14,2.14,0,0,0,548.8,29v-8.4Z" transform="translate(-3.74 -3.84)"/><path class="cls-88" d="M546.66,31.33H540.5a2.3,2.3,0,0,1-2.3-2.3V18.79a2.3,2.3,0,0,1,2.3-2.3h4.32a.15.15,0,0,1,.12.05l4,4a.18.18,0,0,1,.05.12V29a2.31,2.31,0,0,1-2.31,2.3M540.5,16.82a2,2,0,0,0-2,2V29a2,2,0,0,0,2,2h6.16a2,2,0,0,0,2-2V20.7l-3.88-3.88Z" transform="translate(-3.74 -3.84)"/><path class="cls-89" d="M544.82,16.65l4,4h-3.13a.85.85,0,0,1-.85-.85Z" transform="translate(-3.74 -3.84)"/><path class="cls-88" d="M548.8,20.8h-3.13a1,1,0,0,1-1-1V16.65a.16.16,0,0,1,.1-.15.18.18,0,0,1,.19,0l4,4a.2.2,0,0,1,.06.13.18.18,0,0,1-.17.17M545,17.06v2.72a.67.67,0,0,0,.68.68h2.72Z" transform="translate(-3.74 -3.84)"/><path class="cls-87" d="M538.39,22.52a1,1,0,0,0-1,1v4h0a1,1,0,0,1,.94-.77H548V22.52Z" transform="translate(-3.74 -3.84)"/><path class="cls-88" d="M537.45,27.64h0a.17.17,0,0,1-.17-.16v-4a1.14,1.14,0,0,1,1.13-1.13H548a.18.18,0,0,1,.17.17V26.7a.17.17,0,0,1-.17.17h-9.61a.78.78,0,0,0-.77.64.17.17,0,0,1-.17.13m.94-4.95a.79.79,0,0,0-.79.79v3.37a1.13,1.13,0,0,1,.79-.32h9.44V22.69Z" transform="translate(-3.74 -3.84)"/></g><text class="cls-90" transform="translate(536.19 21.8)">NSS</text><g class="cls-65"><path class="cls-91" d="M557.84,27.64a.89.89,0,1,0-.89.89.89.89,0,0,0,.89-.89" transform="translate(-3.74 -3.84)"/><path class="cls-88" d="M557,28.7A1.06,1.06,0,1,1,558,27.64,1.07,1.07,0,0,1,557,28.7m0-1.78a.72.72,0,0,0,0,1.44.72.72,0,0,0,0-1.44" transform="translate(-3.74 -3.84)"/><path class="cls-8" d="M563.47,16.65h-4.32A2.14,2.14,0,0,0,557,18.79V29a2.13,2.13,0,0,0,2.14,2.13h6.16A2.13,2.13,0,0,0,567.44,29v-8.4Z" transform="translate(-3.74 -3.84)"/><path class="cls-88" d="M565.31,31.33h-6.16a2.31,2.31,0,0,1-2.31-2.3V18.79a2.32,2.32,0,0,1,2.31-2.31h4.32a.21.21,0,0,1,.12.05l4,4a.15.15,0,0,1,.05.12V29a2.3,2.3,0,0,1-2.3,2.3m-6.16-14.51a2,2,0,0,0-2,2V29a2,2,0,0,0,2,2h6.16a2,2,0,0,0,2-2V20.7l-3.87-3.88Z" transform="translate(-3.74 -3.84)"/><path class="cls-89" d="M563.47,16.65l4,4h-3.13a.85.85,0,0,1-.84-.85Z" transform="translate(-3.74 -3.84)"/><path class="cls-88" d="M567.44,20.8h-3.13a1,1,0,0,1-1-1V16.65a.15.15,0,0,1,.1-.15.17.17,0,0,1,.19,0l4,4a.19.19,0,0,1,.05.13.17.17,0,0,1-.17.17m-3.8-3.74v2.72a.67.67,0,0,0,.67.68H567Z" transform="translate(-3.74 -3.84)"/><path class="cls-91" d="M557,22.52a1,1,0,0,0-.95,1v4h0a1,1,0,0,1,.93-.78h9.62V22.52Z" transform="translate(-3.74 -3.84)"/><path class="cls-88" d="M556.1,27.64h0a.16.16,0,0,1-.17-.16v-4A1.13,1.13,0,0,1,557,22.35h9.62a.18.18,0,0,1,.17.17V26.7a.17.17,0,0,1-.17.17H557a.79.79,0,0,0-.77.64.15.15,0,0,1-.16.13m.93-4.95a.78.78,0,0,0-.78.79v3.37a1.1,1.1,0,0,1,.78-.32h9.45V22.69Z" transform="translate(-3.74 -3.84)"/></g><text class="cls-92" transform="translate(554.27 21.8)">CURP</text><g id="Layer_1-2" data-name="Layer 1-2"><g class="cls-93"><g class="cls-94"><g class="cls-95"><path class="cls-96" d="M525.15,26.61h5.3v-6.2h-5.3Zm2.77-1.22a1.94,1.94,0,1,1,1.94-1.94,1.94,1.94,0,0,1-1.94,1.94h0" transform="translate(-3.74 -3.84)"/><path class="cls-96" d="M529.45,23.44a1.49,1.49,0,0,1-3,0,1.49,1.49,0,0,1,3,0h0" transform="translate(-3.74 -3.84)"/></g></g><polygon class="cls-23" points="580.83 12.13 573.8 17.95 573.73 17.95 573.73 26.88 587.93 26.88 587.93 17.95 587.86 17.95 580.83 12.13"/><polygon class="cls-97" points="580.83 12.13 573.8 17.95 573.73 17.95 573.73 26.88 587.93 26.88 587.93 17.95 587.86 17.95 580.83 12.13"/><rect class="cls-98" x="575.86" y="19.79" width="4.03" height="7.1"/><rect class="cls-97" x="575.86" y="19.79" width="4.03" height="7.1"/><path class="cls-99" d="M582.78,27a.24.24,0,0,0-.24.24.24.24,0,1,0,.48,0h0a.24.24,0,0,0-.24-.24" transform="translate(-3.74 -3.84)"/><path class="cls-97" d="M582.78,27a.24.24,0,0,0-.24.24.24.24,0,1,0,.48,0h0A.24.24,0,0,0,582.78,27Z" transform="translate(-3.74 -3.84)"/><rect class="cls-98" x="581.62" y="19.66" width="4.69" height="4.35"/><rect class="cls-97" x="581.62" y="19.66" width="4.69" height="4.35"/><polygon class="cls-98" points="586.54 15.46 586.54 12.52 586.98 12.52 586.98 11.39 583.83 11.39 583.83 12.52 584.25 12.52 584.25 13.87 580.83 11.47 580.83 11.47 580.83 11.47 572.03 17.61 572.95 18.93 580.83 13.44 588.71 18.93 589.63 17.61 586.54 15.46"/><polygon class="cls-97" points="586.54 15.46 586.54 12.52 586.98 12.52 586.98 11.39 583.83 11.39 583.83 12.52 584.25 12.52 584.25 13.87 580.83 11.47 580.83 11.47 580.83 11.47 572.03 17.61 572.95 18.93 580.83 13.44 588.71 18.93 589.63 17.61 586.54 15.46"/><rect class="cls-100" x="584.15" y="20.06" width="1.78" height="3.54"/><rect class="cls-100" x="582" y="20.06" width="1.78" height="3.54"/></g></g></g><g id="Layer_8" data-name="Layer 8"><g class="cls-101"><polygon class="cls-20" points="473.62 14.58 478.11 17.17 483.51 14.05 479.02 11.46 473.62 14.58"/><polygon class="cls-20" points="473.62 55.39 478.11 57.98 483.51 54.86 479.02 52.27 473.62 55.39"/><polygon class="cls-21" points="473.62 36.78 478.11 39.38 478.11 17.17 473.62 14.58 473.62 36.78"/><polygon class="cls-21" points="473.62 77.6 478.11 80.19 478.11 57.98 473.62 55.39 473.62 77.6"/><path class="cls-22" d="M492.85,79.28V38.47c0-6.13-5.69-14.39-11-17.46l5.4-3.12c5.31,3.07,11,11.33,11,17.46V76.16a6.16,6.16,0,0,1-2.08,5l-5.68,3.31a6,6,0,0,0,2.36-5.2" transform="translate(-3.74 -3.84)"/><path class="cls-22" d="M481.85,61.82h0l5.4-3.12.1.06V66.7a21.62,21.62,0,0,0-5.5-4.88" transform="translate(-3.74 -3.84)"/><path class="cls-23" d="M481.85,61.82a21.62,21.62,0,0,1,5.5,4.88v-22a10.13,10.13,0,0,1-5.5-1.47V21c5.31,3.07,11,11.33,11,17.46V79.28a6,6,0,0,1-2.36,5.2,6.28,6.28,0,0,1-.76.44l-.13.06c-2.12.94-5,.65-7.75-1Z" transform="translate(-3.74 -3.84)"/></g></g><g id="Layer_2" data-name="Layer 2"><g class="cls-102"><path class="cls-6" d="M456,161.8l-40.85-23.58c-4.6-2.66-8.34-9.8-8.34-15.94V13.5c0-3.12-2.57-3.81-1-4.94.06,0,3.65-1.67,3.71-1.69a6,6,0,0,1,5.64.33L456,30.78c4.61,2.66,8.34,9.79,8.34,15.94V155.5c0,3.26-1,5.59-2.73,6.65-.1.07-4.42,2.12-4.53,2.16-1.49.5.93-1.34-1.08-2.51" transform="translate(-3.74 -3.84)"/><path class="cls-5" d="M452.1,163.65l-40.85-23.58c-4.6-2.66-8.34-9.8-8.34-15.94V15.35c0-6.15,3.74-9,8.34-6.31L452.1,32.62c4.61,2.66,8.34,9.8,8.34,15.94V157.34c0,6.14-3.73,9-8.34,6.31" transform="translate(-3.74 -3.84)"/><path class="cls-7" d="M405.67,125.51V17.15c0-4.51,2.75-6.58,6.13-4.63l39.76,23c3.38,2,6.12,7.19,6.12,11.7V155.54c0,4.51-2.74,6.58-6.12,4.63l-39.76-23c-3.38-2-6.13-7.19-6.13-11.7" transform="translate(-3.74 -3.84)"/><path class="cls-98" d="M462.31,74.57c-.36,0-.49-.45-.49-.84V66.39a2.81,2.81,0,0,1,1.13-2.2.76.76,0,0,1,.37-.12c.37,0,.49.46.49.85v7.34a2.83,2.83,0,0,1-1.13,2.2.82.82,0,0,1-.37.11" transform="translate(-3.74 -3.84)"/></g></g><g id="Layer_3" data-name="Layer 3"><polygon class="cls-5" points="294.08 133.73 236.1 100.25 334.8 43.27 392.78 76.75 294.08 133.73"/><path d="M331.26,36.57V68.14a.79.79,0,0,0,.39.68l.74.43a1,1,0,0,0,.41.12.9.9,0,0,0,.41-.12l.61-.35a1.07,1.07,0,0,0,.52-.91V36.57Z" transform="translate(-3.74 -3.84)"/><path class="cls-6" d="M332.79,6c-7.51,0-11.93,36.64-12,36.83a1.09,1.09,0,0,1,0,.18v.27c.05,1.73,1.22,3.44,3.5,4.76,4.68,2.7,12.25,2.7,16.93,0,2.28-1.32,3.44-3,3.5-4.76v-.12h0c0-.38-4.45-37.16-12-37.16" transform="translate(-3.74 -3.84)"/><path class="cls-98" d="M341.26,48c2.28-1.32,3.45-3,3.5-4.76v-.12h0c0-.29-2.56-21.55-7.09-31.78h-.08c-7.52,0-11.94,36.64-12,36.83a1.21,1.21,0,0,1,0,.19v.29c4.69,2,11.37,1.83,15.64-.64" transform="translate(-3.74 -3.84)"/><g class="cls-103"><g class="cls-104"><path class="cls-105" d="M359.67,63.13c-4.73-2.73-12.4-2.73-17.13,0a6.75,6.75,0,0,0-3.4,3.89h-6.75v2.23h6.78A6.83,6.83,0,0,0,342.54,73c4.73,2.73,12.4,2.73,17.13,0s4.73-7.16,0-9.89" transform="translate(-3.74 -3.84)"/></g></g><path d="M265.59,92.78h-2V103.4a1,1,0,0,0,.51.88l1,.56a1.06,1.06,0,0,0,.53.16,1.11,1.11,0,0,0,.54-.16l.79-.46a1.36,1.36,0,0,0,.68-1.18V92.78Z" transform="translate(-3.74 -3.84)"/><path class="cls-6" d="M265.58,82.43c-5,0-7.9,10.17-7.91,10.3a.49.49,0,0,0,0,.12V93A4,4,0,0,0,260,96.19a12.43,12.43,0,0,0,11.21,0A4,4,0,0,0,273.51,93V93h0c0-.25-2.95-10.52-7.93-10.52" transform="translate(-3.74 -3.84)"/><path class="cls-98" d="M271.09,96.19A4,4,0,0,0,273.41,93V93h0a26.31,26.31,0,0,0-2.72-6.46,4.19,4.19,0,0,0-2.48-.88c-5,0-7.9,10.17-7.91,10.3a.49.49,0,0,0,0,.12v.18c0,.07,0,.13,0,.2a12.51,12.51,0,0,0,10.79-.22" transform="translate(-3.74 -3.84)"/><g class="cls-103"><g class="cls-106"><path class="cls-105" d="M276.76,106.58a12.07,12.07,0,0,1-10.92,0c-3-1.74-3-4.56,0-6.3a12.07,12.07,0,0,1,10.92,0c3,1.74,3,4.56,0,6.3" transform="translate(-3.74 -3.84)"/></g></g><path d="M312.86,103.81h-2v10.62a1,1,0,0,0,.51.88l1,.56a1.06,1.06,0,0,0,.53.16,1.11,1.11,0,0,0,.54-.16l.79-.46a1.36,1.36,0,0,0,.68-1.18V103.81Z" transform="translate(-3.74 -3.84)"/><path class="cls-6" d="M312.86,93.46c-5,0-7.91,10.17-7.92,10.3a.49.49,0,0,0,0,.12v.18a4,4,0,0,0,2.32,3.15,12.37,12.37,0,0,0,11.21,0,4,4,0,0,0,2.32-3.15V104h0c0-.25-2.94-10.52-7.92-10.52" transform="translate(-3.74 -3.84)"/><path class="cls-98" d="M318.36,107.21a4,4,0,0,0,2.32-3.15V104h0A26.15,26.15,0,0,0,318,97.52a4.19,4.19,0,0,0-2.48-.88c-5,0-7.9,10.17-7.91,10.3a.49.49,0,0,0,0,.12v.18c0,.06,0,.13,0,.2a12.51,12.51,0,0,0,10.79-.23" transform="translate(-3.74 -3.84)"/><g class="cls-103"><g class="cls-107"><path class="cls-105" d="M324,117.61a12.07,12.07,0,0,1-10.92,0c-3-1.74-3-4.56,0-6.3a12.07,12.07,0,0,1,10.92,0c3,1.74,3,4.56,0,6.3" transform="translate(-3.74 -3.84)"/></g></g><path d="M352.25,79.54h-2V90.16a1,1,0,0,0,.51.89l1,.56a1,1,0,0,0,1.07,0l.79-.46a1.39,1.39,0,0,0,.69-1.18V79.54Z" transform="translate(-3.74 -3.84)"/><path class="cls-6" d="M352.25,69.19c-5,0-7.91,10.18-7.92,10.3a.57.57,0,0,1,0,.13v.17A4,4,0,0,0,346.64,83a12.37,12.37,0,0,0,11.21,0,4,4,0,0,0,2.32-3.16v-.08h0c0-.25-2.94-10.52-7.92-10.52" transform="translate(-3.74 -3.84)"/><path class="cls-98" d="M357.75,83a4,4,0,0,0,2.32-3.16v-.08h0a26.31,26.31,0,0,0-2.72-6.46,4.23,4.23,0,0,0-2.47-.88c-5,0-7.91,10.18-7.92,10.3a.62.62,0,0,0,0,.13V83a1.23,1.23,0,0,0,0,.2A12.46,12.46,0,0,0,357.75,83" transform="translate(-3.74 -3.84)"/><g class="cls-103"><g class="cls-108"><path class="cls-105" d="M363.42,93.35a12.07,12.07,0,0,1-10.92,0c-3-1.74-3-4.57,0-6.31a12.07,12.07,0,0,1,10.92,0c3,1.74,3,4.57,0,6.31" transform="translate(-3.74 -3.84)"/></g></g><path d="M308.09,63.54h-3v16a1.55,1.55,0,0,0,.77,1.34l1.47.85a1.73,1.73,0,0,0,.8.23,1.75,1.75,0,0,0,.81-.24l1.2-.69a2.06,2.06,0,0,0,1-1.79V63.54Z" transform="translate(-3.74 -3.84)"/><path class="cls-6" d="M319.91,50c0,13.58-5.29,21.17-11.82,21.17S296.28,63.37,296.28,50s5.29-21.16,11.81-21.16S319.91,36.38,319.91,50" transform="translate(-3.74 -3.84)"/><path class="cls-98" d="M319.91,50c0-7.36-1.56-13-4-16.55-.3,0-.61,0-.92,0-6.53,0-11.82,7.75-11.82,21.17,0,7.31,1.58,12.94,4.07,16.55a8.46,8.46,0,0,0,.87,0c6.53,0,11.82-7.59,11.82-21.17" transform="translate(-3.74 -3.84)"/><g class="cls-103"><g class="cls-109"><path class="cls-105" d="M324.66,84.38c-4.73,2.73-12.4,2.73-17.13,0s-4.73-7.16,0-9.89,12.4-2.73,17.13,0,4.73,7.16,0,9.89" transform="translate(-3.74 -3.84)"/></g></g></g><g id="Layer_4" data-name="Layer 4"><polygon class="cls-5" points="168.51 119.71 226.5 86.23 127.8 29.25 69.81 62.73 168.51 119.71"/><path d="M156.84,53.47h-3v16a1.52,1.52,0,0,0,.77,1.33l1.46.85a1.74,1.74,0,0,0,.81.23,1.68,1.68,0,0,0,.8-.23l1.2-.7a2.05,2.05,0,0,0,1-1.78V53.47Z" transform="translate(-3.74 -3.84)"/><path class="cls-6" d="M168.66,39.89c0,13.58-5.29,21.16-11.82,21.16S145,53.3,145,39.89s5.29-21.17,11.82-21.17,11.82,7.59,11.82,21.17" transform="translate(-3.74 -3.84)"/><path class="cls-98" d="M168.66,39.89c0-7.37-1.56-13-4-16.55a7,7,0,0,0-.91-.06c-6.53,0-11.82,7.76-11.82,21.17,0,7.31,1.57,12.94,4.06,16.55a8.49,8.49,0,0,0,.88,0c6.53,0,11.82-7.58,11.82-21.16" transform="translate(-3.74 -3.84)"/><g class="cls-103"><g class="cls-110"><path class="cls-105" d="M173.41,74.31c-4.73,2.73-12.4,2.73-17.14,0s-4.73-7.16,0-9.89,12.4-2.74,17.14,0,4.73,7.16,0,9.89" transform="translate(-3.74 -3.84)"/></g></g><path d="M174.69,78.47h-2V89.09a1,1,0,0,0,.51.89l1,.56a1.21,1.21,0,0,0,.54.15,1.06,1.06,0,0,0,.53-.16l.8-.45a1.39,1.39,0,0,0,.68-1.19V78.47Z" transform="translate(-3.74 -3.84)"/><path d="M106.76,44.32h-2v22.2a1,1,0,0,0,.51.89l1,.56a1.2,1.2,0,0,0,.53.15,1.07,1.07,0,0,0,.54-.16l.79-.45a1.37,1.37,0,0,0,.69-1.19v-22Z" transform="translate(-3.74 -3.84)"/><path class="cls-6" d="M174.68,68.12c-5,0-7.91,10.17-7.92,10.3v.12s0,.07,0,.1a.54.54,0,0,0,0,.08,4,4,0,0,0,2.32,3.16,12.43,12.43,0,0,0,11.21,0,4,4,0,0,0,2.32-3.16v-.08h0c0-.25-3-10.52-7.93-10.52" transform="translate(-3.74 -3.84)"/><path class="cls-98" d="M180.19,81.88a4,4,0,0,0,2.32-3.16v-.08h0a26.76,26.76,0,0,0-2.72-6.46,4.21,4.21,0,0,0-2.48-.88c-5,0-7.91,10.17-7.92,10.3v.12s0,.07,0,.1a.54.54,0,0,0,0,.08,1.34,1.34,0,0,0,0,.2,12.51,12.51,0,0,0,10.79-.22" transform="translate(-3.74 -3.84)"/><g class="cls-103"><g class="cls-111"><path class="cls-105" d="M185.85,92.28a12.07,12.07,0,0,1-10.92,0c-3-1.75-3-4.57,0-6.31a12.07,12.07,0,0,1,10.92,0c3,1.74,3,4.56,0,6.31" transform="translate(-3.74 -3.84)"/></g></g><path class="cls-6" d="M106.76,4.67c-7.51,0-11.93,36.64-12,36.83a1.09,1.09,0,0,1,0,.18V42c0,1.73,1.22,3.44,3.5,4.76,4.68,2.7,12.25,2.7,16.93,0,2.28-1.32,3.44-3,3.5-4.76v-.12h0c0-.38-4.45-37.16-12-37.16" transform="translate(-3.74 -3.84)"/><path class="cls-98" d="M115.23,46.71c2.28-1.32,3.44-3,3.5-4.76v-.12h0c0-.29-2.56-21.55-7.09-31.78h-.09c-7.51,0-11.93,36.64-12,36.83a1.21,1.21,0,0,1,0,.19v.29c4.69,2,11.37,1.83,15.64-.64" transform="translate(-3.74 -3.84)"/><g class="cls-103"><g class="cls-112"><path class="cls-105" d="M133.64,61.83c-4.73-2.73-12.4-2.73-17.13,0a6.75,6.75,0,0,0-3.4,3.89h-6.75V68h6.78a6.83,6.83,0,0,0,3.37,3.77c4.73,2.73,12.4,2.73,17.13,0s4.73-7.16,0-9.89" transform="translate(-3.74 -3.84)"/></g></g></g><g id="Layer_5" data-name="Layer 5"><g class="cls-113"><path class="cls-5" d="M29.13,13.65c-3.12,3.1-7.64,5.17-11.55,7.09-4.74,2.33-9.11,5.36-13.84,7.7,1.75,1.11,3.41,2.35,5.2,3.38a15.38,15.38,0,0,1,3.57,1.87c.64.43,1.12.77,1.46,1a9.84,9.84,0,0,1,2.59,1.61L44.83,20c-3.17-1.39-6.29-3.14-9.33-4.48A57.65,57.65,0,0,1,30,12.66a7.86,7.86,0,0,1-.84,1" transform="translate(-3.74 -3.84)"/><path class="cls-5" d="M23.23,39.88c4.87,2.82,9.85,5.34,14.46,8.54A17,17,0,0,0,40.52,47c6.07-3.67,12.15-7.26,18.31-10.79,2.11-1.21,4.08-2.44,6.08-3.47A107.77,107.77,0,0,1,44.77,20L16.54,36.34a69.75,69.75,0,0,1,6.69,3.54" transform="translate(-3.74 -3.84)"/></g><g class="cls-114"><path d="M22.41,14.19h-2V24.81a1,1,0,0,0,.51.89l1,.56a1.2,1.2,0,0,0,.53.15,1.11,1.11,0,0,0,.54-.16l.79-.45a1.39,1.39,0,0,0,.68-1.19V14.19Z" transform="translate(-3.74 -3.84)"/><path class="cls-6" d="M22.41,3.84c-5,0-7.91,10.18-7.92,10.3a.53.53,0,0,0,0,.13v.17A4,4,0,0,0,16.8,17.6,12.43,12.43,0,0,0,28,17.6a4,4,0,0,0,2.32-3.16v-.08h0c0-.25-2.94-10.52-7.92-10.52" transform="translate(-3.74 -3.84)"/><path class="cls-98" d="M27.91,17.6a4,4,0,0,0,2.32-3.16v-.08h0A26.31,26.31,0,0,0,27.51,7.9,4.25,4.25,0,0,0,25,7c-5,0-7.91,10.18-7.92,10.3a.53.53,0,0,0,0,.13v.17a1.36,1.36,0,0,0,0,.2,12.46,12.46,0,0,0,10.78-.22" transform="translate(-3.74 -3.84)"/><g class="cls-103"><g class="cls-115"><path class="cls-105" d="M33.58,28a12.07,12.07,0,0,1-10.92,0c-3-1.75-3-4.57,0-6.31a12.07,12.07,0,0,1,10.92,0c3,1.74,3,4.56,0,6.31" transform="translate(-3.74 -3.84)"/></g></g></g></g></g></svg>