<svg id="Layer_1" data-name="Layer 1" xmlns="http://www.w3.org/2000/svg" viewBox="0 0 495.2 287.4"><defs><style>.cls-1{fill:#112d70;}.cls-2{fill:#e9993e;}.cls-3{fill:#86b1f2;}.cls-4{fill:#9bc1f9;}.cls-5{fill:#4779f6;}.cls-6{fill:#072bdb;}.cls-7{fill:#0024a8;}.cls-8{fill:#054ddd;}.cls-9{fill:#130751;}.cls-10{fill:#b6ceff;}.cls-11{fill:#e8993d;}.cls-12{opacity:0.3;}.cls-13{fill:#ececec;}.cls-14{fill:#1a2e35;}.cls-15,.cls-17{fill:#fff;}.cls-16{fill:#005944;}.cls-16,.cls-17{fill-rule:evenodd;}.cls-18{isolation:isolate;font-size:7.84px;font-family:ArialMT, Arial;}.cls-19{fill:none;stroke:#000;stroke-miterlimit:10;}.cls-20{fill:#efefef;}.cls-21{fill:#d45000;}</style></defs><title>pt1</title><rect class="cls-1" x="341.2" y="91.4" width="133.4" height="20"/><path class="cls-2" d="M392.2,138.1h-9v38H525.6v-9H392.2v-20H525.6v-9Z" transform="translate(-51 -55.7)"/><path class="cls-3" d="M523.5,178h22.7V133H523.5a10.61,10.61,0,0,0-10.6,10.6v23.7A10.63,10.63,0,0,0,523.5,178Z" transform="translate(-51 -55.7)"/><path class="cls-4" d="M541,130.9h3.3a1.9,1.9,0,0,1,1.9,1.9V179a1.9,1.9,0,0,1-1.9,1.9H541a1.9,1.9,0,0,1-1.9-1.9V132.8A1.9,1.9,0,0,1,541,130.9Z" transform="translate(-51 -55.7)"/><rect class="cls-5" y="271.9" width="414.9" height="15.5"/><polygon class="cls-6" points="362.2 216.8 52.7 216.8 0 271.9 414.9 271.9 362.2 216.8"/><ellipse class="cls-7" cx="205.6" cy="245.4" rx="153.1" ry="14.3"/><polygon class="cls-8" points="174.9 195.1 168.3 240.9 246.7 240.9 239.2 195.1 174.9 195.1"/><rect class="cls-8" x="141.1" y="247.5" width="132.8" height="3.3"/><polygon class="cls-5" points="168.3 240.9 141.1 247.5 273.9 247.5 246.7 240.9 168.3 240.9"/><path class="cls-9" d="M411.6,227.2H105.3V68.4A12.72,12.72,0,0,1,118,55.7H398.9a12.72,12.72,0,0,1,12.7,12.7Z" transform="translate(-51 -55.7)"/><path class="cls-5" d="M399,256.6H118A12.61,12.61,0,0,1,105.4,244V227.3H411.7V244A12.83,12.83,0,0,1,399,256.6Z" transform="translate(-51 -55.7)"/><rect class="cls-10" x="65.6" y="9.9" width="283.7" height="151"/><path class="cls-9" d="M264.4,240.7a6,6,0,1,1-6-6A6,6,0,0,1,264.4,240.7Z" transform="translate(-51 -55.7)"/><path class="cls-11" d="M285.9,87.3l19.5-.8a6.38,6.38,0,0,1,6.6,6.2l.7,30.1a6.25,6.25,0,0,1-5.7,6.4h0a2.17,2.17,0,0,0-1.9,2.2l2.4,63.5a7.9,7.9,0,0,1-7.5,8.2l-74.4,3.3a2.06,2.06,0,0,1-2.2-2L220.2,94a2.17,2.17,0,0,1,1.9-2.2Z" transform="translate(-51 -55.7)"/><path d="M285.9,87.9c4-.2,8-.3,12-.5l6.6-.3c2.5-.1,4.9.5,6.2,2.9a9.08,9.08,0,0,1,.7,4.3c0,2,.1,4,.1,6,.1,5.3.2,10.7.4,16,0,1.9.1,3.8.1,5.7a13.4,13.4,0,0,1-.1,2,5.64,5.64,0,0,1-4.9,4.4.58.58,0,0,0-.6.6h0c.2-.2.3-.4.5-.6-2.3.4-2.3,2.3-2.3,4.1.1,2,.2,3.9.2,5.9.3,6.8.5,13.6.8,20.4l.9,22.5c.2,4.3.3,8.6.5,12.9.1,3.6-1.9,6.9-5.5,7.8a18.7,18.7,0,0,1-3.4.3c-4.9.2-9.9.4-14.8.7-7.5.3-15,.7-22.5,1-7.2.3-14.4.6-21.7,1l-12.6.6c-1.1,0-2.2-.1-2.3-1.6a22.6,22.6,0,0,1-.1-2.6c-.1-4.3-.3-8.5-.4-12.8l-.6-19.8c-.2-7.7-.5-15.5-.7-23.2-.2-7.5-.5-15.1-.7-22.6-.2-6-.4-12.1-.5-18.1-.1-3.3-.2-6.7-.3-10,0-1.1,0-2.2,1.4-2.4a20,20,0,0,1,3.5-.2c6-.4,12-.9,17.9-1.3,7.7-.5,15.3-1.1,23-1.6l16.8-1.2a17.48,17.48,0,0,1,2.4-.3c.8-.1.8-1.3,0-1.2-3.3.2-6.6.5-9.8.7-7.2.5-14.5,1-21.7,1.6s-14.6,1-21.9,1.6c-3.4.2-6.9.4-10.3.7-1.9.2-2.6,1.8-2.6,3.4,0,1.2.1,2.4.1,3.6.1,4.9.3,9.7.4,14.6l.6,21c.2,7.9.5,15.7.7,23.6.2,7.4.4,14.8.7,22.2.2,5.6.3,11.3.5,16.9.1,2.5.1,5.1.2,7.6a2.82,2.82,0,0,0,3.2,2.7c1.4-.1,2.8-.1,4.2-.2,6-.3,11.9-.5,17.9-.8,7.8-.3,15.6-.7,23.3-1l20.2-.9c3-.1,6-.1,9-.4a8.6,8.6,0,0,0,7.5-8.8c0-1.2-.1-2.4-.1-3.5-.2-6.1-.5-12.2-.7-18.3-.3-7.7-.6-15.5-.9-23.2-.2-5.4-.4-10.9-.6-16.3-.1-1.3-.5-3.2,1.3-3.5a.56.56,0,0,0,.5-.6h0l-.6.6a7.14,7.14,0,0,0,6.3-7.1c0-1.2-.1-2.3-.1-3.5-.1-5.4-.2-10.9-.4-16.3-.1-3.5,0-7-.2-10.5a7,7,0,0,0-7.2-6.5c-1.5,0-3,.1-4.6.2l-14.9.6C285.1,86.7,285.1,88,285.9,87.9Z" transform="translate(-51 -55.7)"/><g class="cls-12"><path d="M223.4,202.1l.1,2.1,80-7.4L302,86.6s-19.4,2.9-19.8,2.9S223.4,202.1,223.4,202.1Z" transform="translate(-51 -55.7)"/></g><polygon class="cls-13" points="224.8 25.7 248 24.3 250.4 138.5 168.6 146.8 156.6 33.2 224.8 25.7"/><path d="M275.8,82l20.3-1.2c1-.1,1.9-.1,2.9-.2l-.6-.6c.1,3.8.2,7.6.2,11.4l.6,27.3c.2,11,.5,22,.7,33l.6,28.5c.1,3.1.1,6.3.2,9.4a28.1,28.1,0,0,0,.1,2.9,7.5,7.5,0,0,0,0,1.5v.2l.6-.6c-2.7.3-5.4.6-8.2.8-6.5.7-13,1.3-19.5,2L250,198.8l-20.4,2.1c-2.3.2-4.5.5-6.8.7-.7.1-1.4.1-2.1.2a4.1,4.1,0,0,0-1.1.1h-.1l.6.6c-.4-3.8-.8-7.5-1.2-11.3-1-9-1.9-18.1-2.9-27.1-1.2-10.9-2.3-21.9-3.5-32.8-1-9.5-2-18.9-3-28.4-.3-3.1-.7-6.2-1-9.4-.1-1-.2-1.9-.3-2.9a3.64,3.64,0,0,0-.2-1.5v-.2l-.6.6c7.7-.8,15.4-1.7,23.1-2.5,12.2-1.3,24.4-2.7,36.6-4,3.1-.4,5.9-.7,8.7-1,.8-.1.8-1.3,0-1.2-7.7.8-15.4,1.7-23.1,2.5-12.2,1.3-24.4,2.7-36.6,4l-8.4.9c-.3,0-.7.3-.6.6.4,3.8.8,7.5,1.2,11.3,1,9,1.9,18.1,2.9,27.1,1.2,10.9,2.3,21.9,3.5,32.8,1,9.5,2,18.9,3,28.4.5,4.6.8,9.2,1.5,13.8v.2c0,.3.3.7.6.6,2.7-.3,5.4-.6,8.2-.8,6.5-.7,13-1.3,19.5-2l23.7-2.4,20.4-2.1c3.3-.3,6.7-.5,10-1h.1a.65.65,0,0,0,.6-.6c-.1-3.8-.2-7.6-.2-11.4l-.6-27.3c-.2-11-.5-22-.7-33l-.6-28.5c-.1-3.1-.1-6.3-.2-9.4,0-1.5,0-3-.1-4.5v-.2a.65.65,0,0,0-.6-.6L279,80.4c-1,.1-1.9.1-2.9.2S275,82,275.8,82Z" transform="translate(-51 -55.7)"/><path class="cls-14" d="M275.8,81.4a5.5,5.5,0,0,1-1.2.1c-.8.1-2,.2-3.5.4-3.1.3-7.7.9-13.6,1.5-11.8,1.3-28.8,3.2-49.8,5.5l.1-.1c3.2,30.5,7.4,70,12.1,113.7l-.1-.1c5.8-.6,12-1.2,18.3-1.9,22.2-2.3,43.6-4.4,63.4-6.4l-.1.1c-1-50-1.9-90.9-2.3-114.3h.1c-7.6.5-13.4.8-17.3,1-2,.1-3.4.2-4.4.3a12,12,0,0,1-1.7.2s.5,0,1.5-.1,2.5-.2,4.4-.3c3.9-.2,9.7-.6,17.3-1.1h.1V80c.5,23.3,1.4,64.3,2.4,114.3v.1h-.1c-19.8,2-41.2,4.2-63.4,6.4-6.3.6-12.5,1.3-18.3,1.9h-.1v-.1c-4.6-43.7-8.8-83.2-12-113.7v-.1h.1c21-2.3,38.1-4.1,49.9-5.4,5.9-.6,10.5-1.1,13.6-1.5,1.6-.2,2.7-.3,3.5-.4A8.66,8.66,0,0,1,275.8,81.4Z" transform="translate(-51 -55.7)"/><polygon class="cls-15" points="152.5 29.4 163.6 144.4 249.2 136.3 236.9 21.4 152.5 29.4"/><path d="M202.9,85.1c.4,3.8.7,7.6,1.1,11.5.9,9.2,1.8,18.4,2.6,27.5,1.1,11,2.1,22.1,3.2,33.1.9,9.6,1.8,19.2,2.8,28.8.4,4.6.7,9.3,1.3,14v.2a.65.65,0,0,0,.6.6c2.8-.3,5.7-.5,8.5-.8,6.8-.6,13.6-1.3,20.4-1.9,8.3-.8,16.5-1.6,24.8-2.3,7.1-.7,14.2-1.3,21.3-2,3.5-.3,7-.5,10.4-1h.1c.3,0,.7-.3.6-.6l-1.2-11.4c-1-9.2-2-18.3-3-27.5-1.2-11.1-2.4-22.1-3.6-33.2-1-9.6-2.1-19.1-3.1-28.7-.5-4.6-.9-9.3-1.5-13.9v-.2c0-.3-.3-.7-.6-.6-2.8.3-5.6.5-8.4.8-6.7.6-13.4,1.3-20.1,1.9-8.1.8-16.3,1.5-24.4,2.3-7,.7-14,1.3-21,2-3.4.3-6.9.5-10.3,1h-.1c-.8.1-.8,1.3,0,1.2,2.8-.3,5.6-.5,8.4-.8,6.7-.6,13.4-1.3,20.1-1.9,8.1-.8,16.3-1.5,24.4-2.3,7-.7,14-1.3,21-2,2.3-.2,4.6-.4,7-.7.7-.1,1.5-.1,2.2-.2a4.1,4.1,0,0,0,1.1-.1h.1l-.6-.6,1.2,11.4c1,9.2,2,18.3,3,27.5,1.2,11.1,2.4,22.1,3.6,33.2,1,9.6,2.1,19.1,3.1,28.7.3,3.1.7,6.3,1,9.4l.3,3a6.8,6.8,0,0,0,.2,1.5v.2l.6-.6c-2.8.3-5.7.5-8.5.8-6.8.6-13.6,1.3-20.4,1.9-8.3.8-16.5,1.6-24.8,2.3-7.1.7-14.2,1.3-21.3,2-2.4.2-4.7.4-7.1.7-.7.1-1.5.1-2.2.2a5.28,5.28,0,0,0-1.2.1h-.1l.6.6c-.4-3.8-.7-7.6-1.1-11.5-.9-9.2-1.8-18.4-2.6-27.5-1.1-11-2.1-22.1-3.2-33.1-.9-9.6-1.8-19.2-2.8-28.8-.4-4.6-.7-9.3-1.3-14v-.2A.55.55,0,1,0,202.9,85.1Z" transform="translate(-51 -55.7)"/><path class="cls-14" d="M203.5,85.1c.7-.1,33.2-3.2,84.3-8.1h.1v.1c3.5,32.3,7.7,72,12.4,114.9v.1h-.1a1.27,1.27,0,0,0-.6.1c-30.5,2.9-59.5,5.6-85,8h-.1v-.1c-6.5-68.1-10.9-114.2-11-115,.1.8,4.6,46.9,11.2,115l-.1-.1c25.6-2.4,54.5-5.1,85-8a1.27,1.27,0,0,0,.6-.1l-.1.1c-4.6-42.9-8.9-82.7-12.3-114.9l.1.1C236.8,82,204.2,85,203.5,85.1Z" transform="translate(-51 -55.7)"/><path class="cls-11" d="M269.5,177.3A11.7,11.7,0,1,1,281.2,189,11.65,11.65,0,0,1,269.5,177.3Zm23.2.1a11.45,11.45,0,1,0-11.5,11.4A11.48,11.48,0,0,0,292.7,177.4Z" transform="translate(-51 -55.7)"/><path class="cls-11" d="M270.9,177.3a10.2,10.2,0,1,1,10.2,10.2A10.12,10.12,0,0,1,270.9,177.3Zm18.8.1a8.7,8.7,0,1,0-8.7,8.7A8.71,8.71,0,0,0,289.7,177.4Z" transform="translate(-51 -55.7)"/><path class="cls-11" d="M273.4,177.5a8.08,8.08,0,0,1,.8-3.4l1.3.7a6.26,6.26,0,0,0-.6,2.7,6,6,0,0,0,6,6,6.2,6.2,0,0,0,3.2-.9l.8,1.3A7.65,7.65,0,0,1,281,185,7.51,7.51,0,0,1,273.4,177.5Z" transform="translate(-51 -55.7)"/><path class="cls-11" d="M277.4,170.8a6.23,6.23,0,0,1,3.5-.8,7.51,7.51,0,0,1,7.5,7.6,7.21,7.21,0,0,1-1.2,4l-1.3-.8a6.2,6.2,0,0,0,.9-3.2,6,6,0,0,0-6-6,5.55,5.55,0,0,0-2.8.7Z" transform="translate(-51 -55.7)"/><path class="cls-16" d="M212.1,96.5a1.24,1.24,0,0,0,1.4,1.1,52.57,52.57,0,0,0,6.7-.7,1.24,1.24,0,0,0,1.1-1.4,60,60,0,0,0-.6-6.1,1.24,1.24,0,0,0-1.4-1.1,49,49,0,0,0-6.7.7,1.24,1.24,0,0,0-1.1,1.4c.1,2,.3,4,.6,6.1Z" transform="translate(-51 -55.7)"/><path class="cls-17" d="M215.9,91.2l1.2-1.1c.7-.6,1.4-1.7,2.3-1.3a1,1,0,0,1,.5.6,7.31,7.31,0,0,1,.2,3.3c-.2,1.5-.3,3.4-1.7,3.9-.1,0-.7.2-.5.1a2.49,2.49,0,0,0,.5-.7,2.74,2.74,0,0,0-1-2.8,5.32,5.32,0,0,0-4.3-.8.76.76,0,0,0-.4.2s-.3-.3-.1-.4.3-.2.3-.2.4.2.5.1.1-.2.2-.2h-.4c.4-.7,1.5-.6,2.3-.7.1,0,.3-.1.1.1s-.8.6-1,.8c.3-.2.8-.5,1.3-.9Z" transform="translate(-51 -55.7)"/><path class="cls-17" d="M214.7,96.6l-.3-.3a6.86,6.86,0,0,1-1.4-3.4,4.14,4.14,0,0,1,1.6-.2c.5.1.5.6.6.6a.71.71,0,0,1,.7-.2c1-.1,1.7.9,2,1.8a1.39,1.39,0,0,1,0,1.1c-.4.8-1.5.8-2.4.9a1.91,1.91,0,0,1-.8-.3Z" transform="translate(-51 -55.7)"/><path class="cls-16" d="M213.6,101.8h.4V98.7l1.2,2.9h.4l.6-3,.5,2.9.7-.1h0l-.7-3.6-.6.1-.6,2.6-.1.3-.1-.2L214.2,98h-.5s0,2.4-.1,3.6v.2Z" transform="translate(-51 -55.7)"/><path class="cls-17" d="M212.4,90.1a.86.86,0,0,1,.3-.6,1,1,0,0,1,.9-.2,7.69,7.69,0,0,1,2.1,1.3c-.8.3-1.6.1-2.3.4-.4.2-.6.5-.7.4a1.26,1.26,0,0,1-.3-1.3Z" transform="translate(-51 -55.7)"/><path class="cls-16" d="M215.1,93.6h0a.82.82,0,0,0,.1.7.37.37,0,0,0,.1.3c0,.1-.1.2-.1.4.1,0,0-.1.1-.2.1-.3.7-.4.9-.5s.2-.2.2-.2l-.1.1c-.1,0-.1,0-.2.1a.6.6,0,0,1-.6-.3.3.3,0,0,1,0-.4c.5-.5,1.3.4,1.5,1.1a.85.85,0,0,1,0,.7c0,.2-.2.3-.3.4s-.4.1-.6,0a.14.14,0,0,0,0-.2c0-.1-.2-.1-.2-.1a.2.2,0,0,0-.2-.2.61.61,0,0,0-.6.1c-.1.2-.1.4.1.5s.4,0,.6,0h.3c.1,0-.2.1-.2.1-.2,0-.4.1-.6,0s.1.3.5.4a3.28,3.28,0,0,0,1,0c.6-.1.8-.9.7-1.5a2.1,2.1,0,0,0-1.3-1.7c-.5,0-1,0-1.1.4Zm2.5,7.1a1.27,1.27,0,0,1-.1.6,2.77,2.77,0,0,0,.9.1c.7-.1,1.3-.5,1.2-1.3a.55.55,0,0,0-.3-.5,2.28,2.28,0,0,0-.7-.3c-.1,0-.2-.1-.3-.1s-.3-.1-.4-.2a.54.54,0,0,1-.3-.4q0-.45.6-.6a.67.67,0,0,1,.7.4h.1a.9.9,0,0,1,.1-.5,1.49,1.49,0,0,0-.9-.2c-.5.1-.9.3-1,.7,0,.1-.1.3,0,.4a.71.71,0,0,0,.3.6,2.12,2.12,0,0,0,.7.3h.2c.2.1.6.2.7.6a.58.58,0,0,1-.6.6c-.3.2-.6,0-.9-.2Z" transform="translate(-51 -55.7)"/><path class="cls-16" d="M219.8,100.5a1.27,1.27,0,0,1-.1.6,2.77,2.77,0,0,0,.9.1c.7-.1,1.3-.5,1.2-1.3a.55.55,0,0,0-.3-.5,2.28,2.28,0,0,0-.7-.3c-.1,0-.2-.1-.3-.1s-.3-.1-.4-.2a.54.54,0,0,1-.3-.4q0-.45.6-.6a.67.67,0,0,1,.7.4h.1a.9.9,0,0,1,.1-.5,1.49,1.49,0,0,0-.9-.2c-.5.1-.9.3-1,.7,0,.1-.1.3,0,.4a.71.71,0,0,0,.3.6,2.12,2.12,0,0,0,.7.3h.2c.2.1.6.2.7.6a.58.58,0,0,1-.6.6.73.73,0,0,1-.9-.2ZM216.9,91l-.1.2a.88.88,0,0,0,.1.7,7.68,7.68,0,0,1,1.7,3.2c.1,0,.1,0,.1-.1v-.6c-.1-1-.9-1.9-1.2-2.8a1.34,1.34,0,0,1,.5-1.4,1.88,1.88,0,0,0-1.1.8Zm-4.2,10.9.6-.1a23.25,23.25,0,0,1-.4-3.7l-.6.1A23.25,23.25,0,0,1,212.7,101.9Z" transform="translate(-51 -55.7)"/><text class="cls-18" transform="matrix(1, -0.09, 0.09, 1, 180.63, 40.8)">SOLICITUD</text><path class="cls-19" d="M269.9,96.1l-35.8,3.4a5.21,5.21,0,0,1-5.7-4.8l-.1-1.1a5.21,5.21,0,0,1,4.8-5.7l35.8-3.4a5.21,5.21,0,0,1,5.7,4.8l.1,1.1A5.27,5.27,0,0,1,269.9,96.1Z" transform="translate(-51 -55.7)"/><path class="cls-20" d="M279.7,160.1l-52.3,5a11.06,11.06,0,0,1-12-9.9L212,119.1a11.06,11.06,0,0,1,9.9-12l52.3-5a11.06,11.06,0,0,1,12,9.9l3.4,36.1A11.06,11.06,0,0,1,279.7,160.1Z" transform="translate(-51 -55.7)"/><path d="M233.2,113.3c14.6-1.4,29.3-2.8,43.9-4.1,1.2-.1,1-2-.2-1.9-14.6,1.4-29.3,2.8-43.9,4.1-1.1.2-1,2,.2,1.9Z" transform="translate(-51 -55.7)"/><path d="M220,121l57.7-5.4c1.2-.1,1-2-.2-1.9l-57.7,5.4c-1.2.1-1,2,.2,1.9Z" transform="translate(-51 -55.7)"/><path d="M220.6,127.3l57.7-5.4c1.2-.1,1-2-.2-1.9l-57.7,5.4a1,1,0,0,0,.2,1.9Z" transform="translate(-51 -55.7)"/><path d="M221.2,133.6l57.7-5.4c1.2-.1,1-2-.2-1.9L221,131.7a1,1,0,0,0,.2,1.9Z" transform="translate(-51 -55.7)"/><path d="M221.7,140l57.7-5.4c1.2-.1,1-2-.2-1.9l-57.7,5.4c-1.1.1-.9,2,.2,1.9Z" transform="translate(-51 -55.7)"/><path d="M222.8,150.8l57.7-5.4c1.2-.1,1-2-.2-1.9l-57.7,5.4a1,1,0,0,0,.2,1.9Z" transform="translate(-51 -55.7)"/><path d="M223.4,157.1l57.7-5.4c1.2-.1,1-2-.2-1.9l-57.7,5.4a1,1,0,0,0,.2,1.9Z" transform="translate(-51 -55.7)"/><path class="cls-21" d="M221.7,185.8c6-.6,12-1.1,18-1.7a22.75,22.75,0,0,1,2.6-.2c.8-.1.8-1.3,0-1.2-6,.6-12,1.1-18,1.7a22.75,22.75,0,0,1-2.6.2c-.8.1-.8,1.3,0,1.2Z" transform="translate(-51 -55.7)"/><path d="M238.8,181.4a5.19,5.19,0,0,1-2.4.5l-.1-.3c-.1-.2-.5-.3-.6,0,0,.1-.1,1-.5.6-.2-.2-.1-.6-.1-.9s0-.7-.3-.9-1-.5-1.2-.1c-.4.6.4,1.4-.2,2.1-.3.4-.9.2-1.3-.1a2.46,2.46,0,0,0-.2-2.2.28.28,0,0,0-.5,0,3,3,0,0,0,0,2.1.76.76,0,0,1-.9.1,3.26,3.26,0,0,0,.2-2.9.31.31,0,0,0-.6,0,3.89,3.89,0,0,0-.7,2.3.91.91,0,0,0,.3.7,2.65,2.65,0,0,1-1.8,1.1v-.1c-.1-.2-.1-.3-.2-.5,0-.4-.1-.8-.1-1.2.1-.1.1-.2.2-.3a8.86,8.86,0,0,0,.8-1.7,12.66,12.66,0,0,0,.6-7.2c-.1-.3-.3-.4-.5-.2a4.44,4.44,0,0,0-1,2.2,30.62,30.62,0,0,0-.5,3.2,24.13,24.13,0,0,0-.1,3.8.1.1,0,0,1-.1.1,1.39,1.39,0,0,0,.2,1.5c0,.3.1.5.1.8a.32.32,0,0,0,.3.3h0a10.46,10.46,0,0,1,.4,1.7,14,14,0,0,1,0,5c-.6-.2-1-3.4-1-3.8-.1-1.1-.2-2.2-.2-3.3a.37.37,0,0,0,.1-.3l-.1-.5c-.1-.3-.5-.2-.6,0a27.73,27.73,0,0,0,.1,4.1l.3,2.1a4.8,4.8,0,0,0,.5,1.7c.3.6,1.3,1,1.5.1a12.31,12.31,0,0,0,.2-3.8,15.94,15.94,0,0,0-.6-3,3.32,3.32,0,0,0,2.1-1.3c.1.1.3.1.4.2a1.68,1.68,0,0,0,1.2-.3l.2.2a1.47,1.47,0,0,0,2.2-.7,3.81,3.81,0,0,0-.1-1.5c.1-.1.2,0,.3,0s.1.6.1.8a1.49,1.49,0,0,0,.2.9.87.87,0,0,0,.9.5c.3,0,.4-.2.5-.5h.2a5.46,5.46,0,0,0,2.8-.6C239.3,181.8,239.1,181.2,238.8,181.4Zm-11.3-3.3a25.12,25.12,0,0,1,.4-2.7,6.64,6.64,0,0,1,.6-2,13.33,13.33,0,0,1-1.1,7.1C227.4,179.6,227.5,178.9,227.5,178.1Zm2.7,2.5a3.4,3.4,0,0,1-.2,1.4A1.7,1.7,0,0,1,230.2,180.6Z" transform="translate(-51 -55.7)"/></svg>