<svg id="Layer_1" data-name="Layer 1" xmlns="http://www.w3.org/2000/svg" viewBox="0 0 51.3 308.7"><defs><style>.cls-1{fill:#112d70;}.cls-2{fill:#e9993e;}.cls-3{fill:#86b1f2;}.cls-4{fill:#9bc1f9;}</style></defs><title>pt11</title><rect class="cls-1" x="15.6" y="15.4" width="20" height="284.7"/><polygon class="cls-2" points="40.1 15.4 35.6 15.4 35.6 300.1 40.1 300.1 44.6 300.1 44.6 15.4 40.1 15.4"/><path class="cls-2" d="M285.4,115.9h-4.5v285a34,34,0,0,1,4.5-.3h4.5V115.9Z" transform="translate(-274.3 -100.5)"/><path class="cls-3" d="M278.5,386.5v22.7h45V386.5a10.61,10.61,0,0,0-10.6-10.6H289.2A10.63,10.63,0,0,0,278.5,386.5Z" transform="translate(-274.3 -100.5)"/><path class="cls-4" d="M325.6,404v3.3a1.9,1.9,0,0,1-1.9,1.9H277.5a1.9,1.9,0,0,1-1.9-1.9V404a1.9,1.9,0,0,1,1.9-1.9h46.2A2,2,0,0,1,325.6,404Z" transform="translate(-274.3 -100.5)"/><path class="cls-3" d="M321.3,123.2V100.5h-45v22.7a10.61,10.61,0,0,0,10.6,10.6h23.7A10.56,10.56,0,0,0,321.3,123.2Z" transform="translate(-274.3 -100.5)"/><path class="cls-4" d="M274.3,105.7v-3.3a1.9,1.9,0,0,1,1.9-1.9h46.2a1.9,1.9,0,0,1,1.9,1.9v3.3a1.9,1.9,0,0,1-1.9,1.9H276.2A1.9,1.9,0,0,1,274.3,105.7Z" transform="translate(-274.3 -100.5)"/></svg>