<svg id="Layer_1" data-name="Layer 1" xmlns="http://www.w3.org/2000/svg" viewBox="0 0 161.1 50"><defs><style>.cls-1{fill:#112d70;}.cls-2{fill:#e9993e;}.cls-3{fill:#86b1f2;}.cls-4{fill:#9bc1f9;}</style></defs><title>pt5</title><rect class="cls-1" x="14.2" y="15.4" width="121.4" height="20"/><polygon class="cls-2" points="14.2 6.4 14.2 10.9 14.2 15.4 135.6 15.4 135.6 10.9 135.6 6.4 14.2 6.4"/><path class="cls-2" d="M341.2,194.2v-5H219.8v5c0,1.4-.1,2.7-.2,4H341.4C341.3,196.9,341.2,195.6,341.2,194.2Z" transform="translate(-205.6 -153.9)"/><path class="cls-3" d="M228.4,156.8H205.7v45h22.7A10.61,10.61,0,0,0,239,191.2V167.5A10.69,10.69,0,0,0,228.4,156.8Z" transform="translate(-205.6 -153.9)"/><path class="cls-4" d="M210.8,203.9h-3.3a1.9,1.9,0,0,1-1.9-1.9V155.8a1.9,1.9,0,0,1,1.9-1.9h3.3a1.9,1.9,0,0,1,1.9,1.9V202A1.84,1.84,0,0,1,210.8,203.9Z" transform="translate(-205.6 -153.9)"/><path class="cls-3" d="M344,201h22.7V156H344a10.61,10.61,0,0,0-10.6,10.6v23.7A10.56,10.56,0,0,0,344,201Z" transform="translate(-205.6 -153.9)"/><path class="cls-4" d="M361.5,153.9h3.3a1.9,1.9,0,0,1,1.9,1.9V202a1.9,1.9,0,0,1-1.9,1.9h-3.3a1.9,1.9,0,0,1-1.9-1.9V155.8A1.9,1.9,0,0,1,361.5,153.9Z" transform="translate(-205.6 -153.9)"/></svg>