<svg id="Layer_1" data-name="Layer 1" xmlns="http://www.w3.org/2000/svg" viewBox="0 0 50 408.6"><defs><style>.cls-1{fill:#112d70;}.cls-2{fill:#e9993e;}.cls-3{fill:#86b1f2;}.cls-4{fill:#9bc1f9;}</style></defs><title>pt7</title><rect class="cls-1" x="14.4" y="14.9" width="20" height="374.3"/><polygon class="cls-2" points="9.9 14.9 5.4 14.9 5.4 389.1 9.9 389.1 14.4 389.1 14.4 14.9 9.9 14.9"/><polygon class="cls-2" points="38.9 14.9 34.4 14.9 34.4 389.1 38.9 389.1 43.4 389.1 43.4 14.9 38.9 14.9"/><path class="cls-3" d="M278.9,432.2v22.7h45V432.2a10.61,10.61,0,0,0-10.6-10.6H289.6A10.5,10.5,0,0,0,278.9,432.2Z" transform="translate(-275.9 -46.3)"/><path class="cls-4" d="M325.9,449.7V453a1.9,1.9,0,0,1-1.9,1.9H277.8a1.9,1.9,0,0,1-1.9-1.9v-3.3a1.9,1.9,0,0,1,1.9-1.9H324A1.84,1.84,0,0,1,325.9,449.7Z" transform="translate(-275.9 -46.3)"/><path class="cls-3" d="M323,69.1V46.3H278V69a10.61,10.61,0,0,0,10.6,10.6h23.7A10.48,10.48,0,0,0,323,69.1Z" transform="translate(-275.9 -46.3)"/><path class="cls-4" d="M275.9,51.5V48.2a1.9,1.9,0,0,1,1.9-1.9H324a1.9,1.9,0,0,1,1.9,1.9v3.3a1.9,1.9,0,0,1-1.9,1.9H277.8A1.9,1.9,0,0,1,275.9,51.5Z" transform="translate(-275.9 -46.3)"/></svg>