<svg id="market" xmlns="http://www.w3.org/2000/svg" viewBox="0 0 116.98 116"><defs><style>.cls-1{fill:#092c74;}.cls-1,.cls-3,.cls-4{fill-rule:evenodd;}.cls-2{fill:#2897ea;}.cls-3{fill:#f7f7f7;}.cls-4{fill:#e8993d;}</style></defs><title>clock2</title><path class="cls-1" d="M108,31.1A49.8,49.8,0,0,0,70.3,14.3c-29.4,0-54.6,23.8-56.4,53.1A49.74,49.74,0,0,0,34,111a49.8,49.8,0,0,0,37.7,16.8c29.4,0,54.6-23.8,56.4-53.1C129.1,56.7,121.1,40.7,108,31.1Z" transform="translate(-11.2 -11.8)"/><ellipse class="cls-2" cx="67" cy="67.52" rx="49.4" ry="46.5" transform="translate(-39.31 53.91) rotate(-44.13)"/><path class="cls-3" d="M115,66.2a6.6,6.6,0,0,1-.1,1.4c-1.6,25.9-23.5,47-49.2,47.9-24.1-.8-42.2-20.6-40.8-45,1.5-24.9,22.9-45,47.7-45A41.69,41.69,0,0,1,115,66.2Z" transform="translate(-11.2 -11.8)"/><path class="cls-4" d="M59.6,110.4l.8-5.6,2.5.3-.8,5.6-2.5-.3Zm50.3-35.5-5.6-.8.3-2.5,5.6.8-.3,2.5ZM74.4,24.7l-.8,5.6L71.2,30l.8-5.6,2.4.3ZM24.2,60.1l5.6.8-.3,2.5-5.6-.8Z" transform="translate(-11.2 -11.8)"/><path class="cls-4" d="M31.5,92.6l4.6-3.4,1.5,2L33,94.6l-1.5-2Zm60.6,10.5-3.4-4.6,2-1.5,3.4,4.6-2,1.5Zm10.5-60.6L98,45.9l-1.5-2,4.6-3.4,1.5,2ZM42,32l3.4,4.6-2,1.5L40,33.5Z" transform="translate(-11.2 -11.8)"/><path class="cls-4" d="M67.9,11.8c1.1,0,2.2,0,3.3.1a49.57,49.57,0,0,1,47,50c0,1.1,0,2.2-.1,3.3a56.81,56.81,0,0,1-17.9,37.7,56.34,56.34,0,0,1-38.7,15.6c-1.1,0-2.2,0-3.3-.1a49.57,49.57,0,0,1-47-50c0-1.1,0-2.2.1-3.3A57.38,57.38,0,0,1,67.9,11.8Zm3.2.6c-1.1-.1-2.1-.1-3.2-.1A57,57,0,0,0,11.7,65.2c-.1,1.1-.1,2.2-.1,3.3A49.05,49.05,0,0,0,58.1,118c1.1.1,2.1.1,3.2.1a57,57,0,0,0,56.2-52.9c.1-1.1.1-2.2.1-3.3A49.05,49.05,0,0,0,71.1,12.4Z" transform="translate(-11.2 -11.8)"/><path class="cls-4" d="M67.3,63.3a4,4,0,0,1,4,4.2,4.49,4.49,0,0,1-4.5,4.2,3.94,3.94,0,0,1-4-4.2A4.64,4.64,0,0,1,67.3,63.3Z" transform="translate(-11.2 -11.8)"/><polyline class="cls-4" points="46.2 24.2 48.6 23.6 57 55.4 55 56.7"/><polyline class="cls-4" points="57.1 55.5 55.6 57 41.2 46.3 42.7 44.3"/></svg>