<?xml version="1.0" encoding="utf-8"?>
<!-- Generator: Adobe Illustrator 26.0.0, SVG Export Plug-In . SVG Version: 6.00 Build 0)  -->
<svg version="1.1" id="market" xmlns="http://www.w3.org/2000/svg" xmlns:xlink="http://www.w3.org/1999/xlink" x="0px" y="0px"
	 width="140px" height="140px" viewBox="0 0 140 140" style="enable-background:new 0 0 140 140;" xml:space="preserve">
<style type="text/css">
	.st0{fill-rule:evenodd;clip-rule:evenodd;fill:#092C74;}
	.st1{fill-rule:evenodd;clip-rule:evenodd;fill:#2897EA;}
	.st2{fill-rule:evenodd;clip-rule:evenodd;fill:#F7F7F7;}
	.st3{fill-rule:evenodd;clip-rule:evenodd;fill:#E8993D;}
</style>
<path class="st0" d="M108,31.1c-9.1-10.3-22.4-16.8-37.7-16.8c-29.4,0-54.6,23.8-56.4,53.1c-1.1,18,6.9,33.9,20.1,43.6
	c9.1,10.3,22.4,16.8,37.7,16.8c29.4,0,54.6-23.8,56.4-53.1C129.1,56.7,121.1,40.7,108,31.1z"/>
<g>
	<ellipse transform="matrix(0.7178 -0.6963 0.6963 0.7178 -28.0944 65.724)" class="st1" cx="67" cy="67.5" rx="49.4" ry="46.5"/>
	<path class="st2" d="M115,66.2c0,0.5,0,0.9-0.1,1.4c-1.6,25.9-23.5,47-49.2,47.9c-24.1-0.8-42.2-20.6-40.8-45
		c1.5-24.9,22.9-45,47.7-45C96.1,25.4,114.2,43.3,115,66.2z"/>
</g>
<g>
	<path class="st3" d="M59.6,110.4l0.8-5.6l2.5,0.3l-0.8,5.6L59.6,110.4L59.6,110.4z M109.9,74.9l-5.6-0.8l0.3-2.5l5.6,0.8
		L109.9,74.9L109.9,74.9z M74.4,24.7l-0.8,5.6L71.2,30l0.8-5.6L74.4,24.7L74.4,24.7z M24.2,60.1l5.6,0.8l-0.3,2.5l-5.6-0.8
		L24.2,60.1z"/>
	<path class="st3" d="M31.5,92.6l4.6-3.4l1.5,2L33,94.6L31.5,92.6L31.5,92.6z M92.1,103.1l-3.4-4.6l2-1.5l3.4,4.6L92.1,103.1
		L92.1,103.1z M102.6,42.5L98,45.9l-1.5-2l4.6-3.4L102.6,42.5L102.6,42.5z M42,32l3.4,4.6l-2,1.5L40,33.5L42,32z"/>
</g>
<path class="st3" d="M67.9,11.8c1.1,0,2.2,0,3.3,0.1c13.4,0.8,25.1,6.6,33.5,15.5c8.4,8.9,13.5,21,13.5,34.5c0,1.1,0,2.2-0.1,3.3
	c-0.9,14.7-7.7,28.1-17.9,37.7c-10.2,9.7-24,15.6-38.7,15.6c-1.1,0-2.2,0-3.3-0.1c-13.4-0.8-25.1-6.6-33.5-15.5
	c-8.4-8.9-13.5-21-13.5-34.5c0-1.1,0-2.2,0.1-3.3c0.9-14.7,7.7-28.1,17.9-37.7C39.4,17.8,53.1,11.8,67.9,11.8L67.9,11.8z M71.1,12.4
	c-1.1-0.1-2.1-0.1-3.2-0.1c-14.6,0-28.2,5.9-38.4,15.5c-10.2,9.6-16.9,22.8-17.8,37.4c-0.1,1.1-0.1,2.2-0.1,3.3
	c0,13.3,5,25.3,13.3,34.1c8.3,8.9,20,14.6,33.2,15.4c1.1,0.1,2.1,0.1,3.2,0.1c14.6,0,28.2-5.9,38.4-15.5
	c10.2-9.6,16.9-22.8,17.8-37.4c0.1-1.1,0.1-2.2,0.1-3.3c0-13.3-5-25.3-13.3-34.1C96,19,84.4,13.2,71.1,12.4z"/>
<path class="st3" d="M67.3,63.3c2.3,0,4.1,1.9,4,4.2c-0.1,2.3-2.1,4.2-4.5,4.2s-4.1-1.9-4-4.2C63,65.2,65,63.3,67.3,63.3z"/>
<polyline class="st3" points="57.4,36 59.8,35.4 68.2,67.2 66.2,68.5 "/>
<polyline class="st3" points="68.3,67.3 66.8,68.8 52.4,58.1 53.9,56.1 "/>
</svg>
