<?xml version="1.0" encoding="UTF-8" standalone="no"?>
<!DOCTYPE svg PUBLIC "-//W3C//DTD SVG 1.1//EN" "http://www.w3.org/Graphics/SVG/1.1/DTD/svg11.dtd">
<svg width="100%" height="100%" viewBox="0 0 1080 1080" version="1.1" xmlns="http://www.w3.org/2000/svg" xmlns:xlink="http://www.w3.org/1999/xlink" xml:space="preserve" xmlns:serif="http://www.serif.com/" style="fill-rule:evenodd;clip-rule:evenodd;stroke-linejoin:round;stroke-miterlimit:2;">
    <g transform="matrix(1,0,0,1,33.95,60.1405)">
        <g>
            <path d="M769.4,545.9L731.1,737C727.3,755.8 708.9,768.1 690.1,764.3L270,680.1C251.2,676.3 238.9,657.9 242.7,639.1L281,448C284.8,429.2 303.2,416.9 322,420.7L742.1,504.9C760.9,508.6 773.2,527.1 769.4,545.9Z" style="fill:rgb(18,126,224);fill-rule:nonzero;"/>
            <g>
                <path d="M322.7,434.1L733,516.4C746.9,519.2 756,532.8 753.3,546.6L716.5,730.1C713.7,743.9 700.1,752.9 686.2,750.1L275.8,667.9C261.9,665.1 252.8,651.5 255.5,637.7L292.3,454.2C295.1,440.4 308.7,431.4 322.7,434.1Z" style="fill:rgb(192,216,251);fill-rule:nonzero;"/>
                <path d="M292.3,454.2L716.9,727.8L716.4,730.1C713.6,743.9 700,752.9 686.1,750.1L275.8,667.9C261.9,665.1 252.8,651.5 255.5,637.7L292.3,454.2Z" style="fill:rgb(203,225,253);fill-rule:nonzero;"/>
            </g>
            <path d="M296.9,510.7L281.5,587.4C280.2,593.6 274.1,597.7 267.9,596.5L266.1,596.1C259.9,594.8 255.8,588.7 257,582.5L272.4,505.8C273.7,499.6 279.8,495.5 286,496.7L287.8,497.1C294,498.3 298.1,504.4 296.9,510.7Z" style="fill:rgb(18,126,224);fill-rule:nonzero;"/>
        </g>
        <path d="M397.4,266.5C389.9,264.4 381.4,269 379.5,276.7C378.7,280 378.2,283.4 377.6,286.7C376.9,290.3 376.3,293.9 375.7,297.6C375,301.4 374.3,305.1 373.7,308.9C373,312.6 372.5,316.3 372,320C371.3,325.4 370.6,330.8 370,336.2C369.9,337.1 369.8,338.1 369.7,339C369.6,340.8 369.8,342.7 370.3,344.4C370.9,346.6 372.6,349.9 374.5,351.3C375.8,352.3 376.8,353.3 378.2,354C378.8,354.3 379.3,354.5 379.9,354.8C380.8,355.3 381.8,355.8 382.7,356.3C384.3,357.2 386,358 387.6,358.9C390.8,360.6 393.9,362.5 397.1,364.4C403.9,368.4 410.4,372.5 416.7,377.3C417.9,378.2 419.2,379.2 420.4,380.1C422.7,381.4 425.1,382.1 427.8,382.1C431.6,382.1 435.4,380.6 438.1,377.8C439.9,376 441.2,373.8 441.8,371.4C442.1,370.1 442.3,368.8 442.3,367.4C442.3,364.8 441.7,362.2 440.3,360.2C439.5,359.2 438.8,358.2 438,357.3C437.1,356.4 436.1,355.6 435,355C431.7,352.6 428.6,350.1 425.2,347.8C422.1,345.6 418.9,343.6 415.7,341.7C414,340.7 412.4,339.7 410.7,338.8C414.5,336.8 418.3,334.9 422.3,333.1C433.8,328.4 445.9,325.1 458.2,323.3C470.8,321.8 483.4,321.8 496,323.3C508.3,325.1 520.2,328.4 531.7,333.1C542.8,338 553.3,344.1 563.1,351.4C572.6,358.9 581.2,367.5 588.7,377C596,386.7 602.1,397.1 606.9,408.2C609.8,415.3 612.1,422.6 613.9,430C615.8,437.7 624.3,442.2 631.8,440.2C635.4,439.2 638.6,436.8 640.5,433.5C641.8,431.2 642.5,428.7 642.5,426.2C642.5,424.9 642.3,423.6 642,422.3C639.1,410.6 634.9,399.3 629.7,388.4C625,378.6 619.2,369.3 612.5,360.7C608.4,355.4 604.2,350.2 599.5,345.4C595.7,341.4 591.7,337.7 587.5,334.1C578.1,326.1 567.9,319 557,313.2C551.1,310 544.9,307.3 538.7,304.8C533.4,302.7 527.9,300.8 522.4,299.3C510.7,296 498.6,294.2 486.5,293.4C474.4,292.6 462.4,293.6 450.4,295.3C439.4,296.9 428.5,299.7 418.1,303.7C412.9,305.7 407.8,307.9 402.9,310.2C403.3,308.3 403.6,306.3 403.9,304.4C404.5,301 405.1,297.6 405.7,294.2C406.3,291 406.8,287.7 407.6,284.6C408.6,280.8 408.1,276.8 406.1,273.4C404.2,270 401,267.5 397.4,266.5Z" style="fill:rgb(233,153,62);fill-rule:nonzero;"/>
        <path d="M637.7,891.2C645.5,891.3 652.5,884.7 652.4,876.8C652.3,873.4 652,870 651.7,866.7C651.4,863 651.1,859.4 650.8,855.7C650.5,851.9 650.2,848.1 649.9,844.2C649.6,840.5 649.2,836.8 648.7,833.1C648,827.7 647.3,822.3 646.5,816.9C646.4,816 646.2,815 646,814.1C645.6,812.3 644.9,810.6 644,809C642.9,807 640.4,804.3 638.2,803.4C636.7,802.7 635.5,802.1 633.9,801.7C633.3,801.6 632.7,801.5 632.1,801.4C631.1,801.2 630,800.9 629,800.6C627.2,800.2 625.4,799.8 623.6,799.4C620,798.6 616.5,797.5 613,796.5C605.5,794.4 598,792.1 590.8,789.1C589.4,788.5 587.9,787.9 586.5,787.4C584,786.7 581.4,786.7 578.9,787.4C575.2,788.4 572,790.8 570,794.2C568.7,796.4 568.1,798.8 568,801.4C568,802.7 568.2,804.1 568.5,805.4C569.2,807.9 570.4,810.2 572.3,811.9C573.3,812.7 574.3,813.4 575.3,814.2C576.4,814.8 577.6,815.3 578.8,815.7C582.6,817.1 586.3,818.8 590.1,820.1C593.6,821.4 597.3,822.6 600.9,823.6C602.8,824.1 604.6,824.6 606.5,825.2C603.4,828.1 600.1,830.9 596.8,833.6C586.8,841.1 576,847.3 564.6,852.3C552.8,857 540.6,860.2 528.1,862C515.8,863.4 503.4,863.3 491.1,861.7C479.1,859.8 467.4,856.6 456.1,852C445,847.1 434.5,841 424.8,833.8C415.3,826.3 406.7,817.8 399.2,808.3C394.6,802.2 390.5,795.8 386.8,789C383,782 373.6,779.8 366.9,783.8C363.6,785.7 361.2,788.9 360.2,792.5C359.5,795 359.5,797.6 360.2,800.1C360.5,801.4 361,802.6 361.7,803.8C367.5,814.4 374.5,824.2 382.3,833.4C389.4,841.7 397.3,849.2 406,855.8C411.3,859.9 416.7,863.8 422.4,867.3C427.1,870.2 431.9,872.8 436.9,875.1C448.1,880.4 459.7,884.7 471.7,887.5C478.3,889 484.9,890.1 491.6,890.9C497.3,891.6 503,892 508.7,892.1C520.8,892.3 533,890.9 544.9,888.6C556.8,886.2 568.2,882.3 579.3,877.5C589.5,873.1 599.3,867.6 608.4,861.1C612.9,857.9 617.3,854.5 621.4,850.9C621.6,852.9 621.7,854.8 621.9,856.8C622.2,860.2 622.5,863.7 622.7,867.1C622.9,870.3 623.3,873.6 623.4,876.9C623.5,880.8 624.9,884.6 627.7,887.4C630.2,889.6 633.9,891.2 637.7,891.2Z" style="fill:rgb(233,153,62);fill-rule:nonzero;"/>
        <g>
            <path d="M245.2,76.2C248.4,78.9 250.2,82.5 250.8,87L245.2,87C244.6,84.1 243.1,81.7 240.8,79.9C238.4,78.1 235.4,77.2 231.7,77.2C228.4,77.2 225.3,78 222.5,79.5C219.6,81 217.2,83.2 215.2,86.1C213.2,88.9 211.9,92.3 211.2,96.1C210.9,97.7 210.8,99.2 210.8,100.6C210.8,105.2 212.1,108.8 214.8,111.3C217.5,113.9 221.1,115.1 225.6,115.1C228.5,115.1 231.5,114.5 234.1,113.2C236.8,111.9 239.2,110.1 241.1,107.6C243.1,105.1 244.5,102.3 245.5,99L226.5,99L227.4,94L250.8,94L249.8,99.6C248.7,103.4 247,106.9 244.6,109.9C242.2,112.9 239.2,115.2 235.8,116.9C232.3,118.6 228.5,119.4 224.3,119.4C223,119.4 221.7,119.3 220.5,119.1C212.2,117.9 205.9,110.8 205.2,102.4C205.2,101.8 205.1,101.2 205.1,100.5C205.1,98.8 205.3,97 205.6,95.3C206.4,90.7 208.1,86.7 210.6,83.1C213.2,79.6 216.4,76.8 220.1,74.8C223.8,72.8 228,71.8 232.5,71.8C237.8,72 242,73.4 245.2,76.2Z" style="fill:rgb(0,39,119);fill-rule:nonzero;"/>
            <path d="M269.3,82L262.5,120L256.3,120L263.1,82C263,82 269.3,82 269.3,82ZM265.2,68.9C266.2,68 267.4,67.6 268.8,67.6C269.9,67.6 270.8,67.9 271.5,68.5C272.1,69.1 272.5,69.8 272.5,70.7C272.5,72 272,73.1 271.1,74C270.1,74.9 268.9,75.3 267.5,75.3C266.4,75.3 265.5,75 264.8,74.4C264.2,73.8 263.8,73.1 263.8,72.2C263.7,70.9 264.2,69.8 265.2,68.9Z" style="fill:rgb(0,39,119);fill-rule:nonzero;"/>
            <path d="M290.8,84.5C293.5,83 296.3,82.3 299.6,82.3L298.4,89L296.7,89C293.3,89 290.2,89.9 287.6,91.6C285,93.3 283.3,96.3 282.5,100.4L278.9,121L272.7,121L279.5,83L285.9,83L284.5,90.5C285.9,87.9 288.1,85.9 290.8,84.5Z" style="fill:rgb(0,39,119);fill-rule:nonzero;"/>
            <path d="M330.2,84.3C332.5,86.2 333.9,88.6 334.3,91.7L336,82L342.2,82L335.4,120L329,120L330.7,110.3C329.2,113.3 327.1,115.8 324.1,117.7C321.2,119.6 317.9,120.5 314.2,120.5C309.8,120.5 306.1,119.2 303.6,116.5C301,113.9 299.7,110.1 299.7,105.5C299.7,103.8 299.9,102.2 300.2,100.6C300.9,96.8 302.2,93.3 304.2,90.4C306.2,87.5 308.6,85.3 311.5,83.7C314.4,82.2 317.4,81.4 320.8,81.4C324.9,81.5 327.9,82.4 330.2,84.3ZM312.2,91.3C309.5,93.8 307.7,97.1 307,101.4C306.8,102.7 306.7,103.8 306.7,104.8C306.7,108.1 307.6,110.7 309.5,112.5C311.4,114.3 314,115.2 317.3,115.2C319.7,115.2 322,114.6 324.2,113.5C326.4,112.4 328.2,110.7 329.6,108.7C331.1,106.6 332.1,104.2 332.6,101.5C332.8,100.5 332.9,99.5 332.9,98.4C332.9,95.1 331.9,92.5 330,90.6C328.1,88.7 325.5,87.7 322.3,87.7C318.3,87.6 314.9,88.8 312.2,91.3Z" style="fill:rgb(0,39,119);fill-rule:nonzero;"/>
            <path d="M371.9,107.9C371.8,108.8 371.7,109.5 371.7,110.1C371.7,111.6 372.1,112.5 372.9,113.1C373.7,113.7 374.9,114 376.8,114L380.7,114L379.6,120L374.9,120C371.7,120 369.3,119.4 367.7,118.1C366.1,116.8 365.3,114.7 365.3,111.8C365.3,110.5 365.4,109.2 365.6,108.1L369.2,87.9L363.6,87.9L364.5,81.9L370.4,81.9L371.9,72.9L377.9,72.9L376.4,81.9L386.3,81.9L385.3,87.9L375.5,87.9L371.9,107.9Z" style="fill:rgb(0,39,119);fill-rule:nonzero;"/>
            <path d="M428,82L421.2,120L414.8,120L416.3,111.2C414.8,114.2 412.7,116.5 409.9,118.2C407.2,119.8 404.2,120.6 400.9,120.6C397.2,120.6 394.1,119.6 392,117.5C389.8,115.4 388.7,112.4 388.7,108.4C388.7,106.8 388.8,105.4 389,104.2L392.9,82L399.5,82L395.7,103.9C395.5,104.9 395.4,105.9 395.4,107C395.4,109.8 396.2,111.9 397.7,113.4C399.3,114.9 401.5,115.6 404.3,115.6C407.6,115.6 410.4,114.6 412.7,112.6C415,110.6 416.7,107.7 417.6,103.8L421.4,82L428,82Z" style="fill:rgb(0,39,119);fill-rule:nonzero;"/>
            <path d="M493,69L484,120L477.7,120L479.4,110.4C477.9,113.5 475.7,115.9 472.8,117.8C469.9,119.6 466.6,120.5 463,120.5C458.6,120.5 455.2,119.2 452.6,116.5C450,113.8 448.7,110.2 448.7,105.5C448.7,104.3 448.9,102.7 449.2,100.7C449.9,96.9 451.2,93.5 453.2,90.6C455.2,87.7 457.6,85.5 460.4,84C463.2,82.5 466.3,81.7 469.6,81.7C473.3,81.7 476.3,82.6 478.6,84.4C480.9,86.2 482.2,88.7 482.7,91.8L486.8,69.1L493,69.1L493,69ZM460.7,91.3C457.9,93.8 456.2,97.1 455.4,101.4C455.2,102.5 455.1,103.6 455.1,104.8C455.1,108.1 456,110.7 457.9,112.5C459.8,114.3 462.4,115.2 465.7,115.2C468.2,115.2 470.5,114.6 472.6,113.5C474.8,112.4 476.6,110.7 478,108.7C479.5,106.6 480.5,104.2 481,101.5C481.2,100.5 481.3,99.5 481.3,98.5C481.3,95.2 480.3,92.6 478.4,90.6C476.5,88.7 473.9,87.7 470.6,87.7C466.8,87.6 463.4,88.8 460.7,91.3Z" style="fill:rgb(0,39,119);fill-rule:nonzero;"/>
            <path d="M507.4,82L500.6,120L494.2,120L501,82L507.4,82ZM503.3,68.9C504.3,68 505.5,67.6 506.9,67.6C508,67.6 508.9,67.9 509.6,68.5C510.2,69.1 510.6,69.8 510.6,70.7C510.6,72 510.1,73.1 509.2,74C508.2,74.9 507,75.3 505.6,75.3C504.5,75.3 503.6,75 502.9,74.4C502.3,73.8 501.9,73.1 501.9,72.2C501.9,70.9 502.3,69.8 503.3,68.9Z" style="fill:rgb(0,39,119);fill-rule:nonzero;"/>
            <path d="M538.1,85C540.6,87.2 541.8,90.2 541.9,94L535.7,94C535.8,91.7 535.1,89.9 533.5,88.4C532,87 529.7,86.3 526.7,86.3C524.4,86.3 522.6,86.9 521.2,88C519.8,89.1 519.1,90.6 519.1,92.4C519.1,93.6 519.5,94.6 520.3,95.3C521.1,96.1 522,96.7 523.2,97.2C524.4,97.7 525.9,98.2 527.9,98.7C530.4,99.4 532.5,100.1 534.1,100.8C535.7,101.5 537,102.5 538.1,103.8C539.2,105.1 539.7,106.9 539.7,109C539.7,109.5 539.6,110.4 539.4,111.5C538.9,114.1 537.5,116.2 535.1,117.9C532.7,119.5 529.7,120.3 525.9,120.3C521.1,120.3 517.4,119.2 514.6,117C511.8,114.8 510.5,111.8 510.5,108L516.7,108C516.5,110.3 517.3,112.1 519,113.6C520.7,115 523.2,115.7 526.5,115.7C528.8,115.7 530.6,115.1 531.9,114C533.2,112.9 533.8,111.4 533.8,109.6C533.8,108.2 533.4,107.1 532.6,106.2C531.8,105.3 530.8,104.7 529.6,104.2C528.4,103.7 526.8,103.2 524.7,102.6C522.3,101.9 520.4,101.3 518.9,100.6C517.4,100 516.2,99.1 515.1,97.8C514.1,96.6 513.6,94.9 513.6,92.9C513.6,92.2 513.7,91.4 513.8,90.6C514.3,87.9 515.7,85.7 518.1,84C520.5,82.3 523.6,81.5 527.5,81.5C532.1,81.7 535.7,82.8 538.1,85Z" style="fill:rgb(0,39,119);fill-rule:nonzero;"/>
            <path d="M583.7,85.4C586.3,88 587.6,91.6 587.6,96.3C587.6,97.8 587.5,99.3 587.2,101C586.5,104.9 585.2,108.5 583.2,111.4C581.2,114.3 578.8,116.5 575.7,118.1C572.8,119.7 569.7,120.4 566.2,120.4C562.5,120.4 559.6,119.5 557.3,117.7C555.1,115.9 553.8,113.4 553.3,110.2L548.4,137.9L542.2,137.9L552.1,81.9L558.4,81.9L556.7,91.6C558.2,88.5 560.4,86.1 563.3,84.1C566.2,82.3 569.5,81.4 573.2,81.4C577.5,81.5 581.1,82.8 583.7,85.4ZM575.3,111.5C578,109 579.8,105.7 580.6,101.4C580.8,100.3 580.9,99.2 580.9,98C580.9,94.7 580,92.1 578.1,90.3C576.2,88.5 573.6,87.6 570.3,87.6C567.8,87.6 565.5,88.2 563.4,89.3C561.3,90.4 559.5,92 558,94.1C556.5,96.2 555.5,98.6 555,101.4C554.8,102.4 554.7,103.4 554.7,104.5C554.7,107.8 555.7,110.4 557.6,112.3C559.5,114.2 562.1,115.2 565.3,115.2C569.2,115.2 572.6,114 575.3,111.5Z" style="fill:rgb(0,39,119);fill-rule:nonzero;"/>
            <path d="M623.9,83.9C626.3,85.1 628.2,86.9 629.6,89.2C631,91.5 631.6,94.3 631.6,97.5C631.6,98.9 631.5,100.4 631.2,101.9C630.5,105.7 629.1,109.1 627,111.9C624.9,114.7 622.2,116.9 619.1,118.4C616,119.9 612.6,120.7 609.1,120.7C604.2,120.7 600.3,119.3 597.3,116.6C594.3,113.9 592.9,110.1 592.9,105.3C592.9,103.9 593,102.5 593.3,101C594,97.2 595.4,93.8 597.6,90.9C599.8,88 602.4,85.8 605.5,84.3C608.6,82.8 612,82 615.6,82C618.7,82 621.5,82.6 623.9,83.9ZM608.2,89C606.1,90 604.3,91.6 602.8,93.6C601.3,95.7 600.2,98.3 599.7,101.3C599.5,102.7 599.4,103.8 599.4,104.7C599.4,108.1 600.4,110.7 602.4,112.4C604.4,114.2 606.9,115 610,115C612.2,115 614.4,114.5 616.5,113.5C618.6,112.5 620.4,110.9 621.9,108.9C623.4,106.8 624.5,104.3 625,101.2C625.2,99.8 625.3,98.7 625.3,97.8C625.3,94.4 624.3,91.8 622.3,90C620.3,88.2 617.8,87.4 614.8,87.4C612.4,87.5 610.3,88 608.2,89Z" style="fill:rgb(0,39,119);fill-rule:nonzero;"/>
            <path d="M663.4,85C665.9,87.2 667.1,90.2 667.2,94L661,94C661.1,91.7 660.4,89.9 658.8,88.4C657.3,87 655,86.3 652,86.3C649.7,86.3 647.9,86.9 646.5,88C645.1,89.1 644.4,90.6 644.4,92.4C644.4,93.6 644.8,94.6 645.6,95.3C646.4,96.1 647.3,96.7 648.5,97.2C649.7,97.7 651.2,98.2 653.2,98.7C655.7,99.4 657.8,100.1 659.4,100.8C661,101.5 662.3,102.5 663.4,103.8C664.5,105.1 665,106.9 665,109C665,109.5 664.9,110.4 664.7,111.5C664.2,114.1 662.8,116.2 660.4,117.9C658,119.5 655,120.3 651.2,120.3C646.4,120.3 642.7,119.2 639.9,117C637.1,114.8 635.8,111.8 635.8,108L642,108C641.8,110.3 642.6,112.1 644.3,113.6C646,115 648.5,115.7 651.8,115.7C654.1,115.7 655.9,115.1 657.2,114C658.5,112.9 659.1,111.4 659.1,109.6C659.1,108.2 658.7,107.1 657.9,106.2C657.1,105.3 656.1,104.7 654.9,104.2C653.7,103.7 652.1,103.2 650,102.6C647.6,101.9 645.7,101.3 644.2,100.6C642.7,100 641.5,99.1 640.4,97.8C639.4,96.6 638.9,94.9 638.9,92.9C638.9,92.2 639,91.4 639.1,90.6C639.6,87.9 641,85.7 643.4,84C645.8,82.3 648.9,81.5 652.8,81.5C657.3,81.7 660.9,82.8 663.4,85Z" style="fill:rgb(0,39,119);fill-rule:nonzero;"/>
            <path d="M683.6,82L676.8,120L670.4,120L677.2,82L683.6,82ZM679.4,68.9C680.4,68 681.6,67.6 683,67.6C684.1,67.6 685,67.9 685.7,68.5C686.3,69.1 686.7,69.8 686.7,70.7C686.7,72 686.2,73.1 685.3,74C684.3,74.9 683.1,75.3 681.7,75.3C680.6,75.3 679.7,75 679,74.4C678.4,73.8 678,73.1 678,72.2C678,70.9 678.5,69.8 679.4,68.9Z" style="fill:rgb(0,39,119);fill-rule:nonzero;"/>
            <path d="M696.4,107.9C696.3,108.8 696.2,109.5 696.2,110.1C696.2,111.6 696.6,112.5 697.4,113.1C698.2,113.7 699.4,114 701.3,114L705.2,114L704.1,120L699.4,120C696.2,120 693.8,119.4 692.2,118.1C690.6,116.8 689.8,114.7 689.8,111.8C689.8,110.5 689.9,109.2 690.1,108.1L693.7,87.9L688.1,87.9L689,81.9L694.9,81.9L696.4,72.9L702.4,72.9L700.9,81.9L710.8,81.9L709.8,87.9L700,87.9L696.4,107.9Z" style="fill:rgb(0,39,119);fill-rule:nonzero;"/>
            <path d="M725.4,82L718.6,120L712.2,120L719,82L725.4,82ZM721.3,68.9C722.3,68 723.5,67.6 724.9,67.6C726,67.6 726.9,67.9 727.6,68.5C728.2,69.1 728.6,69.8 728.6,70.7C728.6,72 728.1,73.1 727.2,74C726.2,74.9 725,75.3 723.6,75.3C722.5,75.3 721.6,75 720.9,74.4C720.3,73.8 719.9,73.1 719.9,72.2C719.8,70.9 720.3,69.8 721.3,68.9Z" style="fill:rgb(0,39,119);fill-rule:nonzero;"/>
            <path d="M743.8,113.3L761.1,82L767.9,82L746.3,120L738.8,120L730.6,82L737.4,82L743.8,113.3Z" style="fill:rgb(0,39,119);fill-rule:nonzero;"/>
            <path d="M799.3,83.9C801.7,85.1 803.6,86.9 805,89.2C806.4,91.5 807,94.3 807,97.5C807,98.9 806.9,100.4 806.6,101.9C805.9,105.7 804.5,109.1 802.4,111.9C800.3,114.7 797.6,116.9 794.5,118.4C791.4,119.9 788,120.7 784.5,120.7C779.6,120.7 775.7,119.3 772.7,116.6C769.7,113.9 768.3,110.1 768.3,105.3C768.3,103.9 768.4,102.5 768.7,101C769.4,97.2 770.8,93.8 773,90.9C775.2,88 777.8,85.8 780.9,84.3C784,82.8 787.4,82 791,82C794.1,82 796.9,82.6 799.3,83.9ZM783.6,89C781.5,90 779.7,91.6 778.2,93.6C776.7,95.7 775.6,98.3 775.1,101.3C774.9,102.7 774.8,103.8 774.8,104.7C774.8,108.1 775.8,110.7 777.8,112.4C779.8,114.2 782.3,115 785.4,115C787.6,115 789.8,114.5 791.9,113.5C794,112.5 795.8,110.9 797.3,108.9C798.8,106.8 799.9,104.3 800.4,101.2C800.6,99.8 800.7,98.7 800.7,97.8C800.7,94.4 799.7,91.8 797.7,90C795.7,88.2 793.2,87.4 790.2,87.4C787.9,87.5 785.7,88 783.6,89Z" style="fill:rgb(0,39,119);fill-rule:nonzero;"/>
        </g>
    </g>
</svg>
