<svg id="Layer_1" data-name="Layer 1" xmlns="http://www.w3.org/2000/svg" viewBox="0 0 127.5 53.09"><defs><style>.cls-1{fill:#ffa900;}.cls-2{fill:#003668;}</style></defs><title>erro2</title><path class="cls-1" d="M111.1,86.2a18.41,18.41,0,0,0-16.4,5.2l11.8,9.1Z" transform="translate(-42.6 -85.91)"/><path class="cls-1" d="M124.8,97.2a18.61,18.61,0,0,0-12.5-10.8c-.3-.1-.5-.1-.8-.2l-1.3,14.9Z" transform="translate(-42.6 -85.91)"/><path class="cls-1" d="M126,107a17.9,17.9,0,0,0-1.1-9.5l-10.8,5.3A73.19,73.19,0,0,1,126,107" transform="translate(-42.6 -85.91)"/><path class="cls-1" d="M94.4,91.6a18.79,18.79,0,0,0-4.5,7.9,124.8,124.8,0,0,1,12.5,1Z" transform="translate(-42.6 -85.91)"/><path class="cls-2" d="M125.7,108.3c-20.7-9.8-47.9-7.1-47.9-7.1a104.33,104.33,0,0,1,39.9,10.5c1.9.9,3.7,1.8,5.4,2.8a18.31,18.31,0,0,0,2.5-5.7.75.75,0,0,0,.1-.5" transform="translate(-42.6 -85.91)"/><path class="cls-2" d="M59.3,123.3h4.3v2.6h.1a5.19,5.19,0,0,1,1.6-1.9,4.27,4.27,0,0,1,2.4-.6h.7c.2,0,.5.1.7.1v3.9a2.92,2.92,0,0,0-.9-.2c-.3,0-.6-.1-.9-.1a5.62,5.62,0,0,0-2,.3,2.66,2.66,0,0,0-1.1,1,3.33,3.33,0,0,0-.5,1.5,11.48,11.48,0,0,0-.1,1.9v6.9H59.3Z" transform="translate(-42.6 -85.91)"/><path class="cls-2" d="M139.4,123.3h4.3v2.6h.1a5.19,5.19,0,0,1,1.6-1.9,4.27,4.27,0,0,1,2.4-.6h.7c.2,0,.5.1.7.1v3.9a2.92,2.92,0,0,0-.9-.2c-.3,0-.6-.1-.9-.1a5.62,5.62,0,0,0-2,.3,2.66,2.66,0,0,0-1.1,1,3.33,3.33,0,0,0-.5,1.5,11.48,11.48,0,0,0-.1,1.9v6.9h-4.3Z" transform="translate(-42.6 -85.91)"/><path class="cls-2" d="M69,131.1a7.94,7.94,0,0,1,.6-3.2,7.39,7.39,0,0,1,1.7-2.5,7.16,7.16,0,0,1,2.5-1.6,7.65,7.65,0,0,1,3-.6,7.31,7.31,0,0,1,3,.6,8.21,8.21,0,0,1,2.5,1.6,9.17,9.17,0,0,1,1.7,2.5,8.29,8.29,0,0,1,.6,3.2,7.94,7.94,0,0,1-.6,3.2,7.39,7.39,0,0,1-1.7,2.5,7.16,7.16,0,0,1-2.5,1.6,7.65,7.65,0,0,1-3,.6,7.31,7.31,0,0,1-3-.6,8.21,8.21,0,0,1-2.5-1.6,9.17,9.17,0,0,1-1.7-2.5,8.29,8.29,0,0,1-.6-3.2m4.3,0a4,4,0,0,0,.9,2.7,3.63,3.63,0,0,0,5,0,4.5,4.5,0,0,0,0-5.4,3.17,3.17,0,0,0-2.5-1,3,3,0,0,0-2.5,1,3.83,3.83,0,0,0-.9,2.7" transform="translate(-42.6 -85.91)"/><path class="cls-2" d="M150.3,131.1a7.94,7.94,0,0,1,.6-3.2,7.39,7.39,0,0,1,1.7-2.5,7.16,7.16,0,0,1,2.5-1.6,7.65,7.65,0,0,1,3-.6,7.31,7.31,0,0,1,3,.6,8.21,8.21,0,0,1,2.5,1.6,9.17,9.17,0,0,1,1.7,2.5,8.29,8.29,0,0,1,.6,3.2,7.94,7.94,0,0,1-.6,3.2,7.39,7.39,0,0,1-1.7,2.5,7.16,7.16,0,0,1-2.5,1.6,7.65,7.65,0,0,1-3,.6,7.31,7.31,0,0,1-3-.6,8.21,8.21,0,0,1-2.5-1.6,9.17,9.17,0,0,1-1.7-2.5,8.29,8.29,0,0,1-.6-3.2m4.3,0a4,4,0,0,0,.9,2.7,3.63,3.63,0,0,0,5,0,4.5,4.5,0,0,0,0-5.4,3.17,3.17,0,0,0-2.5-1,3,3,0,0,0-2.5,1,3.83,3.83,0,0,0-.9,2.7" transform="translate(-42.6 -85.91)"/><path class="cls-2" d="M86.6,126.6H84.4v-3.3h2.2v-1a14.6,14.6,0,0,1,.3-2.2,3.81,3.81,0,0,1,2.5-3,7.54,7.54,0,0,1,2.8-.4,11.9,11.9,0,0,1,3.2.5l-.9,3.4a1.85,1.85,0,0,0-.7-.2c-.2,0-.4-.1-.7-.1a2.54,2.54,0,0,0-1.6.4,2.57,2.57,0,0,0-.5,1.8v.8h2.2v3.3H91v12.1H86.6Z" transform="translate(-42.6 -85.91)"/><path class="cls-2" d="M137.2,138.7H133v-1.9s-.3.5-.5.8a2.18,2.18,0,0,1-.9.7,3.7,3.7,0,0,1-1.1.5,5.9,5.9,0,0,1-1.4.2,6.84,6.84,0,0,1-2.7-.5,2.94,2.94,0,0,1-1.5-1.4,4.76,4.76,0,0,1-.7-2.1,21.12,21.12,0,0,1-.2-2.6v-9.1h4.5v9.5a5,5,0,0,0,.2,1.2,2,2,0,0,0,.6.9,1.61,1.61,0,0,0,1.1.3,1.8,1.8,0,0,0,1.1-.3,3,3,0,0,0,.8-.8,2,2,0,0,0,.3-1.1,5.7,5.7,0,0,0,.1-1.3v-8.4h4.4Z" transform="translate(-42.6 -85.91)"/><path class="cls-2" d="M108.6,138.7h-4.2v-1.9s-.3.5-.5.8a2.18,2.18,0,0,1-.9.7,3.7,3.7,0,0,1-1.1.5,5.9,5.9,0,0,1-1.4.2,6.84,6.84,0,0,1-2.7-.5,2.94,2.94,0,0,1-1.5-1.4,4.76,4.76,0,0,1-.7-2.1,21.12,21.12,0,0,1-.2-2.6v-9.1h4.5v9.5a5,5,0,0,0,.2,1.2,2,2,0,0,0,.6.9,1.61,1.61,0,0,0,1.1.3,1.8,1.8,0,0,0,1.1-.3,3,3,0,0,0,.8-.8,2,2,0,0,0,.3-1.1,5.7,5.7,0,0,0,.1-1.3v-8.4h4.4v15.4Z" transform="translate(-42.6 -85.91)"/><path class="cls-2" d="M121.8,126.7h-4.4v6.1a3.08,3.08,0,0,0,.1,1,1.14,1.14,0,0,0,.3.8,1,1,0,0,0,.6.5,3.09,3.09,0,0,0,1.1.2,3.44,3.44,0,0,0,.9-.1,3.27,3.27,0,0,0,1.5-.6v3.6a6.22,6.22,0,0,1-2.1.6,7.57,7.57,0,0,1-1.5.1,13.61,13.61,0,0,1-2.1-.2,7.74,7.74,0,0,1-1.6-.7,3.25,3.25,0,0,1-1-1.3,3.94,3.94,0,0,1-.5-2v-8.1h-2.2v-3.4h2.2v-4.4h4.4v4.4h4.4v3.5Z" transform="translate(-42.6 -85.91)"/><path class="cls-2" d="M42.6,116.7h7.7a13.86,13.86,0,0,1,3,.3,6.35,6.35,0,0,1,2.5,1.1,5.51,5.51,0,0,1,1.7,2,7.31,7.31,0,0,1,.6,3.2,7.62,7.62,0,0,1-.6,3.2,5.6,5.6,0,0,1-1.6,2.1,6.59,6.59,0,0,1-2.4,1.1,13.86,13.86,0,0,1-3,.3H47v8.7H42.6Zm4.5,8.8h3.4a4.87,4.87,0,0,0,1.2-.1,3,3,0,0,0,1-.4,2.34,2.34,0,0,0,.7-.7,2,2,0,0,0,.3-1.1,1.25,1.25,0,0,0-.4-1.1,3.11,3.11,0,0,0-.9-.7,2.77,2.77,0,0,0-1.3-.3c-.5,0-.9-.1-1.3-.1H47.1Z" transform="translate(-42.6 -85.91)"/><path class="cls-2" d="M167.6,125.2h.5c.3,0,.5-.1.5-.4s-.2-.4-.5-.4h-.5Zm-.4-1.1h1c.6,0,.9.2.9.7a.67.67,0,0,1-.6.7l.7,1.1h-.4l-.7-1.1h-.4v1.1h-.4Zm.8,3.1a1.71,1.71,0,0,0,1.7-1.8,1.77,1.77,0,0,0-1.7-1.8,1.71,1.71,0,0,0-1.7,1.8,1.65,1.65,0,0,0,1.7,1.8m0-3.9a2.1,2.1,0,1,1-2.1,2.1,2,2,0,0,1,2.1-2.1" transform="translate(-42.6 -85.91)"/></svg>