<svg id="Layer_1" data-name="Layer 1" xmlns="http://www.w3.org/2000/svg" viewBox="0 0 64.37 94.07"><title>firma</title><path d="M137.5,104.2a27.48,27.48,0,0,1-11.9,2.6l-.7-1.6c-.5-1.2-2.6-1.3-2.8.2-.1.5-.7,4.8-2.4,2.8-1-1.1-.7-3.1-.6-4.5a6,6,0,0,0-1.3-4.6c-1.3-1.3-4.7-2.5-6-.5-2.1,3.1,1.8,6.7-.7,10.1-1.5,2-4.5,1.1-6.1-.3,1.7-3.5,1-7.2-1.1-10.5a1.54,1.54,0,0,0-2.6.2c-1.2,3.1-1.6,7.2-.1,10.2a4.33,4.33,0,0,1-4.5.7,17.21,17.21,0,0,0,1-14.1,1.57,1.57,0,0,0-2.9-.1c-2.1,3.5-3.9,7.1-3.3,11.3a7.92,7.92,0,0,0,1.4,3.4,13.61,13.61,0,0,1-8.8,5.4c-.1-.2-.1-.4-.2-.6-.3-.8-.7-1.7-1-2.5-.2-2-.3-4-.4-6,.3-.5.6-1,.9-1.6a59.77,59.77,0,0,0,3.8-8.1,63.39,63.39,0,0,0,3-35,1.57,1.57,0,0,0-2.7-.9c-3,2.8-4.1,6.6-5,10.5A135.2,135.2,0,0,0,80,86.2a144.52,144.52,0,0,0-.6,18.6l-.3.6c-1.5,2.5-.3,5.1.8,7.5.1,1.3.3,2.6.4,3.9a1.46,1.46,0,0,0,1.6,1.3H82a76.17,76.17,0,0,1,2.2,8.2,61.09,61.09,0,0,1-.1,24.1c-3.1-1.1-4.8-16.6-5-18.7a147,147,0,0,1-.8-16.3,1.23,1.23,0,0,0,.5-1.4l-.8-2c-.4-1.3-2.6-1.1-2.7.2a103,103,0,0,0,.6,20c.4,3.4,1,6.9,1.7,10.2.6,2.8,1,5.7,2.3,8.2,1.5,2.9,6.2,5.1,7.1.7a64.49,64.49,0,0,0,1-18.6A67.33,67.33,0,0,0,85,118a17,17,0,0,0,10.1-6.2,6.67,6.67,0,0,0,2.1.9,7.14,7.14,0,0,0,6-1.7,4.44,4.44,0,0,0,1.1.8c3.8,2.1,9.5,1.3,10.5-3.6a15.93,15.93,0,0,0-.5-7.2,1,1,0,0,1,1.3.2c.9.6.6,3.1.6,4a7.56,7.56,0,0,0,.8,4.2c1.1,1.6,2.6,2.8,4.6,2.5a3.71,3.71,0,0,0,2.6-2.3c.2.1.5.1.7.2a29.24,29.24,0,0,0,13.7-2.7C140.2,106.2,139.2,103.4,137.5,104.2ZM82.7,88c.4-4.5,1.1-8.9,1.9-13.3.6-3.3,1.2-6.8,3-9.7a61.66,61.66,0,0,1-5.4,34.4A87,87,0,0,1,82.7,88Zm12.8,12.1a13.37,13.37,0,0,1-1.1,6.6C93.7,104.7,94.5,102.3,95.5,100.1Z" transform="translate(-75.03 -59.72)"/></svg>